because-we-create.ufo
<glyph name="exclam" format="1">
  <advance width="153"/>
  <unicode hex="0021"/>
  <outline>
    <contour>
      <point x="85" y="172" type="line"/>
      <point x="97" y="313"/>
      <point x="115" y="440"/>
      <point x="115" y="577" type="curve" smooth="yes"/>
      <point x="115" y="596"/>
      <point x="117" y="621"/>
      <point x="117" y="646" type="curve" smooth="yes"/>
      <point x="117" y="696"/>
      <point x="108" y="745"/>
      <point x="49" y="745" type="curve" smooth="yes"/>
      <point x="38" y="745"/>
      <point x="35" y="726"/>
      <point x="35" y="709" type="curve" smooth="yes"/>
      <point x="35" y="605"/>
      <point x="22" y="503"/>
      <point x="22" y="402" type="curve" smooth="yes"/>
      <point x="22" y="336"/>
      <point x="26" y="271"/>
      <point x="33" y="206" type="curve" smooth="yes"/>
      <point x="36" y="176"/>
      <point x="47" y="171"/>
      <point x="63" y="171" type="curve" smooth="yes"/>
      <point x="70" y="171"/>
      <point x="77" y="172"/>
      <point x="85" y="172" type="curve"/>
    </contour>
    <contour>
      <point x="31" y="33" type="line"/>
      <point x="42" y="-2"/>
      <point x="72" y="-18"/>
      <point x="104" y="-18" type="curve" smooth="yes"/>
      <point x="114" y="-18"/>
      <point x="128" y="-10"/>
      <point x="128" y="5" type="curve" smooth="yes"/>
      <point x="128" y="24"/>
      <point x="84" y="60"/>
      <point x="51" y="60" type="curve" smooth="yes"/>
      <point x="38" y="60"/>
      <point x="31" y="52"/>
      <point x="31" y="33" type="curve"/>
    </contour>
  </outline>
</glyph>
<glyph name="quotedbl" format="1">
  <advance width="266"/>
  <unicode hex="0022"/>
  <outline>
    <contour>
      <point x="52" y="708" type="line"/>
      <point x="23" y="697"/>
      <point x="20" y="601"/>
      <point x="20" y="527" type="curve" smooth="yes"/>
      <point x="20" y="474" type="line" smooth="yes"/>
      <point x="20" y="454"/>
      <point x="33" y="443"/>
      <point x="43" y="437" type="curve"/>
      <point x="61" y="438"/>
      <point x="77" y="441"/>
      <point x="97" y="443" type="curve"/>
      <point x="116" y="493"/>
      <point x="120" y="574"/>
      <point x="120" y="636" type="curve" smooth="yes"/>
      <point x="120" y="655" type="line" smooth="yes"/>
      <point x="120" y="685"/>
      <point x="117" y="693"/>
      <point x="69" y="705" type="curve"/>
      <point x="66" y="697"/>
      <point x="62" y="691"/>
      <point x="57" y="682" type="curve"/>
      <point x="55" y="692"/>
      <point x="55" y="699"/>
      <point x="52" y="708" type="curve"/>
    </contour>
    <contour>
      <point x="233" y="442" type="line"/>
      <point x="233" y="467"/>
      <point x="240" y="494"/>
      <point x="240" y="523" type="curve" smooth="yes"/>
      <point x="240" y="544" type="line" smooth="yes"/>
      <point x="240" y="580"/>
      <point x="250" y="615"/>
      <point x="250" y="652" type="curve" smooth="yes"/>
      <point x="250" y="668"/>
      <point x="238" y="699"/>
      <point x="226" y="699" type="curve" smooth="yes"/>
      <point x="224" y="699"/>
      <point x="221" y="697"/>
      <point x="218" y="697" type="curve" smooth="yes"/>
      <point x="214" y="697"/>
      <point x="211" y="703"/>
      <point x="203" y="712" type="curve"/>
      <point x="199" y="700"/>
      <point x="197" y="691"/>
      <point x="195" y="683" type="curve"/>
      <point x="190" y="684"/>
      <point x="189" y="691"/>
      <point x="189" y="698" type="curve" smooth="yes"/>
      <point x="189" y="709" type="line"/>
      <point x="173" y="705"/>
      <point x="169" y="695"/>
      <point x="166" y="684" type="curve"/>
      <point x="162" y="643"/>
      <point x="158" y="608"/>
      <point x="158" y="570" type="curve" smooth="yes"/>
      <point x="158" y="529"/>
      <point x="159" y="488"/>
      <point x="160" y="447" type="curve" smooth="yes"/>
      <point x="160" y="445"/>
      <point x="161" y="443"/>
      <point x="163" y="440" type="curve"/>
      <point x="168" y="441"/>
      <point x="172" y="442"/>
      <point x="177" y="442" type="curve"/>
      <point x="185" y="424" type="line"/>
      <point x="190" y="433"/>
      <point x="195" y="441"/>
      <point x="200" y="448" type="curve"/>
      <point x="209" y="435" type="line"/>
    </contour>
  </outline>
</glyph>
<glyph name="numbersign" format="1">
  <advance width="516"/>
  <unicode hex="0023"/>
  <outline>
    <contour>
      <point x="336" y="593" type="line"/>
      <point x="333" y="593"/>
      <point x="331" y="594"/>
      <point x="329" y="594" type="curve"/>
      <point x="316" y="562"/>
      <point x="316" y="538"/>
      <point x="313" y="509" type="curve" smooth="yes"/>
      <point x="311" y="494"/>
      <point x="294" y="491"/>
      <point x="274" y="491" type="curve" smooth="yes"/>
      <point x="262" y="491"/>
      <point x="249" y="492"/>
      <point x="239" y="492" type="curve"/>
      <point x="239" y="493"/>
      <point x="238" y="495"/>
      <point x="238" y="496" type="curve" smooth="yes"/>
      <point x="233" y="532"/>
      <point x="226" y="586"/>
      <point x="175" y="586" type="curve" smooth="yes"/>
      <point x="152" y="586"/>
      <point x="151" y="532"/>
      <point x="147" y="494" type="curve"/>
      <point x="141" y="494"/>
      <point x="116" y="496"/>
      <point x="89" y="496" type="curve" smooth="yes"/>
      <point x="53" y="496"/>
      <point x="14" y="492"/>
      <point x="14" y="474" type="curve" smooth="yes"/>
      <point x="14" y="440"/>
      <point x="84" y="444"/>
      <point x="145" y="439" type="curve"/>
      <point x="145" y="359" type="line"/>
      <point x="131" y="357"/>
      <point x="27" y="356"/>
      <point x="27" y="331" type="curve" smooth="yes"/>
      <point x="27" y="297"/>
      <point x="84" y="301"/>
      <point x="149" y="296" type="curve"/>
      <point x="148" y="283"/>
      <point x="148" y="271"/>
      <point x="148" y="261" type="curve" smooth="yes"/>
      <point x="148" y="173"/>
      <point x="175" y="171"/>
      <point x="210" y="168" type="curve" smooth="yes"/>
      <point x="213" y="168"/>
      <point x="216" y="167"/>
      <point x="220" y="167" type="curve"/>
      <point x="230" y="212"/>
      <point x="231" y="254"/>
      <point x="235" y="299" type="curve"/>
      <point x="245" y="299" type="line" smooth="yes"/>
      <point x="264" y="299"/>
      <point x="279" y="303"/>
      <point x="295" y="303" type="curve" smooth="yes"/>
      <point x="298" y="303"/>
      <point x="302" y="303"/>
      <point x="307" y="302" type="curve"/>
      <point x="307" y="210" type="line" smooth="yes"/>
      <point x="307" y="170"/>
      <point x="342" y="173"/>
      <point x="371" y="169" type="curve"/>
      <point x="378" y="207"/>
      <point x="381" y="243"/>
      <point x="385" y="281" type="curve" smooth="yes"/>
      <point x="388" y="307"/>
      <point x="388" y="311"/>
      <point x="407" y="311" type="curve" smooth="yes"/>
      <point x="427" y="311" type="line" smooth="yes"/>
      <point x="470" y="311"/>
      <point x="484" y="317"/>
      <point x="484" y="325" type="curve"/>
      <point x="481" y="353"/>
      <point x="437" y="357"/>
      <point x="408" y="357" type="curve" smooth="yes"/>
      <point x="395" y="357" type="line"/>
      <point x="392" y="375"/>
      <point x="391" y="388"/>
      <point x="391" y="403" type="curve" smooth="yes"/>
      <point x="391" y="409"/>
      <point x="392" y="415"/>
      <point x="392" y="420" type="curve"/>
      <point x="391" y="424"/>
      <point x="391" y="428"/>
      <point x="391" y="432" type="curve" smooth="yes"/>
      <point x="391" y="446"/>
      <point x="397" y="449"/>
      <point x="418" y="451" type="curve" smooth="yes"/>
      <point x="431" y="452"/>
      <point x="496" y="449"/>
      <point x="501" y="468" type="curve"/>
      <point x="501" y="481"/>
      <point x="485" y="490"/>
      <point x="474" y="492" type="curve"/>
      <point x="407" y="500"/>
      <point x="396" y="484"/>
      <point x="389" y="524" type="curve" smooth="yes"/>
      <point x="385" y="549"/>
      <point x="385" y="578"/>
      <point x="353" y="588" type="curve"/>
      <point x="349" y="585"/>
      <point x="345" y="582"/>
      <point x="340" y="577" type="curve"/>
    </contour>
    <contour>
      <point x="241" y="443" type="line"/>
      <point x="305" y="443" type="line"/>
      <point x="305" y="359" type="line"/>
      <point x="241" y="359" type="line"/>
    </contour>
  </outline>
</glyph>
<glyph name="dollar" format="1">
  <advance width="404"/>
  <unicode hex="0024"/>
  <outline>
    <contour>
      <point x="222" y="-119" type="line"/>
      <point x="246" y="-80"/>
      <point x="262" y="-53"/>
      <point x="262" y="-9" type="curve" smooth="yes"/>
      <point x="262" y="20" type="line"/>
      <point x="274" y="20" type="line" smooth="yes"/>
      <point x="343" y="20"/>
      <point x="388" y="65"/>
      <point x="388" y="131" type="curve" smooth="yes"/>
      <point x="388" y="166"/>
      <point x="373" y="203"/>
      <point x="349" y="246" type="curve" smooth="yes"/>
      <point x="352" y="240" type="line" smooth="yes"/>
      <point x="369" y="205"/>
      <point x="385" y="162"/>
      <point x="385" y="128" type="curve"/>
      <point x="385" y="123" type="line"/>
      <point x="372" y="159"/>
      <point x="366" y="194"/>
      <point x="351" y="230" type="curve" smooth="yes"/>
      <point x="348" y="238"/>
      <point x="343" y="245"/>
      <point x="343" y="255" type="curve"/>
      <point x="349" y="246" type="line" smooth="yes"/>
      <point x="325" y="288"/>
      <point x="291" y="335"/>
      <point x="252" y="391" type="curve"/>
      <point x="252" y="455"/>
      <point x="253" y="522"/>
      <point x="254" y="581" type="curve"/>
      <point x="283" y="556"/>
      <point x="275" y="516"/>
      <point x="297" y="491" type="curve"/>
      <point x="302" y="502" type="line"/>
      <point x="305" y="494"/>
      <point x="308" y="487"/>
      <point x="317" y="483" type="curve"/>
      <point x="320" y="491"/>
      <point x="322" y="500"/>
      <point x="324" y="508" type="curve"/>
      <point x="326" y="504"/>
      <point x="327" y="499"/>
      <point x="330" y="495" type="curve"/>
      <point x="335" y="498"/>
      <point x="341" y="502"/>
      <point x="346" y="507" type="curve"/>
      <point x="346" y="501"/>
      <point x="346" y="496"/>
      <point x="347" y="490" type="curve"/>
      <point x="351" y="500"/>
      <point x="353" y="510"/>
      <point x="353" y="521" type="curve" smooth="yes"/>
      <point x="353" y="598"/>
      <point x="300" y="634"/>
      <point x="257" y="644" type="curve"/>
      <point x="257" y="678"/>
      <point x="260" y="705"/>
      <point x="260" y="718" type="curve" smooth="yes"/>
      <point x="260" y="734"/>
      <point x="250" y="745"/>
      <point x="240" y="745" type="curve" smooth="yes"/>
      <point x="238" y="745"/>
      <point x="236" y="745"/>
      <point x="234" y="744" type="curve" smooth="yes"/>
      <point x="226" y="741"/>
      <point x="213" y="731"/>
      <point x="201" y="647" type="curve"/>
      <point x="152" y="641"/>
      <point x="87" y="609"/>
      <point x="87" y="552" type="curve" smooth="yes"/>
      <point x="87" y="508"/>
      <point x="125" y="463"/>
      <point x="145" y="424" type="curve"/>
      <point x="147" y="418"/>
      <point x="167" y="384"/>
      <point x="183" y="358" type="curve"/>
      <point x="181" y="296"/>
      <point x="181" y="220"/>
      <point x="180" y="137" type="curve"/>
      <point x="124" y="192"/>
      <point x="112" y="247"/>
      <point x="85" y="304" type="curve" smooth="yes"/>
      <point x="77" y="321"/>
      <point x="82" y="337"/>
      <point x="48" y="344" type="curve"/>
      <point x="48" y="340"/>
      <point x="48" y="337"/>
      <point x="47" y="334" type="curve"/>
      <point x="43" y="338"/>
      <point x="39" y="341"/>
      <point x="34" y="343" type="curve"/>
      <point x="34" y="326" type="line" smooth="yes"/>
      <point x="34" y="320"/>
      <point x="33" y="313"/>
      <point x="29" y="307" type="curve"/>
      <point x="26" y="317"/>
      <point x="23" y="327"/>
      <point x="19" y="337" type="curve"/>
      <point x="15" y="331"/>
      <point x="12" y="326"/>
      <point x="12" y="319" type="curve" smooth="yes"/>
      <point x="18" y="234"/>
      <point x="84" y="103"/>
      <point x="180" y="47" type="curve"/>
      <point x="180" y="12"/>
      <point x="180" y="-21"/>
      <point x="181" y="-60" type="curve" smooth="yes"/>
      <point x="181" y="-64"/>
      <point x="180" y="-69"/>
      <point x="180" y="-74" type="curve" smooth="yes"/>
      <point x="180" y="-97"/>
      <point x="185" y="-121"/>
      <point x="203" y="-123" type="curve" smooth="yes"/>
      <point x="205" y="-123"/>
      <point x="209" y="-67"/>
      <point x="212" y="-60" type="curve"/>
    </contour>
    <contour>
      <point x="308" y="95" type="line"/>
      <point x="308" y="88"/>
      <point x="305" y="80"/>
      <point x="303" y="73" type="curve"/>
      <point x="289" y="76"/>
      <point x="277" y="80"/>
      <point x="265" y="84" type="curve"/>
      <point x="266" y="101"/>
      <point x="266" y="119"/>
      <point x="266" y="135" type="curve" smooth="yes"/>
      <point x="266" y="194"/>
      <point x="257" y="187"/>
      <point x="255" y="260" type="curve"/>
      <point x="280" y="211"/>
      <point x="308" y="149"/>
      <point x="308" y="95" type="curve" smooth="yes"/>
    </contour>
    <contour>
      <point x="163" y="551" type="line"/>
      <point x="163" y="565"/>
      <point x="179" y="588"/>
      <point x="196" y="597" type="curve"/>
      <point x="193" y="567"/>
      <point x="191" y="532"/>
      <point x="188" y="488" type="curve"/>
      <point x="176" y="509"/>
      <point x="163" y="532"/>
      <point x="163" y="551" type="curve" smooth="yes"/>
    </contour>
    <contour>
      <point x="281" y="244" type="line"/>
      <point x="295" y="220" type="line" smooth="yes"/>
      <point x="309" y="194"/>
      <point x="329" y="146"/>
      <point x="329" y="121" type="curve"/>
      <point x="329" y="114"/>
      <point x="329" y="109"/>
      <point x="328" y="104" type="curve"/>
      <point x="321" y="123"/>
      <point x="318" y="146"/>
      <point x="314" y="167" type="curve"/>
      <point x="312" y="166"/>
      <point x="311" y="166"/>
      <point x="310" y="166" type="curve"/>
      <point x="303" y="193"/>
      <point x="289" y="217"/>
      <point x="281" y="244" type="curve"/>
    </contour>
    <contour>
      <point x="113" y="574" type="line"/>
      <point x="113" y="562"/>
      <point x="112" y="553"/>
      <point x="103" y="545" type="curve"/>
      <point x="103" y="551" type="line" smooth="yes"/>
      <point x="103" y="560"/>
      <point x="105" y="568"/>
      <point x="113" y="574" type="curve"/>
    </contour>
    <contour>
      <point x="128" y="559" type="line"/>
      <point x="128" y="555"/>
      <point x="129" y="552"/>
      <point x="129" y="549" type="curve" smooth="yes"/>
      <point x="129" y="546"/>
      <point x="128" y="542"/>
      <point x="128" y="539" type="curve" smooth="yes"/>
      <point x="127" y="542"/>
      <point x="127" y="546"/>
      <point x="127" y="549" type="curve" smooth="yes"/>
      <point x="127" y="552"/>
      <point x="127" y="555"/>
      <point x="128" y="559" type="curve" smooth="yes"/>
    </contour>
  </outline>
</glyph>
<glyph name="percent" format="1">
  <advance width="415"/>
  <unicode hex="0025"/>
  <outline>
    <contour>
      <point x="133" y="12" type="line"/>
      <point x="143" y="40"/>
      <point x="147" y="68"/>
      <point x="158" y="95" type="curve" smooth="yes"/>
      <point x="197" y="189"/>
      <point x="236" y="281"/>
      <point x="274" y="375" type="curve" smooth="yes"/>
      <point x="294" y="426"/>
      <point x="323" y="505"/>
      <point x="323" y="556" type="curve" smooth="yes"/>
      <point x="323" y="582"/>
      <point x="323" y="623"/>
      <point x="288" y="623" type="curve" smooth="yes"/>
      <point x="283" y="623"/>
      <point x="283" y="642"/>
      <point x="275" y="642" type="curve" smooth="yes"/>
      <point x="264" y="642"/>
      <point x="249" y="620"/>
      <point x="241" y="607" type="curve"/>
      <point x="181" y="470"/>
      <point x="143" y="334"/>
      <point x="100" y="197" type="curve"/>
      <point x="89" y="154"/>
      <point x="68" y="99"/>
      <point x="68" y="66" type="curve" smooth="yes"/>
      <point x="68" y="37"/>
      <point x="89" y="23"/>
      <point x="133" y="12" type="curve"/>
    </contour>
    <contour>
      <point x="125" y="533" type="line"/>
      <point x="120" y="549"/>
      <point x="118" y="563"/>
      <point x="112" y="572" type="curve" smooth="yes"/>
      <point x="98" y="594"/>
      <point x="65" y="638"/>
      <point x="51" y="638" type="curve" smooth="yes"/>
      <point x="33" y="638"/>
      <point x="14" y="618"/>
      <point x="14" y="596" type="curve" smooth="yes"/>
      <point x="14" y="572"/>
      <point x="25" y="536"/>
      <point x="50" y="527" type="curve" smooth="yes"/>
      <point x="66" y="521"/>
      <point x="73" y="503"/>
      <point x="95" y="503" type="curve" smooth="yes"/>
      <point x="113" y="503"/>
      <point x="115" y="518"/>
      <point x="125" y="533" type="curve"/>
    </contour>
    <contour>
      <point x="350" y="75" type="line"/>
      <point x="373" y="91"/>
      <point x="381" y="103"/>
      <point x="381" y="114" type="curve" smooth="yes"/>
      <point x="381" y="134"/>
      <point x="344" y="192"/>
      <point x="303" y="192" type="curve" smooth="yes"/>
      <point x="278" y="192"/>
      <point x="265" y="179"/>
      <point x="265" y="157" type="curve" smooth="yes"/>
      <point x="265" y="104"/>
      <point x="307" y="95"/>
      <point x="350" y="75" type="curve"/>
    </contour>
  </outline>
</glyph>
<glyph name="ampersand" format="1">
  <advance width="526"/>
  <unicode hex="0026"/>
  <outline>
    <contour>
      <point x="376" y="179" type="line"/>
      <point x="375" y="174"/>
      <point x="366" y="155"/>
      <point x="361" y="150" type="curve"/>
      <point x="345" y="167"/>
      <point x="321" y="179"/>
      <point x="316" y="188" type="curve"/>
      <point x="289" y="226"/>
      <point x="233" y="322"/>
      <point x="233" y="360" type="curve" smooth="yes"/>
      <point x="233" y="366"/>
      <point x="236" y="372"/>
      <point x="240" y="379" type="curve" smooth="yes"/>
      <point x="263" y="416"/>
      <point x="264" y="469"/>
      <point x="268" y="511" type="curve"/>
      <point x="266" y="596"/>
      <point x="223" y="670"/>
      <point x="158" y="675" type="curve" smooth="yes"/>
      <point x="77" y="681"/>
      <point x="56" y="629"/>
      <point x="56" y="580" type="curve" smooth="yes"/>
      <point x="56" y="497"/>
      <point x="79" y="449"/>
      <point x="127" y="377" type="curve" smooth="yes"/>
      <point x="132" y="369"/>
      <point x="146" y="351"/>
      <point x="146" y="346" type="curve" smooth="yes"/>
      <point x="146" y="340"/>
      <point x="136" y="323"/>
      <point x="132" y="317" type="curve"/>
      <point x="97" y="241"/>
      <point x="48" y="202"/>
      <point x="48" y="117" type="curve" smooth="yes"/>
      <point x="48" y="55"/>
      <point x="95" y="-18"/>
      <point x="168" y="-18" type="curve" smooth="yes"/>
      <point x="239" y="-18"/>
      <point x="300" y="9"/>
      <point x="350" y="51" type="curve"/>
      <point x="363" y="37" type="line" smooth="yes"/>
      <point x="378" y="20"/>
      <point x="464" y="-11"/>
      <point x="484" y="-16" type="curve" smooth="yes"/>
      <point x="487" y="-17"/>
      <point x="491" y="-17"/>
      <point x="494" y="-17" type="curve" smooth="yes"/>
      <point x="497" y="-17"/>
      <point x="501" y="-17"/>
      <point x="504" y="-16" type="curve"/>
      <point x="499" y="-8" type="line"/>
      <point x="502" y="-4"/>
      <point x="505" y="-2"/>
      <point x="507" y="2" type="curve"/>
      <point x="505" y="9" type="line"/>
      <point x="512" y="9"/>
      <point x="519" y="13"/>
      <point x="519" y="21" type="curve" smooth="yes"/>
      <point x="519" y="29"/>
      <point x="508" y="34"/>
      <point x="502" y="39" type="curve"/>
      <point x="515" y="37" type="line"/>
      <point x="503" y="55"/>
      <point x="480" y="49"/>
      <point x="465" y="63" type="curve" smooth="yes"/>
      <point x="454" y="72"/>
      <point x="426" y="79"/>
      <point x="405" y="101" type="curve"/>
      <point x="450" y="163"/>
      <point x="476" y="238"/>
      <point x="476" y="276" type="curve" smooth="yes"/>
      <point x="476" y="281"/>
      <point x="473" y="286"/>
      <point x="471" y="290" type="curve"/>
      <point x="453" y="263"/>
      <point x="453" y="213"/>
      <point x="436" y="180" type="curve"/>
      <point x="445" y="207"/>
      <point x="455" y="242"/>
      <point x="455" y="265" type="curve" smooth="yes"/>
      <point x="455" y="270" type="line" smooth="yes"/>
      <point x="455" y="280"/>
      <point x="456" y="290"/>
      <point x="456" y="300" type="curve"/>
      <point x="444" y="294" type="line"/>
      <point x="442" y="296"/>
      <point x="440" y="299"/>
      <point x="437" y="301" type="curve"/>
      <point x="428" y="300"/>
      <point x="412" y="296"/>
      <point x="408" y="283" type="curve" smooth="yes"/>
      <point x="396" y="248"/>
      <point x="384" y="209"/>
      <point x="376" y="179" type="curve" smooth="yes"/>
    </contour>
    <contour>
      <point x="192" y="50" type="line"/>
      <point x="154" y="54"/>
      <point x="126" y="77"/>
      <point x="126" y="123" type="curve" smooth="yes"/>
      <point x="126" y="184"/>
      <point x="152" y="199"/>
      <point x="179" y="255" type="curve"/>
      <point x="187" y="269" type="line"/>
      <point x="215" y="215"/>
      <point x="256" y="166"/>
      <point x="304" y="101" type="curve"/>
      <point x="274" y="78"/>
      <point x="225" y="50"/>
      <point x="192" y="50" type="curve"/>
    </contour>
    <contour>
      <point x="181" y="452" type="line"/>
      <point x="155" y="488"/>
      <point x="128" y="553"/>
      <point x="128" y="595" type="curve" smooth="yes"/>
      <point x="128" y="613"/>
      <point x="134" y="624"/>
      <point x="143" y="624" type="curve" smooth="yes"/>
      <point x="176" y="624"/>
      <point x="193" y="548"/>
      <point x="193" y="511" type="curve" smooth="yes"/>
      <point x="193" y="484"/>
      <point x="188" y="470"/>
      <point x="181" y="452" type="curve"/>
    </contour>
    <contour>
      <point x="76" y="585" type="line"/>
      <point x="79" y="585"/>
      <point x="80" y="586"/>
      <point x="84" y="586" type="curve"/>
      <point x="85" y="572"/>
      <point x="88" y="558"/>
      <point x="91" y="546" type="curve"/>
      <point x="89" y="544"/>
      <point x="87" y="544"/>
      <point x="86" y="544" type="curve"/>
      <point x="81" y="557"/>
      <point x="79" y="571"/>
      <point x="76" y="585" type="curve"/>
    </contour>
    <contour>
      <point x="207" y="569" type="line"/>
      <point x="215" y="569"/>
      <point x="215" y="554"/>
      <point x="216" y="544" type="curve"/>
      <point x="215" y="544"/>
      <point x="206" y="556"/>
      <point x="206" y="565" type="curve" smooth="yes"/>
      <point x="206" y="566"/>
      <point x="207" y="568"/>
      <point x="207" y="569" type="curve"/>
    </contour>
  </outline>
</glyph>
<glyph name="quotesingle" format="1">
  <advance width="129"/>
  <unicode hex="0027"/>
  <outline>
    <contour>
      <point x="35" y="700" type="line"/>
      <point x="21" y="693"/>
      <point x="17" y="684"/>
      <point x="17" y="674" type="curve" smooth="yes"/>
      <point x="17" y="670" type="line" smooth="yes"/>
      <point x="16" y="662"/>
      <point x="16" y="654"/>
      <point x="16" y="646" type="curve" smooth="yes"/>
      <point x="17" y="585"/>
      <point x="23" y="524"/>
      <point x="28" y="464" type="curve" smooth="yes"/>
      <point x="29" y="449"/>
      <point x="42" y="437"/>
      <point x="56" y="429" type="curve"/>
      <point x="109" y="442" type="line"/>
      <point x="112" y="463"/>
      <point x="114" y="495"/>
      <point x="114" y="524" type="curve" smooth="yes"/>
      <point x="114" y="567" type="line" smooth="yes"/>
      <point x="114" y="596"/>
      <point x="113" y="624"/>
      <point x="108" y="652" type="curve" smooth="yes"/>
      <point x="107" y="655"/>
      <point x="107" y="658"/>
      <point x="107" y="660" type="curve" smooth="yes"/>
      <point x="103" y="685"/>
      <point x="101" y="690"/>
      <point x="63" y="696" type="curve" smooth="yes"/>
      <point x="60" y="697"/>
      <point x="56" y="699"/>
      <point x="53" y="699" type="curve"/>
      <point x="48" y="691"/>
      <point x="46" y="684"/>
      <point x="42" y="675" type="curve"/>
      <point x="39" y="684"/>
      <point x="37" y="691"/>
      <point x="35" y="700" type="curve"/>
    </contour>
  </outline>
</glyph>
<glyph name="parenleft" format="1">
  <advance width="264"/>
  <unicode hex="0028"/>
  <outline>
    <contour>
      <point x="122" y="693" type="line"/>
      <point x="114" y="663"/>
      <point x="105" y="634"/>
      <point x="96" y="603" type="curve"/>
      <point x="99" y="653"/>
      <point x="121" y="684"/>
      <point x="131" y="732" type="curve"/>
      <point x="75" y="723"/>
      <point x="24" y="431"/>
      <point x="24" y="324" type="curve" smooth="yes"/>
      <point x="24" y="203"/>
      <point x="73" y="-55"/>
      <point x="131" y="-55" type="curve" smooth="yes"/>
      <point x="138" y="-55"/>
      <point x="147" y="-49"/>
      <point x="154" y="-47" type="curve"/>
      <point x="169" y="-47"/>
      <point x="184" y="-46"/>
      <point x="184" y="-27" type="curve" smooth="yes"/>
      <point x="184" y="-21"/>
      <point x="182" y="-14"/>
      <point x="180" y="-6" type="curve" smooth="yes"/>
      <point x="156" y="82"/>
      <point x="132" y="206"/>
      <point x="132" y="298" type="curve" smooth="yes"/>
      <point x="132" y="374"/>
      <point x="136" y="457"/>
      <point x="148" y="531" type="curve" smooth="yes"/>
      <point x="156" y="580"/>
      <point x="187" y="665"/>
      <point x="187" y="686" type="curve" smooth="yes"/>
      <point x="187" y="702"/>
      <point x="177" y="710"/>
      <point x="153" y="725" type="curve" smooth="yes"/>
      <point x="149" y="727" type="line"/>
      <point x="141" y="727"/>
      <point x="125" y="701"/>
      <point x="122" y="693" type="curve"/>
    </contour>
  </outline>
</glyph>
<glyph name="parenright" format="1">
  <advance width="217"/>
  <unicode hex="0029"/>
  <outline>
    <contour>
      <point x="189" y="263" type="line"/>
      <point x="194" y="263" type="line"/>
      <point x="194" y="234" type="line"/>
      <point x="196" y="247"/>
      <point x="197" y="237"/>
      <point x="197" y="259" type="curve" smooth="yes"/>
      <point x="197" y="287"/>
      <point x="195" y="350"/>
      <point x="195" y="358" type="curve" smooth="yes"/>
      <point x="195" y="371"/>
      <point x="196" y="384"/>
      <point x="196" y="397" type="curve" smooth="yes"/>
      <point x="196" y="405"/>
      <point x="196" y="413"/>
      <point x="194" y="420" type="curve" smooth="yes"/>
      <point x="171" y="532"/>
      <point x="162" y="705"/>
      <point x="67" y="714" type="curve"/>
      <point x="63" y="715"/>
      <point x="59" y="719"/>
      <point x="54" y="719" type="curve" smooth="yes"/>
      <point x="46" y="719"/>
      <point x="40" y="703"/>
      <point x="40" y="694" type="curve" smooth="yes"/>
      <point x="40" y="688"/>
      <point x="41" y="683"/>
      <point x="43" y="677" type="curve" smooth="yes"/>
      <point x="80" y="553"/>
      <point x="94" y="406"/>
      <point x="94" y="275" type="curve" smooth="yes"/>
      <point x="94" y="219"/>
      <point x="69" y="94"/>
      <point x="60" y="38" type="curve" smooth="yes"/>
      <point x="55" y="7"/>
      <point x="47" y="-28"/>
      <point x="47" y="-60" type="curve" smooth="yes"/>
      <point x="47" y="-65"/>
      <point x="48" y="-72"/>
      <point x="50" y="-78" type="curve"/>
      <point x="74" y="-3"/>
      <point x="104" y="144"/>
      <point x="117" y="221" type="curve"/>
      <point x="114" y="174"/>
      <point x="87" y="61"/>
      <point x="81" y="16" type="curve" smooth="yes"/>
      <point x="77" y="-13"/>
      <point x="67" y="-46"/>
      <point x="67" y="-75" type="curve" smooth="yes"/>
      <point x="67" y="-83"/>
      <point x="67" y="-92"/>
      <point x="72" y="-92" type="curve" smooth="yes"/>
      <point x="79" y="-92"/>
      <point x="79" y="-77"/>
      <point x="87" y="-77" type="curve" smooth="yes"/>
      <point x="90" y="-77"/>
      <point x="94" y="-80"/>
      <point x="98" y="-80" type="curve" smooth="yes"/>
      <point x="104" y="-80"/>
      <point x="111" y="-78"/>
      <point x="119" y="-76" type="curve"/>
      <point x="140" y="0"/>
      <point x="178" y="146"/>
      <point x="192" y="227" type="curve"/>
    </contour>
  </outline>
</glyph>
<glyph name="asterisk" format="1">
  <advance width="321"/>
  <unicode hex="002A"/>
  <outline>
    <contour>
      <point x="111" y="418" type="line"/>
      <point x="98" y="388"/>
      <point x="77" y="346"/>
      <point x="77" y="331" type="curve" smooth="yes"/>
      <point x="77" y="320"/>
      <point x="87" y="315"/>
      <point x="112" y="311" type="curve"/>
      <point x="129" y="311"/>
      <point x="162" y="377"/>
      <point x="181" y="407" type="curve"/>
      <point x="194" y="388"/>
      <point x="205" y="373"/>
      <point x="217" y="358" type="curve" smooth="yes"/>
      <point x="233" y="336"/>
      <point x="249" y="333"/>
      <point x="271" y="324" type="curve"/>
      <point x="278" y="326"/>
      <point x="280" y="330"/>
      <point x="280" y="335" type="curve" smooth="yes"/>
      <point x="280" y="338"/>
      <point x="279" y="341"/>
      <point x="278" y="345" type="curve"/>
      <point x="260" y="376"/>
      <point x="242" y="403"/>
      <point x="221" y="439" type="curve"/>
      <point x="253" y="445"/>
      <point x="297" y="449"/>
      <point x="297" y="467" type="curve" smooth="yes"/>
      <point x="297" y="483"/>
      <point x="263" y="491"/>
      <point x="241" y="499" type="curve"/>
      <point x="257" y="529"/>
      <point x="271" y="558"/>
      <point x="271" y="569" type="curve" smooth="yes"/>
      <point x="271" y="582"/>
      <point x="258" y="590"/>
      <point x="228" y="606" type="curve"/>
      <point x="199" y="587"/>
      <point x="188" y="551"/>
      <point x="164" y="525" type="curve"/>
      <point x="158" y="532" type="line" smooth="yes"/>
      <point x="138" y="556"/>
      <point x="102" y="599"/>
      <point x="79" y="599" type="curve" smooth="yes"/>
      <point x="71" y="599"/>
      <point x="66" y="593"/>
      <point x="66" y="582" type="curve" smooth="yes"/>
      <point x="66" y="579"/>
      <point x="67" y="575"/>
      <point x="68" y="573" type="curve" smooth="yes"/>
      <point x="85" y="541"/>
      <point x="106" y="511"/>
      <point x="124" y="479" type="curve"/>
      <point x="105" y="476"/>
      <point x="25" y="464"/>
      <point x="25" y="444" type="curve" smooth="yes"/>
      <point x="25" y="416"/>
      <point x="74" y="419"/>
      <point x="111" y="418" type="curve"/>
    </contour>
  </outline>
</glyph>
<glyph name="plus" format="1">
  <advance width="506"/>
  <unicode hex="002B"/>
  <outline>
    <contour>
      <point x="273" y="90" type="line"/>
      <point x="323" y="97"/>
      <point x="343" y="110"/>
      <point x="343" y="146" type="curve" smooth="yes"/>
      <point x="343" y="180"/>
      <point x="337" y="223"/>
      <point x="331" y="263" type="curve"/>
      <point x="326" y="284" type="line"/>
      <point x="356" y="284"/>
      <point x="383" y="283"/>
      <point x="399" y="283" type="curve" smooth="yes"/>
      <point x="437" y="283"/>
      <point x="452" y="297"/>
      <point x="492" y="325" type="curve"/>
      <point x="475" y="339" type="line"/>
      <point x="482" y="341"/>
      <point x="494" y="341"/>
      <point x="494" y="346" type="curve" smooth="yes"/>
      <point x="494" y="361"/>
      <point x="461" y="371"/>
      <point x="445" y="371" type="curve" smooth="yes"/>
      <point x="443" y="371"/>
      <point x="434" y="371"/>
      <point x="312" y="365" type="curve"/>
      <point x="309" y="385"/>
      <point x="280" y="556"/>
      <point x="237" y="556" type="curve" smooth="yes"/>
      <point x="230" y="556"/>
      <point x="228" y="538"/>
      <point x="223" y="538" type="curve"/>
      <point x="218" y="538" type="line"/>
      <point x="185" y="538"/>
      <point x="181" y="471"/>
      <point x="181" y="455" type="curve" smooth="yes"/>
      <point x="181" y="417"/>
      <point x="189" y="401"/>
      <point x="199" y="360" type="curve"/>
      <point x="98" y="356" type="line"/>
      <point x="85" y="359"/>
      <point x="65" y="360"/>
      <point x="60" y="360" type="curve" smooth="yes"/>
      <point x="48" y="360"/>
      <point x="13" y="326"/>
      <point x="13" y="308" type="curve" smooth="yes"/>
      <point x="13" y="284"/>
      <point x="41" y="284"/>
      <point x="74" y="284" type="curve" smooth="yes"/>
      <point x="112" y="284"/>
      <point x="159" y="288"/>
      <point x="196" y="288" type="curve" smooth="yes"/>
      <point x="204" y="288"/>
      <point x="213" y="287"/>
      <point x="220" y="287" type="curve"/>
      <point x="237" y="233"/>
      <point x="230" y="259"/>
      <point x="256" y="175" type="curve" smooth="yes"/>
      <point x="264" y="147"/>
      <point x="266" y="119"/>
      <point x="273" y="90" type="curve"/>
    </contour>
  </outline>
</glyph>
<glyph name="hyphen" format="1">
  <advance width="411"/>
  <unicode hex="002D"/>
  <outline>
    <contour>
      <point x="24" y="274" type="line"/>
      <point x="64" y="246"/>
      <point x="79" y="232"/>
      <point x="117" y="232" type="curve" smooth="yes"/>
      <point x="200" y="232"/>
      <point x="285" y="240"/>
      <point x="370" y="252" type="curve" smooth="yes"/>
      <point x="384" y="254"/>
      <point x="392" y="262"/>
      <point x="392" y="274" type="curve" smooth="yes"/>
      <point x="392" y="292"/>
      <point x="357" y="326"/>
      <point x="345" y="326" type="curve" smooth="yes"/>
      <point x="254" y="326"/>
      <point x="163" y="320"/>
      <point x="73" y="320" type="curve" smooth="yes"/>
      <point x="54" y="320"/>
      <point x="22" y="318"/>
      <point x="22" y="295" type="curve" smooth="yes"/>
      <point x="22" y="290"/>
      <point x="34" y="290"/>
      <point x="41" y="288" type="curve"/>
    </contour>
  </outline>
</glyph>
<glyph name="period" format="1">
  <advance width="160"/>
  <unicode hex="002E"/>
  <outline>
    <contour>
      <point x="11" y="56" type="line"/>
      <point x="11" y="16"/>
      <point x="56" y="-2"/>
      <point x="84" y="-2" type="curve" smooth="yes"/>
      <point x="101" y="-2"/>
      <point x="118" y="16"/>
      <point x="118" y="35" type="curve" smooth="yes"/>
      <point x="118" y="67"/>
      <point x="72" y="91"/>
      <point x="43" y="91" type="curve" smooth="yes"/>
      <point x="26" y="91"/>
      <point x="11" y="74"/>
      <point x="11" y="56" type="curve" smooth="yes"/>
    </contour>
  </outline>
</glyph>
<glyph name="slash" format="1">
  <advance width="391"/>
  <unicode hex="002F"/>
  <outline>
    <contour>
      <point x="55" y="-111" type="line"/>
      <point x="90" y="-82"/>
      <point x="113" y="-61"/>
      <point x="127" y="-19" type="curve" smooth="yes"/>
      <point x="141" y="23"/>
      <point x="180" y="141"/>
      <point x="192" y="182" type="curve" smooth="yes"/>
      <point x="207" y="238"/>
      <point x="353" y="654"/>
      <point x="367" y="710" type="curve" smooth="yes"/>
      <point x="368" y="714"/>
      <point x="368" y="719"/>
      <point x="368" y="722" type="curve" smooth="yes"/>
      <point x="368" y="734"/>
      <point x="362" y="743"/>
      <point x="350" y="743" type="curve" smooth="yes"/>
      <point x="329" y="743"/>
      <point x="296" y="710"/>
      <point x="293" y="703" type="curve" smooth="yes"/>
      <point x="292" y="699"/>
      <point x="291" y="696"/>
      <point x="291" y="692" type="curve" smooth="yes"/>
      <point x="291" y="690"/>
      <point x="291" y="688"/>
      <point x="293" y="686" type="curve"/>
      <point x="34" y="-43" type="line" smooth="yes"/>
      <point x="29" y="-56"/>
      <point x="24" y="-73"/>
      <point x="24" y="-87" type="curve" smooth="yes"/>
      <point x="24" y="-98"/>
      <point x="27" y="-106"/>
      <point x="36" y="-109" type="curve" smooth="yes"/>
      <point x="38" y="-110"/>
      <point x="59" y="-58"/>
      <point x="64" y="-52" type="curve"/>
    </contour>
  </outline>
</glyph>
<glyph name="zero" format="1">
  <advance width="375"/>
  <unicode hex="0030"/>
  <outline>
    <contour>
      <point x="16" y="245" type="line"/>
      <point x="24" y="168"/>
      <point x="57" y="-11"/>
      <point x="174" y="-11" type="curve" smooth="yes"/>
      <point x="302" y="-11"/>
      <point x="346" y="145"/>
      <point x="346" y="253" type="curve" smooth="yes"/>
      <point x="346" y="276"/>
      <point x="343" y="299"/>
      <point x="343" y="322" type="curve" smooth="yes"/>
      <point x="343" y="330"/>
      <point x="344" y="338"/>
      <point x="344" y="345" type="curve" smooth="yes"/>
      <point x="344" y="376"/>
      <point x="340" y="406"/>
      <point x="335" y="436" type="curve" smooth="yes"/>
      <point x="333" y="448"/>
      <point x="328" y="461"/>
      <point x="328" y="473" type="curve" smooth="yes"/>
      <point x="328" y="487"/>
      <point x="333" y="501"/>
      <point x="333" y="515" type="curve" smooth="yes"/>
      <point x="333" y="594"/>
      <point x="278" y="704"/>
      <point x="178" y="704" type="curve" smooth="yes"/>
      <point x="149" y="704"/>
      <point x="124" y="690"/>
      <point x="106" y="661" type="curve" smooth="yes"/>
      <point x="37" y="552"/>
      <point x="15" y="425"/>
      <point x="15" y="298" type="curve" smooth="yes"/>
      <point x="15" y="280"/>
      <point x="15" y="263"/>
      <point x="16" y="245" type="curve"/>
    </contour>
    <contour>
      <point x="99" y="609" type="line"/>
      <point x="101" y="618"/>
      <point x="104" y="628"/>
      <point x="107" y="636" type="curve"/>
      <point x="109" y="636"/>
      <point x="112" y="635"/>
      <point x="114" y="634" type="curve"/>
      <point x="100" y="616"/>
      <point x="91" y="589"/>
      <point x="77" y="560" type="curve"/>
      <point x="82" y="578"/>
      <point x="83" y="596"/>
      <point x="99" y="609" type="curve"/>
    </contour>
    <contour>
      <point x="198" y="43" type="line"/>
      <point x="176" y="59"/>
      <point x="153" y="79"/>
      <point x="143" y="99" type="curve" smooth="yes"/>
      <point x="108" y="171"/>
      <point x="101" y="257"/>
      <point x="101" y="331" type="curve" smooth="yes"/>
      <point x="101" y="395"/>
      <point x="109" y="456"/>
      <point x="120" y="520" type="curve" smooth="yes"/>
      <point x="129" y="573"/>
      <point x="180" y="656"/>
      <point x="203" y="656" type="curve" smooth="yes"/>
      <point x="230" y="656"/>
      <point x="249" y="584"/>
      <point x="250" y="551" type="curve" smooth="yes"/>
      <point x="250" y="540"/>
      <point x="247" y="529"/>
      <point x="247" y="515" type="curve" smooth="yes"/>
      <point x="247" y="501"/>
      <point x="258" y="497"/>
      <point x="262" y="482" type="curve" smooth="yes"/>
      <point x="273" y="434"/>
      <point x="277" y="385"/>
      <point x="277" y="337" type="curve" smooth="yes"/>
      <point x="277" y="239"/>
      <point x="264" y="122"/>
      <point x="198" y="43" type="curve"/>
    </contour>
    <contour>
      <point x="287" y="242" type="line"/>
      <point x="288" y="238"/>
      <point x="288" y="233"/>
      <point x="288" y="227" type="curve" smooth="yes"/>
      <point x="288" y="207"/>
      <point x="284" y="182"/>
      <point x="276" y="161" type="curve"/>
    </contour>
  </outline>
</glyph>
<glyph name="one" format="1">
  <advance width="147"/>
  <unicode hex="0031"/>
  <outline>
    <contour>
      <point x="41" y="699" type="line"/>
      <point x="30" y="695"/>
      <point x="26" y="686"/>
      <point x="24" y="675" type="curve" smooth="yes"/>
      <point x="11" y="581"/>
      <point x="11" y="483"/>
      <point x="11" y="389" type="curve" smooth="yes"/>
      <point x="11" y="305"/>
      <point x="15" y="222"/>
      <point x="22" y="138" type="curve" smooth="yes"/>
      <point x="27" y="84"/>
      <point x="24" y="-15"/>
      <point x="65" y="-15" type="curve" smooth="yes"/>
      <point x="75" y="-15"/>
      <point x="73" y="2"/>
      <point x="75" y="10" type="curve"/>
      <point x="82" y="-8" type="line"/>
      <point x="87" y="1"/>
      <point x="90" y="8"/>
      <point x="94" y="14" type="curve"/>
      <point x="96" y="11"/>
      <point x="98" y="8"/>
      <point x="99" y="3" type="curve"/>
      <point x="108" y="10"/>
      <point x="110" y="20"/>
      <point x="111" y="32" type="curve"/>
      <point x="112" y="109"/>
      <point x="115" y="187"/>
      <point x="115" y="265" type="curve" smooth="yes"/>
      <point x="115" y="375"/>
      <point x="111" y="484"/>
      <point x="106" y="594" type="curve" smooth="yes"/>
      <point x="106" y="599" type="line" smooth="yes"/>
      <point x="106" y="618"/>
      <point x="101" y="637"/>
      <point x="98" y="656" type="curve" smooth="yes"/>
      <point x="94" y="684"/>
      <point x="77" y="689"/>
      <point x="54" y="696" type="curve"/>
      <point x="46" y="675" type="line"/>
      <point x="44" y="684"/>
      <point x="42" y="691"/>
      <point x="41" y="699" type="curve"/>
    </contour>
    <contour>
      <point x="106" y="272" type="line"/>
      <point x="106" y="257"/>
      <point x="107" y="244"/>
      <point x="107" y="230" type="curve" smooth="yes"/>
      <point x="107" y="157"/>
      <point x="101" y="98"/>
      <point x="101" y="38" type="curve" smooth="yes"/>
      <point x="101" y="191" type="line" smooth="yes"/>
      <point x="101" y="242"/>
      <point x="101" y="293"/>
      <point x="102" y="344" type="curve"/>
    </contour>
  </outline>
</glyph>
<glyph name="two" format="1">
  <advance width="428"/>
  <unicode hex="0032"/>
  <outline>
    <contour>
      <point x="176" y="636" type="line"/>
      <point x="177" y="621"/>
      <point x="180" y="608"/>
      <point x="180" y="595" type="curve" smooth="yes"/>
      <point x="180" y="547"/>
      <point x="170" y="501"/>
      <point x="155" y="456" type="curve" smooth="yes"/>
      <point x="112" y="323"/>
      <point x="68" y="192"/>
      <point x="21" y="61" type="curve" smooth="yes"/>
      <point x="18" y="53"/>
      <point x="17" y="47"/>
      <point x="17" y="41" type="curve" smooth="yes"/>
      <point x="17" y="14"/>
      <point x="59" y="2"/>
      <point x="89" y="2" type="curve" smooth="yes"/>
      <point x="108" y="2"/>
      <point x="126" y="3"/>
      <point x="145" y="3" type="curve" smooth="yes"/>
      <point x="202" y="3"/>
      <point x="260" y="-6"/>
      <point x="316" y="-6" type="curve" smooth="yes"/>
      <point x="352" y="-6"/>
      <point x="415" y="-3"/>
      <point x="419" y="41" type="curve"/>
      <point x="351" y="75"/>
      <point x="248" y="86"/>
      <point x="167" y="86" type="curve" smooth="yes"/>
      <point x="162" y="86"/>
      <point x="157" y="85"/>
      <point x="152" y="85" type="curve" smooth="yes"/>
      <point x="146" y="85"/>
      <point x="140" y="86"/>
      <point x="132" y="86" type="curve"/>
      <point x="176" y="204"/>
      <point x="216" y="326"/>
      <point x="254" y="448" type="curve" smooth="yes"/>
      <point x="266" y="487"/>
      <point x="277" y="537"/>
      <point x="277" y="576" type="curve" smooth="yes"/>
      <point x="277" y="644"/>
      <point x="226" y="708"/>
      <point x="148" y="708" type="curve" smooth="yes"/>
      <point x="132" y="708"/>
      <point x="116" y="705"/>
      <point x="102" y="696" type="curve" smooth="yes"/>
      <point x="67" y="674"/>
      <point x="15" y="621"/>
      <point x="15" y="575" type="curve" smooth="yes"/>
      <point x="15" y="569"/>
      <point x="32" y="535"/>
      <point x="48" y="535" type="curve"/>
      <point x="60" y="538"/>
      <point x="72" y="542"/>
      <point x="85" y="546" type="curve"/>
      <point x="89" y="538" type="line"/>
      <point x="101" y="543"/>
      <point x="108" y="552"/>
      <point x="113" y="566" type="curve" smooth="yes"/>
      <point x="125" y="597"/>
      <point x="144" y="621"/>
      <point x="176" y="636" type="curve"/>
    </contour>
    <contour>
      <point x="134" y="302" type="line"/>
      <point x="133" y="296"/>
      <point x="129" y="289"/>
      <point x="127" y="283" type="curve"/>
      <point x="126" y="284"/>
      <point x="124" y="284"/>
      <point x="122" y="285" type="curve"/>
      <point x="136" y="302"/>
      <point x="153" y="416"/>
      <point x="184" y="466" type="curve"/>
      <point x="176" y="417"/>
      <point x="156" y="347"/>
      <point x="134" y="302" type="curve"/>
    </contour>
    <contour>
      <point x="42" y="594" type="line"/>
      <point x="45" y="598"/>
      <point x="48" y="604"/>
      <point x="52" y="609" type="curve"/>
      <point x="52" y="609"/>
      <point x="54" y="608"/>
      <point x="55" y="607" type="curve"/>
      <point x="52" y="601"/>
      <point x="49" y="596"/>
      <point x="47" y="589" type="curve"/>
    </contour>
    <contour>
      <point x="87" y="179" type="line"/>
      <point x="89" y="183"/>
      <point x="90" y="188"/>
      <point x="91" y="192" type="curve"/>
      <point x="92" y="192"/>
      <point x="93" y="191"/>
      <point x="94" y="191" type="curve"/>
      <point x="93" y="187"/>
      <point x="91" y="183"/>
      <point x="91" y="178" type="curve"/>
      <point x="89" y="178"/>
      <point x="88" y="179"/>
      <point x="87" y="179" type="curve"/>
    </contour>
  </outline>
</glyph>
<glyph name="three" format="1">
  <advance width="327"/>
  <unicode hex="0033"/>
  <outline>
    <contour>
      <point x="245" y="392" type="line"/>
      <point x="253" y="408"/>
      <point x="262" y="428"/>
      <point x="264" y="445" type="curve" smooth="yes"/>
      <point x="268" y="491"/>
      <point x="287" y="531"/>
      <point x="287" y="580" type="curve" smooth="yes"/>
      <point x="287" y="658"/>
      <point x="218" y="698"/>
      <point x="173" y="698" type="curve" smooth="yes"/>
      <point x="123" y="698"/>
      <point x="73" y="662"/>
      <point x="49" y="607" type="curve" smooth="yes"/>
      <point x="46" y="600"/>
      <point x="43" y="592"/>
      <point x="43" y="585" type="curve" smooth="yes"/>
      <point x="43" y="579"/>
      <point x="59" y="550"/>
      <point x="71" y="550" type="curve" smooth="yes"/>
      <point x="76" y="550"/>
      <point x="84" y="555"/>
      <point x="91" y="555" type="curve" smooth="yes"/>
      <point x="97" y="555"/>
      <point x="102" y="549"/>
      <point x="106" y="549" type="curve" smooth="yes"/>
      <point x="114" y="549"/>
      <point x="125" y="564"/>
      <point x="128" y="574" type="curve"/>
      <point x="148" y="600"/>
      <point x="169" y="622"/>
      <point x="196" y="631" type="curve"/>
      <point x="205" y="621"/>
      <point x="206" y="608"/>
      <point x="206" y="595" type="curve" smooth="yes"/>
      <point x="206" y="514"/>
      <point x="178" y="452"/>
      <point x="130" y="407" type="curve" smooth="yes"/>
      <point x="123" y="400"/>
      <point x="112" y="386"/>
      <point x="112" y="376" type="curve" smooth="yes"/>
      <point x="112" y="367"/>
      <point x="132" y="337"/>
      <point x="150" y="337" type="curve" smooth="yes"/>
      <point x="154" y="337"/>
      <point x="170" y="344"/>
      <point x="183" y="344" type="curve" smooth="yes"/>
      <point x="212" y="344"/>
      <point x="226" y="293"/>
      <point x="226" y="254" type="curve" smooth="yes"/>
      <point x="226" y="238"/>
      <point x="224" y="222"/>
      <point x="219" y="205" type="curve" smooth="yes"/>
      <point x="204" y="157"/>
      <point x="162" y="71"/>
      <point x="132" y="71" type="curve" smooth="yes"/>
      <point x="120" y="71"/>
      <point x="92" y="111"/>
      <point x="87" y="150" type="curve" smooth="yes"/>
      <point x="84" y="171"/>
      <point x="68" y="181"/>
      <point x="47" y="181" type="curve" smooth="yes"/>
      <point x="37" y="181"/>
      <point x="34" y="175"/>
      <point x="29" y="150" type="curve"/>
      <point x="29" y="158"/>
      <point x="27" y="168"/>
      <point x="26" y="177" type="curve"/>
      <point x="11" y="167"/>
      <point x="3" y="154"/>
      <point x="3" y="134" type="curve" smooth="yes"/>
      <point x="4" y="88"/>
      <point x="22" y="37"/>
      <point x="53" y="12" type="curve" smooth="yes"/>
      <point x="79" y="-10"/>
      <point x="115" y="-22"/>
      <point x="140" y="-22" type="curve" smooth="yes"/>
      <point x="153" y="-22"/>
      <point x="166" y="-18"/>
      <point x="178" y="-7" type="curve"/>
      <point x="179" y="-5"/>
      <point x="183" y="-5"/>
      <point x="186" y="-5" type="curve" smooth="yes"/>
      <point x="251" y="1"/>
      <point x="303" y="77"/>
      <point x="321" y="162" type="curve"/>
      <point x="316" y="156"/>
      <point x="314" y="153"/>
      <point x="310" y="150" type="curve"/>
      <point x="310" y="184"/>
      <point x="319" y="220"/>
      <point x="319" y="256" type="curve" smooth="yes"/>
      <point x="319" y="318"/>
      <point x="289" y="352"/>
      <point x="245" y="392" type="curve"/>
    </contour>
    <contour>
      <point x="244" y="245" type="line"/>
      <point x="248" y="234"/>
      <point x="249" y="224"/>
      <point x="249" y="215" type="curve" smooth="yes"/>
      <point x="249" y="199"/>
      <point x="244" y="185"/>
      <point x="234" y="169" type="curve"/>
    </contour>
    <contour>
      <point x="310" y="220" type="line"/>
      <point x="310" y="197"/>
      <point x="306" y="176"/>
      <point x="292" y="155" type="curve"/>
      <point x="298" y="182"/>
      <point x="303" y="201"/>
      <point x="305" y="221" type="curve"/>
      <point x="307" y="221"/>
      <point x="308" y="221"/>
      <point x="310" y="220" type="curve"/>
    </contour>
    <contour>
      <point x="216" y="517" type="line"/>
      <point x="215" y="493"/>
      <point x="209" y="471"/>
      <point x="194" y="456" type="curve"/>
      <point x="201" y="476"/>
      <point x="209" y="496"/>
      <point x="216" y="517" type="curve"/>
    </contour>
    <contour>
      <point x="281" y="251" type="line"/>
      <point x="281" y="245"/>
      <point x="282" y="239"/>
      <point x="282" y="233" type="curve" smooth="yes"/>
      <point x="282" y="219"/>
      <point x="280" y="205"/>
      <point x="274" y="194" type="curve"/>
      <point x="273" y="198"/>
      <point x="273" y="203"/>
      <point x="273" y="208" type="curve" smooth="yes"/>
      <point x="273" y="222"/>
      <point x="276" y="236"/>
      <point x="281" y="251" type="curve"/>
    </contour>
    <contour>
      <point x="256" y="239" type="line"/>
      <point x="254" y="248"/>
      <point x="245" y="250"/>
      <point x="245" y="261" type="curve" smooth="yes"/>
      <point x="245" y="264"/>
      <point x="245" y="268"/>
      <point x="247" y="272" type="curve"/>
      <point x="252" y="260"/>
      <point x="257" y="252"/>
      <point x="261" y="245" type="curve"/>
      <point x="260" y="243"/>
      <point x="258" y="242"/>
      <point x="256" y="239" type="curve"/>
    </contour>
    <contour>
      <point x="265" y="488" type="line"/>
      <point x="262" y="482"/>
      <point x="261" y="474"/>
      <point x="258" y="467" type="curve"/>
      <point x="257" y="468"/>
      <point x="255" y="469"/>
      <point x="254" y="469" type="curve"/>
      <point x="257" y="476"/>
      <point x="260" y="483"/>
      <point x="262" y="490" type="curve"/>
      <point x="262" y="490"/>
      <point x="263" y="489"/>
      <point x="265" y="488" type="curve"/>
    </contour>
    <contour>
      <point x="247" y="526" type="line"/>
      <point x="247" y="522"/>
      <point x="243" y="510"/>
      <point x="243" y="512" type="curve" smooth="yes"/>
      <point x="243" y="516"/>
      <point x="243" y="527"/>
      <point x="247" y="526" type="curve"/>
    </contour>
  </outline>
</glyph>
<glyph name="four" format="1">
  <advance width="411"/>
  <unicode hex="0034"/>
  <outline>
    <contour>
      <point x="198" y="-11" type="line"/>
      <point x="198" y="-26"/>
      <point x="198" y="-34"/>
      <point x="208" y="-54" type="curve"/>
      <point x="217" y="-54"/>
      <point x="212" y="272"/>
      <point x="221" y="272" type="curve"/>
      <point x="221" y="173"/>
      <point x="220" y="72"/>
      <point x="220" y="-28" type="curve" smooth="yes"/>
      <point x="220" y="-37"/>
      <point x="221" y="-48"/>
      <point x="222" y="-61" type="curve"/>
      <point x="228" y="-57"/>
      <point x="234" y="-56"/>
      <point x="234" y="-54" type="curve" smooth="yes"/>
      <point x="236" y="-39"/>
      <point x="252" y="-45"/>
      <point x="255" y="-32" type="curve"/>
      <point x="258" y="-33"/>
      <point x="260" y="-34"/>
      <point x="262" y="-34" type="curve" smooth="yes"/>
      <point x="270" y="-34"/>
      <point x="272" y="-15"/>
      <point x="272" y="-8" type="curve" smooth="yes"/>
      <point x="272" y="86"/>
      <point x="276" y="188"/>
      <point x="288" y="281" type="curve"/>
      <point x="326" y="289"/>
      <point x="393" y="294"/>
      <point x="393" y="325" type="curve" smooth="yes"/>
      <point x="393" y="353"/>
      <point x="319" y="355"/>
      <point x="290" y="355" type="curve"/>
      <point x="290" y="393" type="line" smooth="yes"/>
      <point x="290" y="470"/>
      <point x="292" y="548"/>
      <point x="292" y="625" type="curve" smooth="yes"/>
      <point x="292" y="647"/>
      <point x="286" y="684"/>
      <point x="269" y="684" type="curve" smooth="yes"/>
      <point x="267" y="684"/>
      <point x="264" y="682"/>
      <point x="263" y="682" type="curve" smooth="yes"/>
      <point x="258" y="682"/>
      <point x="257" y="688"/>
      <point x="253" y="688" type="curve" smooth="yes"/>
      <point x="250" y="688"/>
      <point x="245" y="675"/>
      <point x="243" y="671" type="curve"/>
      <point x="240" y="679"/>
      <point x="239" y="685"/>
      <point x="236" y="692" type="curve"/>
      <point x="223" y="685"/>
      <point x="221" y="671"/>
      <point x="221" y="658" type="curve"/>
      <point x="214" y="557"/>
      <point x="210" y="457"/>
      <point x="203" y="357" type="curve"/>
      <point x="109" y="357" type="line"/>
      <point x="117" y="433"/>
      <point x="130" y="508"/>
      <point x="130" y="584" type="curve" smooth="yes"/>
      <point x="130" y="600" type="line" smooth="yes"/>
      <point x="130" y="638"/>
      <point x="128" y="683"/>
      <point x="92" y="690" type="curve" smooth="yes"/>
      <point x="89" y="691"/>
      <point x="86" y="694"/>
      <point x="82" y="697" type="curve"/>
      <point x="71" y="672" type="line"/>
      <point x="70" y="683"/>
      <point x="69" y="691"/>
      <point x="69" y="699" type="curve"/>
      <point x="47" y="699"/>
      <point x="47" y="670"/>
      <point x="45" y="656" type="curve" smooth="yes"/>
      <point x="35" y="579"/>
      <point x="26" y="502"/>
      <point x="17" y="424" type="curve" smooth="yes"/>
      <point x="13" y="393"/>
      <point x="7" y="359"/>
      <point x="7" y="327" type="curve" smooth="yes"/>
      <point x="7" y="298"/>
      <point x="43" y="276"/>
      <point x="67" y="276" type="curve" smooth="yes"/>
      <point x="111" y="276"/>
      <point x="152" y="279"/>
      <point x="198" y="284" type="curve"/>
    </contour>
    <contour>
      <point x="286" y="492" type="line"/>
      <point x="286" y="502"/>
      <point x="286" y="511"/>
      <point x="288" y="521" type="curve"/>
      <point x="288" y="494" type="line" smooth="yes"/>
      <point x="288" y="476"/>
      <point x="288" y="455"/>
      <point x="286" y="455" type="curve"/>
    </contour>
    <contour>
      <point x="284" y="423" type="line"/>
      <point x="284" y="413"/>
      <point x="285" y="404"/>
      <point x="285" y="394" type="curve" smooth="yes"/>
      <point x="285" y="384"/>
      <point x="284" y="374"/>
      <point x="283" y="364" type="curve"/>
      <point x="283" y="397" type="line" smooth="yes"/>
      <point x="283" y="411"/>
      <point x="283" y="423"/>
      <point x="284" y="423" type="curve"/>
    </contour>
    <contour>
      <point x="280" y="249" type="line"/>
      <point x="280" y="232"/>
      <point x="280" y="214"/>
      <point x="278" y="214" type="curve"/>
      <point x="278" y="238" type="line" smooth="yes"/>
      <point x="278" y="250"/>
      <point x="278" y="262"/>
      <point x="280" y="274" type="curve"/>
    </contour>
    <contour>
      <point x="101" y="381" type="line"/>
      <point x="101" y="385"/>
      <point x="101" y="390"/>
      <point x="104" y="390" type="curve"/>
      <point x="104" y="382" type="line" smooth="yes"/>
      <point x="104" y="379"/>
      <point x="104" y="376"/>
      <point x="101" y="376" type="curve"/>
    </contour>
  </outline>
</glyph>
<glyph name="five" format="1">
  <advance width="368"/>
  <unicode hex="0035"/>
  <outline>
    <contour>
      <point x="142" y="485" type="line"/>
      <point x="138" y="533"/>
      <point x="134" y="570"/>
      <point x="131" y="611" type="curve"/>
      <point x="131" y="629"/>
      <point x="134" y="633"/>
      <point x="149" y="635" type="curve"/>
      <point x="150" y="635"/>
      <point x="152" y="636"/>
      <point x="155" y="636" type="curve" smooth="yes"/>
      <point x="190" y="639"/>
      <point x="356" y="652"/>
      <point x="356" y="687" type="curve" smooth="yes"/>
      <point x="356" y="718"/>
      <point x="294" y="725"/>
      <point x="262" y="725" type="curve" smooth="yes"/>
      <point x="228" y="725"/>
      <point x="194" y="721"/>
      <point x="160" y="716" type="curve" smooth="yes"/>
      <point x="148" y="714" type="line" smooth="yes"/>
      <point x="108" y="709"/>
      <point x="61" y="704"/>
      <point x="61" y="645" type="curve" smooth="yes"/>
      <point x="61" y="570"/>
      <point x="59" y="496"/>
      <point x="59" y="421" type="curve" smooth="yes"/>
      <point x="59" y="387"/>
      <point x="75" y="368"/>
      <point x="99" y="368" type="curve" smooth="yes"/>
      <point x="115" y="368"/>
      <point x="131" y="374"/>
      <point x="148" y="378" type="curve" smooth="yes"/>
      <point x="166" y="383"/>
      <point x="182" y="417"/>
      <point x="200" y="417" type="curve" smooth="yes"/>
      <point x="226" y="417"/>
      <point x="251" y="334"/>
      <point x="251" y="268" type="curve" smooth="yes"/>
      <point x="251" y="191"/>
      <point x="227" y="109"/>
      <point x="186" y="61" type="curve" smooth="yes"/>
      <point x="176" y="49"/>
      <point x="170" y="44"/>
      <point x="163" y="44" type="curve" smooth="yes"/>
      <point x="143" y="44"/>
      <point x="73" y="144"/>
      <point x="73" y="189" type="curve" smooth="yes"/>
      <point x="73" y="205"/>
      <point x="62" y="212"/>
      <point x="55" y="221" type="curve"/>
      <point x="44" y="206" type="line"/>
      <point x="42" y="209"/>
      <point x="41" y="214"/>
      <point x="40" y="220" type="curve"/>
      <point x="26" y="205"/>
      <point x="34" y="184"/>
      <point x="27" y="169" type="curve"/>
      <point x="22" y="172"/>
      <point x="21" y="177"/>
      <point x="21" y="182" type="curve" smooth="yes"/>
      <point x="21" y="187"/>
      <point x="23" y="192"/>
      <point x="23" y="198" type="curve" smooth="yes"/>
      <point x="23" y="201"/>
      <point x="22" y="205"/>
      <point x="20" y="208" type="curve"/>
      <point x="13" y="204"/>
      <point x="11" y="197"/>
      <point x="11" y="188" type="curve" smooth="yes"/>
      <point x="11" y="86"/>
      <point x="75" y="-27"/>
      <point x="149" y="-27" type="curve" smooth="yes"/>
      <point x="177" y="-27"/>
      <point x="202" y="-12"/>
      <point x="225" y="3" type="curve" smooth="yes"/>
      <point x="299" y="53"/>
      <point x="343" y="154"/>
      <point x="343" y="264" type="curve" smooth="yes"/>
      <point x="343" y="306"/>
      <point x="328" y="354"/>
      <point x="310" y="392" type="curve"/>
      <point x="283" y="463"/>
      <point x="226" y="485"/>
      <point x="172" y="485" type="curve" smooth="yes"/>
    </contour>
    <contour>
      <point x="266" y="200" type="line"/>
      <point x="268" y="236"/>
      <point x="270" y="253"/>
      <point x="273" y="251" type="curve"/>
      <point x="271" y="199" type="line"/>
      <point x="269" y="200"/>
      <point x="267" y="200"/>
      <point x="266" y="200" type="curve"/>
    </contour>
    <contour>
      <point x="334" y="254" type="line"/>
      <point x="334" y="261"/>
      <point x="334" y="268"/>
      <point x="336" y="275" type="curve"/>
      <point x="336" y="259" type="line" smooth="yes"/>
      <point x="336" y="249"/>
      <point x="336" y="240"/>
      <point x="334" y="240" type="curve"/>
    </contour>
  </outline>
</glyph>
<glyph name="six" format="1">
  <advance width="409"/>
  <unicode hex="0036"/>
  <outline>
    <contour>
      <point x="71" y="693" type="line"/>
      <point x="66" y="696"/>
      <point x="65" y="699"/>
      <point x="65" y="703" type="curve" smooth="yes"/>
      <point x="65" y="707"/>
      <point x="67" y="713"/>
      <point x="67" y="718" type="curve" smooth="yes"/>
      <point x="67" y="719"/>
      <point x="67" y="721"/>
      <point x="66" y="723" type="curve"/>
      <point x="55" y="718"/>
      <point x="48" y="705"/>
      <point x="48" y="691" type="curve"/>
      <point x="24" y="563"/>
      <point x="19" y="434"/>
      <point x="19" y="306" type="curve" smooth="yes"/>
      <point x="19" y="215"/>
      <point x="32" y="-26"/>
      <point x="190" y="-26" type="curve" smooth="yes"/>
      <point x="209" y="-26"/>
      <point x="218" y="-18"/>
      <point x="245" y="-10" type="curve" smooth="yes"/>
      <point x="298" y="5"/>
      <point x="358" y="68"/>
      <point x="363" y="138" type="curve" smooth="yes"/>
      <point x="366" y="191"/>
      <point x="392" y="245"/>
      <point x="392" y="289" type="curve" smooth="yes"/>
      <point x="392" y="353"/>
      <point x="352" y="409"/>
      <point x="285" y="409" type="curve" smooth="yes"/>
      <point x="215" y="409"/>
      <point x="153" y="298"/>
      <point x="121" y="209" type="curve"/>
      <point x="110" y="229"/>
      <point x="111" y="251"/>
      <point x="107" y="269" type="curve" smooth="yes"/>
      <point x="102" y="290"/>
      <point x="101" y="311"/>
      <point x="101" y="332" type="curve" smooth="yes"/>
      <point x="101" y="365"/>
      <point x="103" y="460"/>
      <point x="107" y="464" type="curve"/>
      <point x="117" y="483"/>
      <point x="118" y="504"/>
      <point x="118" y="524" type="curve" smooth="yes"/>
      <point x="118" y="550"/>
      <point x="117" y="578"/>
      <point x="117" y="604" type="curve" smooth="yes"/>
      <point x="117" y="661" type="line" smooth="yes"/>
      <point x="117" y="684"/>
      <point x="115" y="711"/>
      <point x="94" y="711" type="curve" smooth="yes"/>
      <point x="90" y="711" type="line"/>
      <point x="89" y="711"/>
      <point x="86" y="716"/>
      <point x="82" y="723" type="curve"/>
    </contour>
    <contour>
      <point x="289" y="346" type="line"/>
      <point x="290" y="329"/>
      <point x="294" y="315"/>
      <point x="294" y="301" type="curve" smooth="yes"/>
      <point x="294" y="234"/>
      <point x="287" y="168"/>
      <point x="260" y="108" type="curve" smooth="yes"/>
      <point x="248" y="82"/>
      <point x="213" y="36"/>
      <point x="199" y="36" type="curve" smooth="yes"/>
      <point x="180" y="36"/>
      <point x="172" y="59"/>
      <point x="172" y="71" type="curve" smooth="yes"/>
      <point x="172" y="91"/>
      <point x="181" y="112"/>
      <point x="192" y="138" type="curve"/>
      <point x="208" y="189"/>
      <point x="238" y="236"/>
      <point x="246" y="290" type="curve" smooth="yes"/>
      <point x="249" y="314"/>
      <point x="265" y="330"/>
      <point x="289" y="346" type="curve"/>
    </contour>
    <contour>
      <point x="318" y="260" type="line"/>
      <point x="318" y="217"/>
      <point x="311" y="178"/>
      <point x="298" y="139" type="curve"/>
      <point x="295" y="139"/>
      <point x="294" y="139"/>
      <point x="293" y="140" type="curve"/>
      <point x="298" y="159"/>
      <point x="309" y="260"/>
      <point x="318" y="260" type="curve"/>
    </contour>
    <contour>
      <point x="128" y="156" type="line"/>
      <point x="133" y="185"/>
      <point x="143" y="211"/>
      <point x="160" y="234" type="curve"/>
      <point x="150" y="207"/>
      <point x="143" y="182"/>
      <point x="133" y="154" type="curve"/>
      <point x="132" y="155"/>
      <point x="131" y="155"/>
      <point x="128" y="156" type="curve"/>
    </contour>
    <contour>
      <point x="337" y="215" type="line"/>
      <point x="337" y="228"/>
      <point x="343" y="239"/>
      <point x="347" y="253" type="curve"/>
      <point x="346" y="253"/>
      <point x="342" y="215"/>
      <point x="342" y="214" type="curve"/>
      <point x="341" y="214"/>
      <point x="339" y="215"/>
      <point x="337" y="215" type="curve"/>
    </contour>
  </outline>
</glyph>
<glyph name="seven" format="1">
  <advance width="417"/>
  <unicode hex="0037"/>
  <outline>
    <contour>
      <point x="195" y="362" type="line"/>
      <point x="175" y="358"/>
      <point x="48" y="353"/>
      <point x="48" y="314" type="curve" smooth="yes"/>
      <point x="48" y="298"/>
      <point x="72" y="288"/>
      <point x="87" y="288" type="curve" smooth="yes"/>
      <point x="91" y="288"/>
      <point x="95" y="289"/>
      <point x="99" y="290" type="curve" smooth="yes"/>
      <point x="128" y="298"/>
      <point x="156" y="297"/>
      <point x="188" y="299" type="curve"/>
      <point x="188" y="228"/>
      <point x="175" y="158"/>
      <point x="175" y="83" type="curve" smooth="yes"/>
      <point x="175" y="68"/>
      <point x="173" y="48"/>
      <point x="173" y="30" type="curve" smooth="yes"/>
      <point x="173" y="8"/>
      <point x="176" y="-12"/>
      <point x="188" y="-17" type="curve"/>
      <point x="198" y="45"/>
      <point x="195" y="113"/>
      <point x="198" y="175" type="curve" smooth="yes"/>
      <point x="200" y="212"/>
      <point x="200" y="267"/>
      <point x="212" y="297" type="curve"/>
      <point x="215" y="294"/>
      <point x="215" y="291"/>
      <point x="215" y="284" type="curve"/>
      <point x="207" y="200"/>
      <point x="199" y="116"/>
      <point x="199" y="32" type="curve" smooth="yes"/>
      <point x="199" y="26"/>
      <point x="198" y="16"/>
      <point x="198" y="6" type="curve" smooth="yes"/>
      <point x="198" y="-8"/>
      <point x="200" y="-23"/>
      <point x="206" y="-26" type="curve"/>
      <point x="215" y="-26"/>
      <point x="216" y="-10"/>
      <point x="220" y="-2" type="curve"/>
      <point x="228" y="-12" type="line"/>
      <point x="245" y="4" type="line"/>
      <point x="246" y="-1"/>
      <point x="246" y="-6"/>
      <point x="246" y="-11" type="curve"/>
      <point x="256" y="-4"/>
      <point x="253" y="14"/>
      <point x="255" y="30" type="curve"/>
      <point x="257" y="22"/>
      <point x="257" y="17"/>
      <point x="259" y="6" type="curve"/>
      <point x="265" y="62"/>
      <point x="272" y="112"/>
      <point x="277" y="161" type="curve" smooth="yes"/>
      <point x="283" y="212"/>
      <point x="285" y="263"/>
      <point x="294" y="311" type="curve"/>
      <point x="333" y="318"/>
      <point x="409" y="323"/>
      <point x="409" y="342" type="curve" smooth="yes"/>
      <point x="409" y="364"/>
      <point x="372" y="365"/>
      <point x="353" y="365" type="curve" smooth="yes"/>
      <point x="335" y="365"/>
      <point x="318" y="364"/>
      <point x="299" y="364" type="curve"/>
      <point x="299" y="370"/>
      <point x="299" y="374"/>
      <point x="300" y="378" type="curve" smooth="yes"/>
      <point x="309" y="462"/>
      <point x="320" y="544"/>
      <point x="320" y="628" type="curve" smooth="yes"/>
      <point x="320" y="670"/>
      <point x="265" y="693"/>
      <point x="231" y="693" type="curve" smooth="yes"/>
      <point x="171" y="693"/>
      <point x="107" y="684"/>
      <point x="46" y="681" type="curve" smooth="yes"/>
      <point x="33" y="680"/>
      <point x="9" y="674"/>
      <point x="9" y="653" type="curve" smooth="yes"/>
      <point x="9" y="646"/>
      <point x="26" y="622"/>
      <point x="41" y="619" type="curve" smooth="yes"/>
      <point x="67" y="613"/>
      <point x="92" y="608"/>
      <point x="119" y="608" type="curve" smooth="yes"/>
      <point x="158" y="608"/>
      <point x="192" y="619"/>
      <point x="233" y="623" type="curve"/>
    </contour>
    <contour>
      <point x="295" y="389" type="line"/>
      <point x="295" y="380"/>
      <point x="292" y="376"/>
      <point x="292" y="369" type="curve"/>
      <point x="288" y="369" type="line"/>
      <point x="295" y="399"/>
      <point x="296" y="409"/>
      <point x="298" y="444" type="curve" smooth="yes"/>
      <point x="298" y="447"/>
      <point x="299" y="450"/>
      <point x="299" y="454" type="curve" smooth="yes"/>
      <point x="300" y="447"/>
      <point x="301" y="442"/>
      <point x="301" y="438" type="curve" smooth="yes"/>
      <point x="301" y="435"/>
      <point x="302" y="432"/>
      <point x="302" y="429" type="curve" smooth="yes"/>
      <point x="302" y="427"/>
      <point x="302" y="425"/>
      <point x="300" y="423" type="curve"/>
      <point x="300" y="417"/>
      <point x="297" y="413"/>
      <point x="297" y="408" type="curve" smooth="yes"/>
      <point x="297" y="405"/>
      <point x="298" y="401"/>
      <point x="298" y="397" type="curve" smooth="yes"/>
      <point x="298" y="394"/>
      <point x="297" y="391"/>
      <point x="295" y="389" type="curve"/>
    </contour>
    <contour>
      <point x="275" y="270" type="line"/>
      <point x="275" y="276"/>
      <point x="277" y="299"/>
      <point x="284" y="299" type="curve"/>
      <point x="282" y="273"/>
      <point x="277" y="250"/>
      <point x="275" y="224" type="curve"/>
      <point x="275" y="181" type="line" smooth="yes"/>
      <point x="275" y="161"/>
      <point x="274" y="141"/>
      <point x="268" y="126" type="curve"/>
      <point x="268" y="117"/>
      <point x="266" y="109"/>
      <point x="266" y="100" type="curve" smooth="yes"/>
      <point x="266" y="96" type="line"/>
      <point x="262" y="96" type="line"/>
      <point x="268" y="156"/>
      <point x="271" y="200"/>
      <point x="275" y="270" type="curve" smooth="yes"/>
    </contour>
    <contour>
      <point x="218" y="366" type="line"/>
      <point x="218" y="370"/>
      <point x="217" y="373"/>
      <point x="217" y="377" type="curve" smooth="yes"/>
      <point x="217" y="403"/>
      <point x="224" y="435"/>
      <point x="231" y="463" type="curve"/>
      <point x="231" y="449" type="line" smooth="yes"/>
      <point x="231" y="433"/>
      <point x="228" y="366"/>
      <point x="218" y="366" type="curve"/>
    </contour>
    <contour>
      <point x="261" y="64" type="line"/>
      <point x="261" y="60"/>
      <point x="261" y="55"/>
      <point x="259" y="53" type="curve"/>
      <point x="259" y="61" type="line" smooth="yes"/>
      <point x="259" y="66"/>
      <point x="259" y="72"/>
      <point x="261" y="72" type="curve"/>
    </contour>
  </outline>
</glyph>
<glyph name="eight" format="1">
  <advance width="327"/>
  <unicode hex="0038"/>
  <outline>
    <contour>
      <point x="270" y="135" type="line"/>
      <point x="263" y="177"/>
      <point x="254" y="215"/>
      <point x="230" y="251" type="curve" smooth="yes"/>
      <point x="224" y="259"/>
      <point x="221" y="266"/>
      <point x="221" y="273" type="curve" smooth="yes"/>
      <point x="221" y="280"/>
      <point x="224" y="287"/>
      <point x="229" y="294" type="curve"/>
      <point x="256" y="341"/>
      <point x="257" y="410"/>
      <point x="296" y="437" type="curve"/>
      <point x="306" y="447"/>
      <point x="307" y="456"/>
      <point x="307" y="467" type="curve" smooth="yes"/>
      <point x="307" y="483" type="line" smooth="yes"/>
      <point x="307" y="546"/>
      <point x="290" y="609"/>
      <point x="251" y="658" type="curve" smooth="yes"/>
      <point x="223" y="693"/>
      <point x="174" y="718"/>
      <point x="131" y="718" type="curve" smooth="yes"/>
      <point x="61" y="718"/>
      <point x="12" y="647"/>
      <point x="12" y="586" type="curve" smooth="yes"/>
      <point x="12" y="495"/>
      <point x="68" y="417"/>
      <point x="108" y="340" type="curve"/>
      <point x="112" y="334"/>
      <point x="113" y="329"/>
      <point x="113" y="324" type="curve" smooth="yes"/>
      <point x="113" y="319"/>
      <point x="111" y="313"/>
      <point x="108" y="306" type="curve"/>
      <point x="64" y="233"/>
      <point x="15" y="152"/>
      <point x="15" y="73" type="curve" smooth="yes"/>
      <point x="15" y="19"/>
      <point x="38" y="-36"/>
      <point x="120" y="-36" type="curve" smooth="yes"/>
      <point x="149" y="-36"/>
      <point x="177" y="-21"/>
      <point x="204" y="-9" type="curve" smooth="yes"/>
      <point x="261" y="16"/>
      <point x="258" y="66"/>
      <point x="270" y="135" type="curve"/>
    </contour>
    <contour>
      <point x="152" y="404" type="line"/>
      <point x="120" y="462"/>
      <point x="90" y="516"/>
      <point x="90" y="583" type="curve" smooth="yes"/>
      <point x="90" y="623"/>
      <point x="119" y="666"/>
      <point x="152" y="666" type="curve" smooth="yes"/>
      <point x="157" y="666"/>
      <point x="161" y="664"/>
      <point x="164" y="659" type="curve" smooth="yes"/>
      <point x="197" y="614"/>
      <point x="219" y="545"/>
      <point x="225" y="487" type="curve"/>
      <point x="225" y="464"/>
      <point x="180" y="421"/>
      <point x="160" y="391" type="curve"/>
    </contour>
    <contour>
      <point x="164" y="208" type="line"/>
      <point x="173" y="187"/>
      <point x="178" y="153"/>
      <point x="178" y="122" type="curve" smooth="yes"/>
      <point x="178" y="83"/>
      <point x="162" y="19"/>
      <point x="132" y="19" type="curve" smooth="yes"/>
      <point x="123" y="19"/>
      <point x="117" y="32"/>
      <point x="117" y="56" type="curve"/>
      <point x="120" y="100"/>
      <point x="141" y="171"/>
      <point x="164" y="208" type="curve"/>
    </contour>
    <contour>
      <point x="36" y="611" type="line"/>
      <point x="36" y="636"/>
      <point x="44" y="649"/>
      <point x="60" y="658" type="curve"/>
    </contour>
    <contour>
      <point x="36" y="58" type="line"/>
      <point x="39" y="72"/>
      <point x="40" y="86"/>
      <point x="44" y="99" type="curve"/>
      <point x="45" y="99"/>
      <point x="47" y="99"/>
      <point x="49" y="98" type="curve"/>
      <point x="47" y="85"/>
      <point x="45" y="71"/>
      <point x="44" y="57" type="curve"/>
      <point x="40" y="57"/>
      <point x="39" y="58"/>
      <point x="36" y="58" type="curve"/>
    </contour>
    <contour>
      <point x="194" y="77" type="line"/>
      <point x="194" y="78"/>
      <point x="193" y="80"/>
      <point x="193" y="81" type="curve" smooth="yes"/>
      <point x="193" y="90"/>
      <point x="202" y="104"/>
      <point x="202" y="102" type="curve" smooth="yes"/>
      <point x="202" y="92"/>
      <point x="202" y="77"/>
      <point x="194" y="77" type="curve"/>
    </contour>
  </outline>
</glyph>
<glyph name="nine" format="1">
  <advance width="291"/>
  <unicode hex="0039"/>
  <outline>
    <contour>
      <point x="274" y="95" type="line"/>
      <point x="274" y="151"/>
      <point x="271" y="200"/>
      <point x="271" y="251" type="curve" smooth="yes"/>
      <point x="271" y="258"/>
      <point x="271" y="266"/>
      <point x="272" y="273" type="curve"/>
      <point x="272" y="299"/>
      <point x="266" y="325"/>
      <point x="266" y="353" type="curve" smooth="yes"/>
      <point x="266" y="367" type="line" smooth="yes"/>
      <point x="266" y="387"/>
      <point x="263" y="408"/>
      <point x="261" y="429" type="curve" smooth="yes"/>
      <point x="256" y="475"/>
      <point x="257" y="522"/>
      <point x="256" y="567" type="curve" smooth="yes"/>
      <point x="255" y="635"/>
      <point x="211" y="703"/>
      <point x="151" y="703" type="curve" smooth="yes"/>
      <point x="102" y="703"/>
      <point x="56" y="638"/>
      <point x="36" y="578" type="curve"/>
      <point x="38" y="577"/>
      <point x="39" y="577"/>
      <point x="40" y="577" type="curve" smooth="yes"/>
      <point x="49" y="577"/>
      <point x="66" y="641"/>
      <point x="100" y="659" type="curve"/>
      <point x="83" y="625"/>
      <point x="62" y="599"/>
      <point x="51" y="561" type="curve" smooth="yes"/>
      <point x="49" y="556"/>
      <point x="44" y="552"/>
      <point x="41" y="548" type="curve"/>
      <point x="40" y="550"/>
      <point x="39" y="552"/>
      <point x="39" y="555" type="curve" smooth="yes"/>
      <point x="39" y="558"/>
      <point x="40" y="561"/>
      <point x="40" y="564" type="curve" smooth="yes"/>
      <point x="40" y="567"/>
      <point x="39" y="570"/>
      <point x="36" y="572" type="curve"/>
      <point x="21" y="565"/>
      <point x="17" y="513"/>
      <point x="17" y="493" type="curve" smooth="yes"/>
      <point x="17" y="431"/>
      <point x="54" y="395"/>
      <point x="110" y="395" type="curve" smooth="yes"/>
      <point x="138" y="395"/>
      <point x="155" y="407"/>
      <point x="180" y="419" type="curve"/>
      <point x="180" y="288"/>
      <point x="187" y="155"/>
      <point x="201" y="26" type="curve"/>
      <point x="201" y="17"/>
      <point x="201" y="7"/>
      <point x="209" y="2" type="curve"/>
      <point x="214" y="12" type="line"/>
      <point x="218" y="8"/>
      <point x="220" y="3"/>
      <point x="220" y="-4" type="curve" smooth="yes"/>
      <point x="220" y="-6"/>
      <point x="220" y="-7"/>
      <point x="223" y="-7" type="curve" smooth="yes"/>
      <point x="225" y="-7"/>
      <point x="230" y="-3"/>
      <point x="236" y="5" type="curve"/>
      <point x="238" y="2"/>
      <point x="240" y="2"/>
      <point x="242" y="2" type="curve" smooth="yes"/>
      <point x="246" y="2"/>
      <point x="251" y="6"/>
      <point x="256" y="6" type="curve" smooth="yes"/>
      <point x="259" y="6"/>
      <point x="262" y="5"/>
      <point x="268" y="1" type="curve"/>
      <point x="268" y="105" type="line"/>
      <point x="270" y="101"/>
      <point x="271" y="99"/>
      <point x="274" y="95" type="curve"/>
    </contour>
    <contour>
      <point x="97" y="616" type="line"/>
      <point x="116" y="632"/>
      <point x="136" y="659"/>
      <point x="153" y="659" type="curve" smooth="yes"/>
      <point x="173" y="659"/>
      <point x="184" y="639"/>
      <point x="184" y="615" type="curve" smooth="yes"/>
      <point x="184" y="607"/>
      <point x="182" y="599"/>
      <point x="178" y="592" type="curve"/>
      <point x="156" y="540"/>
      <point x="140" y="477"/>
      <point x="93" y="452" type="curve"/>
      <point x="85" y="465"/>
      <point x="82" y="479"/>
      <point x="82" y="493" type="curve" smooth="yes"/>
      <point x="82" y="506"/>
      <point x="86" y="520"/>
      <point x="86" y="533" type="curve" smooth="yes"/>
      <point x="86" y="543"/>
      <point x="84" y="552"/>
      <point x="78" y="560" type="curve"/>
      <point x="91" y="584" type="line"/>
      <point x="87" y="585"/>
      <point x="85" y="587"/>
      <point x="81" y="589" type="curve"/>
      <point x="82" y="587"/>
      <point x="82" y="585"/>
      <point x="82" y="583" type="curve" smooth="yes"/>
      <point x="82" y="572"/>
      <point x="71" y="569"/>
      <point x="69" y="560" type="curve"/>
      <point x="58" y="528" type="line"/>
      <point x="62" y="569"/>
      <point x="73" y="606"/>
      <point x="101" y="634" type="curve"/>
    </contour>
    <contour>
      <point x="150" y="479" type="line"/>
      <point x="161" y="509"/>
      <point x="171" y="537"/>
      <point x="182" y="565" type="curve"/>
      <point x="186" y="563" type="line"/>
      <point x="186" y="539"/>
      <point x="175" y="500"/>
      <point x="150" y="479" type="curve"/>
    </contour>
    <contour>
      <point x="230" y="497" type="line"/>
      <point x="229" y="497"/>
      <point x="228" y="498"/>
      <point x="226" y="498" type="curve"/>
      <point x="227" y="502"/>
      <point x="228" y="507"/>
      <point x="228" y="512" type="curve"/>
      <point x="229" y="511"/>
      <point x="231" y="511"/>
      <point x="233" y="510" type="curve"/>
    </contour>
    <contour>
      <point x="119" y="675" type="line"/>
      <point x="118" y="673"/>
      <point x="115" y="672"/>
      <point x="113" y="670" type="curve"/>
      <point x="112" y="671"/>
      <point x="111" y="673"/>
      <point x="111" y="673" type="curve"/>
      <point x="118" y="679" type="line"/>
      <point x="119" y="678"/>
      <point x="119" y="677"/>
      <point x="119" y="675" type="curve" smooth="yes"/>
    </contour>
  </outline>
</glyph>
<glyph name="colon" format="1">
  <advance width="158"/>
  <unicode hex="003A"/>
  <outline>
    <contour>
      <point x="88" y="344" type="line"/>
      <point x="109" y="344"/>
      <point x="132" y="361"/>
      <point x="132" y="382" type="curve" smooth="yes"/>
      <point x="132" y="405"/>
      <point x="88" y="438"/>
      <point x="56" y="438" type="curve" smooth="yes"/>
      <point x="38" y="438"/>
      <point x="25" y="418"/>
      <point x="25" y="402" type="curve" smooth="yes"/>
      <point x="25" y="360"/>
      <point x="58" y="344"/>
      <point x="88" y="344" type="curve" smooth="yes"/>
    </contour>
    <contour>
      <point x="91" y="19" type="line"/>
      <point x="95" y="19"/>
      <point x="97" y="19"/>
      <point x="98" y="18" type="curve"/>
      <point x="120" y="18"/>
      <point x="141" y="30"/>
      <point x="141" y="58" type="curve" smooth="yes"/>
      <point x="141" y="79"/>
      <point x="99" y="106"/>
      <point x="68" y="106" type="curve" smooth="yes"/>
      <point x="46" y="106"/>
      <point x="36" y="82"/>
      <point x="36" y="64" type="curve" smooth="yes"/>
      <point x="36" y="34"/>
      <point x="61" y="18"/>
      <point x="83" y="18" type="curve" smooth="yes"/>
      <point x="85" y="18"/>
      <point x="88" y="19"/>
      <point x="91" y="19" type="curve" smooth="yes"/>
    </contour>
  </outline>
</glyph>
<glyph name="semicolon" format="1">
  <advance width="154"/>
  <unicode hex="003B"/>
  <outline>
    <contour>
      <point x="17" y="-26" type="line"/>
      <point x="25" y="-51"/>
      <point x="57" y="-54"/>
      <point x="71" y="-54" type="curve" smooth="yes"/>
      <point x="82" y="-54"/>
      <point x="90" y="-47"/>
      <point x="97" y="-38" type="curve"/>
      <point x="119" y="-3" type="line" smooth="yes"/>
      <point x="130" y="15"/>
      <point x="135" y="33"/>
      <point x="135" y="53" type="curve" smooth="yes"/>
      <point x="135" y="99"/>
      <point x="108" y="134"/>
      <point x="60" y="149" type="curve" smooth="yes"/>
      <point x="56" y="150"/>
      <point x="53" y="151"/>
      <point x="50" y="151" type="curve" smooth="yes"/>
      <point x="42" y="151"/>
      <point x="36" y="145"/>
      <point x="36" y="133" type="curve" smooth="yes"/>
      <point x="36" y="105"/>
      <point x="41" y="76"/>
      <point x="41" y="49" type="curve" smooth="yes"/>
      <point x="41" y="23"/>
      <point x="36" y="-3"/>
      <point x="17" y="-26" type="curve"/>
    </contour>
    <contour>
      <point x="23" y="392" type="line"/>
      <point x="23" y="352"/>
      <point x="68" y="334"/>
      <point x="96" y="334" type="curve" smooth="yes"/>
      <point x="113" y="334"/>
      <point x="130" y="352"/>
      <point x="130" y="371" type="curve" smooth="yes"/>
      <point x="130" y="403"/>
      <point x="84" y="427"/>
      <point x="55" y="427" type="curve" smooth="yes"/>
      <point x="38" y="427"/>
      <point x="23" y="410"/>
      <point x="23" y="392" type="curve" smooth="yes"/>
    </contour>
  </outline>
</glyph>
<glyph name="equal" format="1">
  <advance width="460"/>
  <unicode hex="003D"/>
  <outline>
    <contour>
      <point x="401" y="288" type="line"/>
      <point x="408" y="290"/>
      <point x="420" y="290"/>
      <point x="420" y="295" type="curve" smooth="yes"/>
      <point x="420" y="318"/>
      <point x="388" y="319"/>
      <point x="369" y="320" type="curve"/>
      <point x="91" y="303" type="line"/>
      <point x="87" y="309"/>
      <point x="82" y="309"/>
      <point x="77" y="309" type="curve" smooth="yes"/>
      <point x="65" y="309"/>
      <point x="30" y="275"/>
      <point x="30" y="257" type="curve" smooth="yes"/>
      <point x="30" y="233"/>
      <point x="58" y="233"/>
      <point x="92" y="233" type="curve" smooth="yes"/>
      <point x="131" y="233"/>
      <point x="179" y="237"/>
      <point x="216" y="237" type="curve" smooth="yes"/>
      <point x="216" y="237"/>
      <point x="268" y="235"/>
      <point x="325" y="232" type="curve"/>
      <point x="363" y="232"/>
      <point x="378" y="246"/>
      <point x="418" y="274" type="curve"/>
    </contour>
    <contour>
      <point x="410" y="418" type="line"/>
      <point x="424" y="422"/>
      <point x="430" y="429"/>
      <point x="430" y="438" type="curve" smooth="yes"/>
      <point x="430" y="459"/>
      <point x="397" y="490"/>
      <point x="377" y="496" type="curve" smooth="yes"/>
      <point x="360" y="501"/>
      <point x="347" y="501"/>
      <point x="331" y="502" type="curve" smooth="yes"/>
      <point x="324" y="502"/>
      <point x="317" y="501"/>
      <point x="308" y="501" type="curve" smooth="yes"/>
      <point x="301" y="501"/>
      <point x="293" y="501"/>
      <point x="284" y="502" type="curve"/>
      <point x="245" y="502" type="line"/>
      <point x="196" y="502"/>
      <point x="227" y="503"/>
      <point x="196" y="503" type="curve" smooth="yes"/>
      <point x="183" y="503"/>
      <point x="32" y="503"/>
      <point x="32" y="468" type="curve" smooth="yes"/>
      <point x="32" y="462"/>
      <point x="47" y="456"/>
      <point x="47" y="452" type="curve" smooth="yes"/>
      <point x="46" y="448"/>
      <point x="45" y="445"/>
      <point x="45" y="442" type="curve" smooth="yes"/>
      <point x="45" y="418"/>
      <point x="126" y="408"/>
      <point x="175" y="408" type="curve" smooth="yes"/>
      <point x="241" y="408"/>
      <point x="235" y="417"/>
      <point x="249" y="417" type="curve" smooth="yes"/>
      <point x="264" y="417"/>
      <point x="259" y="414"/>
      <point x="273" y="414" type="curve" smooth="yes"/>
      <point x="282" y="414"/>
      <point x="305" y="419"/>
      <point x="347" y="419" type="curve" smooth="yes"/>
      <point x="365" y="419"/>
      <point x="382" y="418"/>
      <point x="399" y="418" type="curve"/>
    </contour>
  </outline>
</glyph>
<glyph name="question" format="1">
  <advance width="319"/>
  <unicode hex="003F"/>
  <outline>
    <contour>
      <point x="212" y="696" type="line"/>
      <point x="212" y="688"/>
      <point x="213" y="681"/>
      <point x="213" y="674" type="curve" smooth="yes"/>
      <point x="212" y="637"/>
      <point x="164" y="574"/>
      <point x="141" y="531" type="curve" smooth="yes"/>
      <point x="101" y="455"/>
      <point x="80" y="379"/>
      <point x="80" y="296" type="curve" smooth="yes"/>
      <point x="80" y="181"/>
      <point x="105" y="198"/>
      <point x="141" y="190" type="curve"/>
      <point x="145" y="198"/>
      <point x="147" y="199"/>
      <point x="147" y="208" type="curve" smooth="yes"/>
      <point x="147" y="323"/>
      <point x="174" y="431"/>
      <point x="237" y="530" type="curve" smooth="yes"/>
      <point x="261" y="568"/>
      <point x="291" y="616"/>
      <point x="291" y="651" type="curve" smooth="yes"/>
      <point x="291" y="701"/>
      <point x="231" y="743"/>
      <point x="161" y="743" type="curve" smooth="yes"/>
      <point x="108" y="743"/>
      <point x="30" y="713"/>
      <point x="30" y="668" type="curve" smooth="yes"/>
      <point x="30" y="647"/>
      <point x="51" y="645"/>
      <point x="75" y="642" type="curve"/>
      <point x="107" y="687"/>
      <point x="154" y="696"/>
      <point x="212" y="696" type="curve"/>
    </contour>
    <contour>
      <point x="133" y="-24" type="line"/>
      <point x="153" y="-21"/>
      <point x="161" y="-5"/>
      <point x="161" y="10" type="curve" smooth="yes"/>
      <point x="161" y="35"/>
      <point x="121" y="51"/>
      <point x="99" y="52" type="curve" smooth="yes"/>
      <point x="88" y="52"/>
      <point x="63" y="31"/>
      <point x="63" y="21" type="curve" smooth="yes"/>
      <point x="63" y="-9"/>
      <point x="90" y="-25"/>
      <point x="120" y="-25" type="curve" smooth="yes"/>
      <point x="124" y="-25"/>
      <point x="129" y="-25"/>
      <point x="133" y="-24" type="curve" smooth="yes"/>
    </contour>
  </outline>
</glyph>
<glyph name="at" format="1">
  <advance width="566"/>
  <unicode hex="0040"/>
  <outline>
    <contour>
      <point x="227" y="423" type="line"/>
      <point x="245" y="440"/>
      <point x="262" y="468"/>
      <point x="279" y="468" type="curve" smooth="yes"/>
      <point x="299" y="468"/>
      <point x="311" y="447"/>
      <point x="314" y="422" type="curve"/>
      <point x="314" y="413"/>
      <point x="314" y="405"/>
      <point x="309" y="397" type="curve"/>
      <point x="291" y="342"/>
      <point x="280" y="275"/>
      <point x="236" y="249" type="curve"/>
      <point x="225" y="264"/>
      <point x="221" y="282"/>
      <point x="221" y="297" type="curve" smooth="yes"/>
      <point x="221" y="308"/>
      <point x="223" y="319"/>
      <point x="223" y="330" type="curve" smooth="yes"/>
      <point x="223" y="340"/>
      <point x="219" y="354"/>
      <point x="212" y="363" type="curve"/>
      <point x="224" y="389" type="line"/>
      <point x="220" y="390"/>
      <point x="217" y="392"/>
      <point x="212" y="394" type="curve"/>
      <point x="214" y="392"/>
      <point x="215" y="390"/>
      <point x="215" y="388" type="curve" smooth="yes"/>
      <point x="214" y="376"/>
      <point x="205" y="373"/>
      <point x="203" y="363" type="curve" smooth="yes"/>
      <point x="194" y="329" type="line"/>
      <point x="196" y="373"/>
      <point x="203" y="412"/>
      <point x="229" y="442" type="curve"/>
    </contour>
    <contour>
      <point x="290" y="278" type="line"/>
      <point x="298" y="309"/>
      <point x="308" y="339"/>
      <point x="316" y="369" type="curve"/>
      <point x="320" y="367" type="line"/>
      <point x="320" y="340"/>
      <point x="314" y="300"/>
      <point x="290" y="278" type="curve"/>
    </contour>
    <contour>
      <point x="351" y="301" type="line"/>
      <point x="350" y="301"/>
      <point x="349" y="302"/>
      <point x="347" y="302" type="curve"/>
      <point x="348" y="306"/>
      <point x="348" y="311"/>
      <point x="348" y="316" type="curve"/>
      <point x="349" y="315"/>
      <point x="351" y="315"/>
      <point x="353" y="314" type="curve"/>
    </contour>
    <contour>
      <point x="244" y="485" type="line"/>
      <point x="243" y="483"/>
      <point x="240" y="482"/>
      <point x="238" y="480" type="curve"/>
      <point x="237" y="481"/>
      <point x="236" y="483"/>
      <point x="236" y="483" type="curve"/>
      <point x="243" y="489" type="line"/>
      <point x="244" y="488"/>
      <point x="244" y="487"/>
      <point x="244" y="485" type="curve" smooth="yes"/>
    </contour>
    <contour>
      <point x="518" y="198" type="line"/>
      <point x="518" y="198"/>
      <point x="518" y="199"/>
      <point x="518" y="200" type="curve" smooth="yes"/>
      <point x="518" y="202"/>
      <point x="519" y="205"/>
      <point x="519" y="208" type="curve"/>
      <point x="538" y="249"/>
      <point x="548" y="307"/>
      <point x="548" y="357" type="curve"/>
      <point x="544" y="413"/>
      <point x="528" y="458"/>
      <point x="499" y="505" type="curve" smooth="yes"/>
      <point x="490" y="519"/>
      <point x="474" y="544"/>
      <point x="465" y="564" type="curve"/>
      <point x="444" y="605"/>
      <point x="378" y="666"/>
      <point x="273" y="666" type="curve" smooth="yes"/>
      <point x="268" y="666"/>
      <point x="188" y="655"/>
      <point x="181" y="655" type="curve" smooth="yes"/>
      <point x="120" y="655"/>
      <point x="42" y="526"/>
      <point x="29" y="469" type="curve" smooth="yes"/>
      <point x="20" y="433"/>
      <point x="16" y="394"/>
      <point x="16" y="355" type="curve" smooth="yes"/>
      <point x="16" y="343"/>
      <point x="16" y="331"/>
      <point x="17" y="320" type="curve" smooth="yes"/>
      <point x="20" y="258"/>
      <point x="72" y="37"/>
      <point x="203" y="37" type="curve" smooth="yes"/>
      <point x="240" y="37"/>
      <point x="301" y="53"/>
      <point x="304" y="76" type="curve" smooth="yes"/>
      <point x="304" y="80"/>
      <point x="304" y="84"/>
      <point x="297" y="84" type="curve"/>
      <point x="306" y="88" type="line"/>
      <point x="297" y="94" type="line"/>
      <point x="307" y="101" type="line"/>
      <point x="304" y="104"/>
      <point x="302" y="106"/>
      <point x="298" y="107" type="curve" smooth="yes"/>
      <point x="295" y="107"/>
      <point x="254" y="77"/>
      <point x="211" y="77" type="curve" smooth="yes"/>
      <point x="183" y="77"/>
      <point x="120" y="156"/>
      <point x="118" y="175" type="curve" smooth="yes"/>
      <point x="118" y="177"/>
      <point x="121" y="178"/>
      <point x="121" y="181" type="curve"/>
      <point x="94" y="234"/>
      <point x="82" y="291"/>
      <point x="82" y="347" type="curve" smooth="yes"/>
      <point x="82" y="389"/>
      <point x="87" y="433"/>
      <point x="98" y="474" type="curve" smooth="yes"/>
      <point x="105" y="500"/>
      <point x="116" y="506"/>
      <point x="129" y="531" type="curve" smooth="yes"/>
      <point x="140" y="551"/>
      <point x="210" y="621"/>
      <point x="288" y="621" type="curve" smooth="yes"/>
      <point x="364" y="621"/>
      <point x="431" y="562"/>
      <point x="431" y="549" type="curve"/>
      <point x="429" y="546"/>
      <point x="428" y="541"/>
      <point x="428" y="537" type="curve" smooth="yes"/>
      <point x="428" y="499"/>
      <point x="458" y="481"/>
      <point x="461" y="481" type="curve" smooth="yes"/>
      <point x="473" y="481"/>
      <point x="477" y="423"/>
      <point x="481" y="407" type="curve"/>
      <point x="481" y="390"/>
      <point x="484" y="375"/>
      <point x="484" y="357" type="curve" smooth="yes"/>
      <point x="484" y="324"/>
      <point x="479" y="291"/>
      <point x="471" y="261" type="curve" smooth="yes"/>
      <point x="467" y="248"/>
      <point x="444" y="133"/>
      <point x="402" y="133" type="curve"/>
      <point x="385" y="136"/>
      <point x="381" y="158"/>
      <point x="381" y="179" type="curve" smooth="yes"/>
      <point x="381" y="213"/>
      <point x="384" y="228"/>
      <point x="384" y="250" type="curve" smooth="yes"/>
      <point x="384" y="265"/>
      <point x="383" y="279"/>
      <point x="383" y="294" type="curve" smooth="yes"/>
      <point x="383" y="337"/>
      <point x="393" y="354"/>
      <point x="393" y="419" type="curve" smooth="yes"/>
      <point x="393" y="479"/>
      <point x="367" y="437"/>
      <point x="357" y="459" type="curve" smooth="yes"/>
      <point x="335" y="505"/>
      <point x="315" y="515"/>
      <point x="273" y="515" type="curve" smooth="yes"/>
      <point x="224" y="515"/>
      <point x="183" y="446"/>
      <point x="169" y="382" type="curve"/>
      <point x="171" y="381"/>
      <point x="172" y="381"/>
      <point x="173" y="381" type="curve" smooth="yes"/>
      <point x="182" y="381"/>
      <point x="193" y="449"/>
      <point x="226" y="468" type="curve"/>
      <point x="212" y="432"/>
      <point x="194" y="405"/>
      <point x="185" y="364" type="curve"/>
      <point x="183" y="359"/>
      <point x="179" y="355"/>
      <point x="176" y="351" type="curve"/>
      <point x="175" y="353"/>
      <point x="174" y="355"/>
      <point x="173" y="358" type="curve" smooth="yes"/>
      <point x="173" y="361"/>
      <point x="174" y="364"/>
      <point x="174" y="368" type="curve" smooth="yes"/>
      <point x="174" y="371"/>
      <point x="172" y="374"/>
      <point x="168" y="376" type="curve"/>
      <point x="158" y="370"/>
      <point x="155" y="336"/>
      <point x="155" y="310" type="curve" smooth="yes"/>
      <point x="155" y="234"/>
      <point x="195" y="188"/>
      <point x="257" y="188" type="curve" smooth="yes"/>
      <point x="285" y="188"/>
      <point x="301" y="201"/>
      <point x="325" y="214" type="curve"/>
      <point x="327" y="188"/>
      <point x="339" y="97"/>
      <point x="397" y="92" type="curve"/>
      <point x="433" y="92"/>
      <point x="480" y="117"/>
      <point x="518" y="198" type="curve"/>
    </contour>
    <contour>
      <point x="80" y="538" type="line"/>
      <point x="75" y="515"/>
      <point x="62" y="499"/>
      <point x="57" y="485" type="curve" smooth="yes"/>
      <point x="42" y="441"/>
      <point x="33" y="389"/>
      <point x="33" y="338" type="curve" smooth="yes"/>
      <point x="33" y="309"/>
      <point x="43" y="280"/>
      <point x="43" y="254" type="curve"/>
      <point x="44" y="247" type="line" smooth="yes"/>
      <point x="45" y="239"/>
      <point x="50" y="234"/>
      <point x="52" y="229" type="curve"/>
      <point x="50" y="227"/>
      <point x="50" y="225"/>
      <point x="50" y="222" type="curve"/>
      <point x="33" y="264"/>
      <point x="28" y="309"/>
      <point x="28" y="351" type="curve" smooth="yes"/>
      <point x="28" y="415"/>
      <point x="43" y="468"/>
      <point x="66" y="519" type="curve"/>
      <point x="71" y="526"/>
      <point x="73" y="533"/>
      <point x="80" y="538" type="curve"/>
    </contour>
    <contour>
      <point x="120" y="530" type="line"/>
      <point x="116" y="520"/>
      <point x="106" y="511"/>
      <point x="102" y="502" type="curve" smooth="yes"/>
      <point x="84" y="458"/>
      <point x="79" y="425"/>
      <point x="79" y="384" type="curve" smooth="yes"/>
      <point x="79" y="360"/>
      <point x="80" y="333"/>
      <point x="83" y="301" type="curve" smooth="yes"/>
      <point x="86" y="263"/>
      <point x="99" y="231"/>
      <point x="111" y="190" type="curve"/>
      <point x="75" y="236"/>
      <point x="73" y="348"/>
      <point x="73" y="374" type="curve" smooth="yes"/>
      <point x="73" y="424"/>
      <point x="80" y="463"/>
      <point x="97" y="503" type="curve" smooth="yes"/>
      <point x="100" y="512"/>
      <point x="115" y="522"/>
      <point x="120" y="530" type="curve"/>
    </contour>
    <contour>
      <point x="539" y="388" type="line"/>
      <point x="542" y="382"/>
      <point x="540" y="378"/>
      <point x="542" y="373" type="curve"/>
      <point x="542" y="362" type="line"/>
      <point x="543" y="355"/>
      <point x="543" y="348"/>
      <point x="543" y="341" type="curve" smooth="yes"/>
      <point x="543" y="320"/>
      <point x="540" y="298"/>
      <point x="535" y="280" type="curve"/>
      <point x="535" y="300"/>
      <point x="540" y="321"/>
      <point x="540" y="344" type="curve" smooth="yes"/>
      <point x="540" y="358"/>
      <point x="539" y="373"/>
      <point x="539" y="388" type="curve"/>
    </contour>
    <contour>
      <point x="497" y="368" type="line"/>
      <point x="499" y="365"/>
      <point x="499" y="362"/>
      <point x="499" y="358" type="curve" smooth="yes"/>
      <point x="500" y="354" type="line"/>
      <point x="500" y="328"/>
      <point x="500" y="285"/>
      <point x="490" y="267" type="curve"/>
      <point x="491" y="301"/>
      <point x="495" y="334"/>
      <point x="497" y="368" type="curve"/>
    </contour>
    <contour>
      <point x="516" y="368" type="line"/>
      <point x="517" y="363"/>
      <point x="517" y="360"/>
      <point x="518" y="356" type="curve"/>
      <point x="518" y="347"/>
      <point x="518" y="338"/>
      <point x="515" y="329" type="curve" smooth="yes"/>
      <point x="517" y="334" type="line"/>
      <point x="516" y="338"/>
      <point x="516" y="342"/>
      <point x="516" y="346" type="curve" smooth="yes"/>
      <point x="516" y="351"/>
      <point x="516" y="355"/>
      <point x="516" y="360" type="curve" smooth="yes"/>
      <point x="516" y="363"/>
      <point x="516" y="365"/>
      <point x="516" y="368" type="curve" smooth="yes"/>
    </contour>
  </outline>
</glyph>
<glyph name="A" format="1">
  <advance width="447"/>
  <unicode hex="0041"/>
  <outline>
    <contour>
      <point x="180" y="669" type="line"/>
      <point x="170" y="659"/>
      <point x="165" y="647"/>
      <point x="161" y="633" type="curve" smooth="yes"/>
      <point x="136" y="549"/>
      <point x="115" y="463"/>
      <point x="96" y="373" type="curve"/>
      <point x="63" y="366"/>
      <point x="9" y="360"/>
      <point x="9" y="329" type="curve" smooth="yes"/>
      <point x="9" y="316"/>
      <point x="29" y="310"/>
      <point x="39" y="310" type="curve" smooth="yes"/>
      <point x="52" y="310"/>
      <point x="71" y="315"/>
      <point x="88" y="317" type="curve"/>
      <point x="88" y="286"/>
      <point x="78" y="229"/>
      <point x="75" y="199" type="curve" smooth="yes"/>
      <point x="67" y="136"/>
      <point x="57" y="74"/>
      <point x="57" y="11" type="curve" smooth="yes"/>
      <point x="57" y="0"/>
      <point x="57" y="-22"/>
      <point x="71" y="-25" type="curve"/>
      <point x="75" y="-25"/>
      <point x="77" y="-20"/>
      <point x="81" y="-18" type="curve"/>
      <point x="84" y="-19"/>
      <point x="87" y="-21"/>
      <point x="90" y="-21" type="curve" smooth="yes"/>
      <point x="98" y="-21"/>
      <point x="104" y="1"/>
      <point x="107" y="10" type="curve"/>
      <point x="114" y="2" type="line"/>
      <point x="122" y="25"/>
      <point x="122" y="78"/>
      <point x="125" y="109" type="curve"/>
      <point x="122" y="109"/>
      <point x="119" y="110"/>
      <point x="117" y="110" type="curve"/>
      <point x="120" y="113"/>
      <point x="124" y="116"/>
      <point x="127" y="120" type="curve"/>
      <point x="123" y="127" type="line"/>
      <point x="116" y="122" type="line"/>
      <point x="118" y="130"/>
      <point x="119" y="138"/>
      <point x="120" y="145" type="curve"/>
      <point x="125" y="144"/>
      <point x="130" y="142"/>
      <point x="135" y="140" type="curve"/>
      <point x="135" y="147"/>
      <point x="134" y="153"/>
      <point x="132" y="160" type="curve"/>
      <point x="152" y="200"/>
      <point x="149" y="298"/>
      <point x="165" y="321" type="curve" smooth="yes"/>
      <point x="171" y="331"/>
      <point x="219" y="332"/>
      <point x="245" y="340" type="curve"/>
      <point x="262" y="296"/>
      <point x="270" y="253"/>
      <point x="287" y="213" type="curve" smooth="yes"/>
      <point x="301" y="179"/>
      <point x="316" y="115"/>
      <point x="342" y="89" type="curve"/>
      <point x="344" y="96"/>
      <point x="345" y="104"/>
      <point x="346" y="112" type="curve"/>
      <point x="351" y="112"/>
      <point x="356" y="92"/>
      <point x="363" y="83" type="curve"/>
      <point x="374" y="94"/>
      <point x="368" y="105"/>
      <point x="373" y="118" type="curve"/>
      <point x="376" y="113"/>
      <point x="379" y="108"/>
      <point x="381" y="102" type="curve"/>
      <point x="386" y="106"/>
      <point x="392" y="107"/>
      <point x="392" y="113" type="curve" smooth="yes"/>
      <point x="392" y="129"/>
      <point x="381" y="149"/>
      <point x="377" y="167" type="curve"/>
      <point x="390" y="147"/>
      <point x="393" y="118"/>
      <point x="403" y="95" type="curve"/>
      <point x="403" y="105" type="line" smooth="yes"/>
      <point x="403" y="133"/>
      <point x="392" y="158"/>
      <point x="388" y="185" type="curve"/>
      <point x="397" y="173" type="line"/>
      <point x="390" y="237"/>
      <point x="350" y="301"/>
      <point x="340" y="364" type="curve"/>
      <point x="372" y="370"/>
      <point x="435" y="384"/>
      <point x="435" y="412" type="curve"/>
      <point x="431" y="424"/>
      <point x="411" y="425"/>
      <point x="398" y="425" type="curve" smooth="yes"/>
      <point x="390" y="425" type="line" smooth="yes"/>
      <point x="363" y="425"/>
      <point x="338" y="420"/>
      <point x="313" y="416" type="curve"/>
      <point x="300" y="456"/>
      <point x="285" y="502"/>
      <point x="268" y="548" type="curve" smooth="yes"/>
      <point x="259" y="571"/>
      <point x="257" y="594"/>
      <point x="244" y="617" type="curve"/>
      <point x="244" y="622" type="line" smooth="yes"/>
      <point x="244" y="644"/>
      <point x="233" y="652"/>
      <point x="216" y="664" type="curve"/>
      <point x="208" y="658" type="line"/>
      <point x="206" y="662"/>
      <point x="203" y="665"/>
      <point x="200" y="669" type="curve"/>
      <point x="194" y="662"/>
      <point x="191" y="656"/>
      <point x="188" y="648" type="curve"/>
      <point x="186" y="655"/>
      <point x="183" y="662"/>
      <point x="180" y="669" type="curve"/>
    </contour>
    <contour>
      <point x="175" y="625" type="line"/>
      <point x="176" y="622"/>
      <point x="176" y="620"/>
      <point x="176" y="617" type="curve" smooth="yes"/>
      <point x="176" y="612"/>
      <point x="175" y="607"/>
      <point x="174" y="603" type="curve" smooth="yes"/>
      <point x="164" y="566"/>
      <point x="151" y="528"/>
      <point x="144" y="491" type="curve" smooth="yes"/>
      <point x="139" y="467"/>
      <point x="126" y="383"/>
      <point x="115" y="377" type="curve"/>
      <point x="120" y="407"/>
      <point x="126" y="437"/>
      <point x="132" y="466" type="curve" smooth="yes"/>
      <point x="142" y="511"/>
      <point x="153" y="575"/>
      <point x="175" y="625" type="curve"/>
    </contour>
    <contour>
      <point x="195" y="533" type="line"/>
      <point x="194" y="518"/>
      <point x="192" y="505"/>
      <point x="188" y="491" type="curve" smooth="yes"/>
      <point x="179" y="456"/>
      <point x="175" y="413"/>
      <point x="164" y="386" type="curve"/>
      <point x="166" y="421"/>
      <point x="178" y="494"/>
      <point x="195" y="533" type="curve"/>
    </contour>
    <contour>
      <point x="201" y="514" type="line"/>
      <point x="196" y="494"/>
      <point x="184" y="419"/>
      <point x="175" y="388" type="curve"/>
      <point x="175" y="415"/>
      <point x="187" y="482"/>
      <point x="201" y="514" type="curve"/>
    </contour>
    <contour>
      <point x="204" y="492" type="line"/>
      <point x="213" y="463"/>
      <point x="217" y="426"/>
      <point x="231" y="402" type="curve"/>
      <point x="216" y="395"/>
      <point x="200" y="394"/>
      <point x="183" y="391" type="curve"/>
      <point x="186" y="423"/>
      <point x="192" y="465"/>
      <point x="204" y="492" type="curve"/>
    </contour>
    <contour>
      <point x="118" y="173" type="line"/>
      <point x="120" y="172"/>
      <point x="121" y="171"/>
      <point x="121" y="169" type="curve" smooth="yes"/>
      <point x="121" y="168"/>
      <point x="120" y="167"/>
      <point x="118" y="167" type="curve" smooth="yes"/>
      <point x="116" y="167"/>
      <point x="115" y="168"/>
      <point x="115" y="169" type="curve" smooth="yes"/>
      <point x="115" y="171"/>
      <point x="116" y="172"/>
      <point x="118" y="173" type="curve"/>
    </contour>
  </outline>
</glyph>
<glyph name="B" format="1">
  <advance width="471"/>
  <unicode hex="0042"/>
  <outline>
    <contour>
      <point x="122" y="689" type="line"/>
      <point x="97" y="687"/>
      <point x="73" y="676"/>
      <point x="53" y="663" type="curve"/>
      <point x="43" y="669" type="line"/>
      <point x="35" y="661"/>
      <point x="34" y="652"/>
      <point x="30" y="642" type="curve"/>
      <point x="23" y="630"/>
      <point x="11" y="621"/>
      <point x="11" y="605" type="curve" smooth="yes"/>
      <point x="11" y="599"/>
      <point x="14" y="594"/>
      <point x="18" y="590" type="curve"/>
      <point x="22" y="601"/>
      <point x="25" y="612"/>
      <point x="32" y="622" type="curve"/>
      <point x="32" y="616" type="line" smooth="yes"/>
      <point x="32" y="608"/>
      <point x="29" y="601"/>
      <point x="26" y="594" type="curve"/>
      <point x="39" y="572"/>
      <point x="40" y="535"/>
      <point x="40" y="500" type="curve" smooth="yes"/>
      <point x="40" y="486" type="line" smooth="yes"/>
      <point x="40" y="474"/>
      <point x="40" y="464"/>
      <point x="41" y="454" type="curve" smooth="yes"/>
      <point x="48" y="354"/>
      <point x="56" y="255"/>
      <point x="60" y="155" type="curve" smooth="yes"/>
      <point x="61" y="123"/>
      <point x="69" y="90"/>
      <point x="69" y="59" type="curve" smooth="yes"/>
      <point x="69" y="51"/>
      <point x="68" y="42"/>
      <point x="68" y="33" type="curve" smooth="yes"/>
      <point x="68" y="13"/>
      <point x="110" y="8"/>
      <point x="133" y="8" type="curve" smooth="yes"/>
      <point x="175" y="8"/>
      <point x="216" y="13"/>
      <point x="257" y="27" type="curve" smooth="yes"/>
      <point x="372" y="68"/>
      <point x="458" y="131"/>
      <point x="458" y="240" type="curve" smooth="yes"/>
      <point x="458" y="352"/>
      <point x="356" y="410"/>
      <point x="271" y="441" type="curve"/>
      <point x="274" y="444" type="line" smooth="yes"/>
      <point x="303" y="476"/>
      <point x="339" y="516"/>
      <point x="339" y="566" type="curve" smooth="yes"/>
      <point x="339" y="658"/>
      <point x="218" y="690"/>
      <point x="145" y="690" type="curve" smooth="yes"/>
      <point x="137" y="690"/>
      <point x="129" y="689"/>
      <point x="122" y="689" type="curve" smooth="yes"/>
    </contour>
    <contour>
      <point x="159" y="643" type="line"/>
      <point x="212" y="643"/>
      <point x="241" y="611"/>
      <point x="241" y="568" type="curve" smooth="yes"/>
      <point x="241" y="499"/>
      <point x="174" y="446"/>
      <point x="117" y="416" type="curve"/>
      <point x="110" y="480"/>
      <point x="111" y="555"/>
      <point x="95" y="615" type="curve"/>
      <point x="111" y="633"/>
      <point x="135" y="642"/>
      <point x="159" y="643" type="curve"/>
    </contour>
    <contour>
      <point x="331" y="551" type="line"/>
      <point x="332" y="549"/>
      <point x="332" y="548"/>
      <point x="332" y="546" type="curve" smooth="yes"/>
      <point x="332" y="536"/>
      <point x="318" y="515"/>
      <point x="317" y="515" type="curve" smooth="yes"/>
      <point x="315" y="515"/>
      <point x="310" y="514"/>
      <point x="309" y="514" type="curve"/>
      <point x="312" y="526"/>
      <point x="325" y="544"/>
      <point x="331" y="555" type="curve"/>
    </contour>
    <contour>
      <point x="262" y="545" type="line"/>
      <point x="262" y="532"/>
      <point x="258" y="520"/>
      <point x="248" y="510" type="curve"/>
      <point x="251" y="524"/>
      <point x="256" y="537"/>
      <point x="262" y="550" type="curve"/>
    </contour>
    <contour>
      <point x="61" y="423" type="line"/>
      <point x="69" y="312"/>
      <point x="88" y="187"/>
      <point x="88" y="68" type="curve" smooth="yes"/>
      <point x="88" y="61" type="line"/>
      <point x="74" y="91"/>
      <point x="73" y="156"/>
      <point x="73" y="200" type="curve" smooth="yes"/>
      <point x="73" y="214" type="line" smooth="yes"/>
      <point x="73" y="226"/>
      <point x="71" y="238"/>
      <point x="71" y="251" type="curve" smooth="yes"/>
      <point x="71" y="256" type="line" smooth="yes"/>
      <point x="71" y="312"/>
      <point x="61" y="367"/>
      <point x="61" y="423" type="curve"/>
    </contour>
    <contour>
      <point x="231" y="387" type="line"/>
      <point x="291" y="378"/>
      <point x="329" y="271"/>
      <point x="329" y="212" type="curve" smooth="yes"/>
      <point x="329" y="138"/>
      <point x="225" y="80"/>
      <point x="149" y="69" type="curve"/>
      <point x="148" y="81"/>
      <point x="148" y="94"/>
      <point x="148" y="106" type="curve" smooth="yes"/>
      <point x="148" y="182"/>
      <point x="139" y="267"/>
      <point x="130" y="347" type="curve" smooth="yes"/>
      <point x="130" y="351" type="line" smooth="yes"/>
      <point x="130" y="366"/>
      <point x="139" y="368"/>
      <point x="149" y="368" type="curve" smooth="yes"/>
      <point x="167" y="368" type="line"/>
      <point x="186" y="370"/>
      <point x="200" y="388"/>
      <point x="222" y="388" type="curve" smooth="yes"/>
      <point x="225" y="388"/>
      <point x="228" y="388"/>
      <point x="231" y="387" type="curve" smooth="yes"/>
    </contour>
    <contour>
      <point x="111" y="373" type="line"/>
      <point x="120" y="280"/>
      <point x="133" y="186"/>
      <point x="133" y="91" type="curve" smooth="yes"/>
      <point x="133" y="84"/>
      <point x="132" y="78"/>
      <point x="132" y="72" type="curve"/>
      <point x="129" y="83"/>
      <point x="129" y="94"/>
      <point x="129" y="105" type="curve" smooth="yes"/>
      <point x="129" y="122" type="line"/>
      <point x="120" y="184"/>
      <point x="118" y="255"/>
      <point x="113" y="320" type="curve" smooth="yes"/>
      <point x="112" y="336"/>
      <point x="111" y="352"/>
      <point x="111" y="368" type="curve" smooth="yes"/>
    </contour>
    <contour>
      <point x="123" y="362" type="line"/>
      <point x="127" y="350"/>
      <point x="128" y="337"/>
      <point x="129" y="324" type="curve" smooth="yes"/>
      <point x="135" y="244"/>
      <point x="144" y="163"/>
      <point x="144" y="88" type="curve" smooth="yes"/>
      <point x="144" y="82"/>
      <point x="144" y="75"/>
      <point x="143" y="69" type="curve"/>
      <point x="140" y="82"/>
      <point x="139" y="95"/>
      <point x="139" y="108" type="curve" smooth="yes"/>
      <point x="136" y="190"/>
      <point x="123" y="274"/>
      <point x="123" y="355" type="curve" smooth="yes"/>
    </contour>
    <contour>
      <point x="444" y="268" type="line"/>
      <point x="448" y="257"/>
      <point x="449" y="245"/>
      <point x="449" y="233" type="curve" smooth="yes"/>
      <point x="449" y="219"/>
      <point x="448" y="207"/>
      <point x="444" y="194" type="curve"/>
      <point x="444" y="211"/>
      <point x="443" y="227"/>
      <point x="443" y="244" type="curve" smooth="yes"/>
      <point x="443" y="252"/>
      <point x="443" y="260"/>
      <point x="444" y="268" type="curve"/>
    </contour>
    <contour>
      <point x="429" y="250" type="line"/>
      <point x="431" y="244"/>
      <point x="432" y="240"/>
      <point x="432" y="235" type="curve" smooth="yes"/>
      <point x="432" y="230"/>
      <point x="431" y="225"/>
      <point x="429" y="220" type="curve"/>
      <point x="428" y="225"/>
      <point x="428" y="230"/>
      <point x="428" y="235" type="curve" smooth="yes"/>
      <point x="428" y="240"/>
      <point x="428" y="245"/>
      <point x="429" y="250" type="curve"/>
    </contour>
    <contour>
      <point x="106" y="238" type="line"/>
      <point x="107" y="222"/>
      <point x="107" y="206"/>
      <point x="107" y="190" type="curve" smooth="yes"/>
      <point x="107" y="143" type="line" smooth="yes"/>
      <point x="107" y="137"/>
      <point x="107" y="131"/>
      <point x="106" y="126" type="curve"/>
      <point x="102" y="162"/>
      <point x="100" y="199"/>
      <point x="99" y="235" type="curve"/>
    </contour>
    <contour>
      <point x="357" y="235" type="line"/>
      <point x="359" y="226"/>
      <point x="362" y="216"/>
      <point x="362" y="207" type="curve" smooth="yes"/>
      <point x="362" y="201"/>
      <point x="359" y="197"/>
      <point x="356" y="192" type="curve"/>
      <point x="356" y="206"/>
      <point x="357" y="221"/>
      <point x="357" y="235" type="curve"/>
    </contour>
    <contour>
      <point x="108" y="126" type="line"/>
      <point x="109" y="119"/>
      <point x="110" y="113"/>
      <point x="110" y="107" type="curve" smooth="yes"/>
      <point x="110" y="102"/>
      <point x="109" y="97"/>
      <point x="109" y="93" type="curve"/>
      <point x="107" y="99"/>
      <point x="106" y="105"/>
      <point x="106" y="111" type="curve" smooth="yes"/>
      <point x="106" y="116"/>
      <point x="107" y="121"/>
      <point x="108" y="126" type="curve"/>
    </contour>
    <contour>
      <point x="110" y="93" type="line"/>
      <point x="111" y="83"/>
      <point x="111" y="75"/>
      <point x="111" y="66" type="curve"/>
      <point x="110" y="71"/>
      <point x="109" y="77"/>
      <point x="109" y="82" type="curve" smooth="yes"/>
      <point x="109" y="86"/>
      <point x="109" y="89"/>
      <point x="110" y="93" type="curve"/>
    </contour>
  </outline>
</glyph>
<glyph name="C" format="1">
  <advance width="311"/>
  <unicode hex="0043"/>
  <outline>
    <contour>
      <point x="138" y="680" type="line"/>
      <point x="69" y="680"/>
      <point x="12" y="493"/>
      <point x="12" y="254" type="curve" smooth="yes"/>
      <point x="12" y="233" type="line" smooth="yes"/>
      <point x="12" y="204"/>
      <point x="18" y="17"/>
      <point x="144" y="17" type="curve" smooth="yes"/>
      <point x="146" y="17"/>
      <point x="149" y="17"/>
      <point x="151" y="18" type="curve"/>
      <point x="279" y="40"/>
      <point x="281" y="163"/>
      <point x="294" y="230" type="curve"/>
      <point x="294" y="231"/>
      <point x="295" y="232"/>
      <point x="295" y="233" type="curve" smooth="yes"/>
      <point x="299" y="254"/>
      <point x="302" y="274"/>
      <point x="302" y="295" type="curve" smooth="yes"/>
      <point x="302" y="303"/>
      <point x="301" y="310"/>
      <point x="299" y="317" type="curve"/>
      <point x="297" y="272"/>
      <point x="291" y="220"/>
      <point x="279" y="178" type="curve"/>
      <point x="279" y="218"/>
      <point x="292" y="257"/>
      <point x="292" y="297" type="curve" smooth="yes"/>
      <point x="292" y="310"/>
      <point x="290" y="320"/>
      <point x="287" y="331" type="curve"/>
      <point x="283" y="318"/>
      <point x="285" y="305"/>
      <point x="282" y="292" type="curve"/>
      <point x="280" y="307"/>
      <point x="286" y="324"/>
      <point x="265" y="332" type="curve"/>
      <point x="257" y="309" type="line"/>
      <point x="256" y="318"/>
      <point x="255" y="326"/>
      <point x="250" y="333" type="curve"/>
      <point x="221" y="293"/>
      <point x="228" y="204"/>
      <point x="204" y="145" type="curve"/>
      <point x="204" y="187"/>
      <point x="223" y="233"/>
      <point x="223" y="272" type="curve" smooth="yes"/>
      <point x="223" y="277"/>
      <point x="222" y="282"/>
      <point x="221" y="288" type="curve"/>
      <point x="227" y="294"/>
      <point x="230" y="295"/>
      <point x="230" y="305" type="curve" smooth="yes"/>
      <point x="230" y="312"/>
      <point x="228" y="320"/>
      <point x="227" y="326" type="curve"/>
      <point x="200" y="294"/>
      <point x="198" y="236"/>
      <point x="189" y="192" type="curve" smooth="yes"/>
      <point x="189" y="190"/>
      <point x="188" y="187"/>
      <point x="188" y="185" type="curve" smooth="yes"/>
      <point x="181" y="150"/>
      <point x="169" y="93"/>
      <point x="152" y="85" type="curve"/>
      <point x="98" y="122"/>
      <point x="90" y="205"/>
      <point x="90" y="272" type="curve" smooth="yes"/>
      <point x="90" y="287" type="line" smooth="yes"/>
      <point x="90" y="318"/>
      <point x="92" y="349"/>
      <point x="92" y="380" type="curve" smooth="yes"/>
      <point x="92" y="447"/>
      <point x="117" y="523"/>
      <point x="117" y="577" type="curve"/>
      <point x="114" y="583" type="line"/>
      <point x="101" y="554"/>
      <point x="104" y="523"/>
      <point x="95" y="493" type="curve"/>
      <point x="95" y="519"/>
      <point x="102" y="584"/>
      <point x="130" y="621" type="curve"/>
      <point x="126" y="609"/>
      <point x="121" y="597"/>
      <point x="117" y="584" type="curve"/>
      <point x="122" y="590"/>
      <point x="127" y="595"/>
      <point x="131" y="601" type="curve"/>
      <point x="128" y="583"/>
      <point x="120" y="569"/>
      <point x="119" y="551" type="curve"/>
      <point x="130" y="581"/>
      <point x="135" y="607"/>
      <point x="155" y="632" type="curve"/>
      <point x="172" y="599"/>
      <point x="173" y="568"/>
      <point x="177" y="534" type="curve" smooth="yes"/>
      <point x="180" y="508"/>
      <point x="179" y="473"/>
      <point x="194" y="454" type="curve"/>
      <point x="195" y="466"/>
      <point x="197" y="477"/>
      <point x="200" y="488" type="curve"/>
      <point x="203" y="472"/>
      <point x="196" y="461"/>
      <point x="215" y="447" type="curve"/>
      <point x="223" y="469"/>
      <point x="217" y="490"/>
      <point x="224" y="511" type="curve"/>
      <point x="225" y="504"/>
      <point x="226" y="496"/>
      <point x="226" y="489" type="curve" smooth="yes"/>
      <point x="226" y="475" type="line" smooth="yes"/>
      <point x="226" y="468"/>
      <point x="226" y="462"/>
      <point x="227" y="456" type="curve"/>
      <point x="233" y="460"/>
      <point x="237" y="463"/>
      <point x="240" y="469" type="curve"/>
      <point x="241" y="469"/>
      <point x="242" y="468"/>
      <point x="242" y="467" type="curve" smooth="yes"/>
      <point x="243" y="478"/>
      <point x="244" y="489"/>
      <point x="247" y="500" type="curve"/>
      <point x="247" y="496"/>
      <point x="248" y="492"/>
      <point x="248" y="487" type="curve" smooth="yes"/>
      <point x="248" y="478"/>
      <point x="247" y="469"/>
      <point x="247" y="459" type="curve" smooth="yes"/>
      <point x="247" y="452" type="line"/>
      <point x="255" y="468"/>
      <point x="255" y="489"/>
      <point x="255" y="508" type="curve" smooth="yes"/>
      <point x="255" y="513" type="line" smooth="yes"/>
      <point x="255" y="550"/>
      <point x="250" y="600"/>
      <point x="233" y="639" type="curve" smooth="yes"/>
      <point x="219" y="671"/>
      <point x="173" y="680"/>
      <point x="138" y="680" type="curve" smooth="yes"/>
    </contour>
    <contour>
      <point x="98" y="636" type="line"/>
      <point x="95" y="621"/>
      <point x="87" y="609"/>
      <point x="82" y="595" type="curve" smooth="yes"/>
      <point x="53" y="521"/>
      <point x="35" y="382"/>
      <point x="35" y="258" type="curve" smooth="yes"/>
      <point x="35" y="254" type="line" smooth="yes"/>
      <point x="35" y="248"/>
      <point x="34" y="242"/>
      <point x="34" y="236" type="curve" smooth="yes"/>
      <point x="34" y="226"/>
      <point x="39" y="218"/>
      <point x="39" y="207" type="curve" smooth="yes"/>
      <point x="39" y="200"/>
      <point x="38" y="193"/>
      <point x="38" y="185" type="curve" smooth="yes"/>
      <point x="38" y="169"/>
      <point x="41" y="152"/>
      <point x="47" y="136" type="curve"/>
      <point x="35" y="142"/>
      <point x="30" y="181"/>
      <point x="30" y="198" type="curve" smooth="yes"/>
      <point x="30" y="206"/>
      <point x="31" y="214"/>
      <point x="31" y="222" type="curve" smooth="yes"/>
      <point x="31" y="265" type="line" smooth="yes"/>
      <point x="31" y="288"/>
      <point x="34" y="312"/>
      <point x="34" y="336" type="curve" smooth="yes"/>
      <point x="34" y="346"/>
      <point x="33" y="355"/>
      <point x="33" y="365" type="curve" smooth="yes"/>
      <point x="34" y="412"/>
      <point x="44" y="463"/>
      <point x="51" y="511" type="curve" smooth="yes"/>
      <point x="56" y="548"/>
      <point x="67" y="605"/>
      <point x="98" y="636" type="curve"/>
    </contour>
    <contour>
      <point x="106" y="616" type="line"/>
      <point x="84" y="554"/>
      <point x="74" y="489"/>
      <point x="66" y="424" type="curve" smooth="yes"/>
      <point x="64" y="403"/>
      <point x="65" y="383"/>
      <point x="60" y="363" type="curve"/>
      <point x="59" y="368"/>
      <point x="59" y="374"/>
      <point x="59" y="380" type="curve" smooth="yes"/>
      <point x="59" y="416"/>
      <point x="66" y="456"/>
      <point x="73" y="495" type="curve" smooth="yes"/>
      <point x="73" y="498"/>
      <point x="74" y="500"/>
      <point x="74" y="503" type="curve" smooth="yes"/>
      <point x="80" y="540"/>
      <point x="86" y="596"/>
      <point x="106" y="616" type="curve"/>
    </contour>
    <contour>
      <point x="118" y="549" type="line"/>
      <point x="95" y="485"/>
      <point x="94" y="372"/>
      <point x="94" y="315" type="curve" smooth="yes"/>
      <point x="94" y="256"/>
      <point x="97" y="185"/>
      <point x="113" y="156" type="curve"/>
      <point x="109" y="201"/>
      <point x="99" y="244"/>
      <point x="99" y="288" type="curve" smooth="yes"/>
      <point x="99" y="352"/>
      <point x="103" y="414"/>
      <point x="108" y="478" type="curve" smooth="yes"/>
      <point x="110" y="502"/>
      <point x="116" y="525"/>
      <point x="118" y="549" type="curve"/>
    </contour>
    <contour>
      <point x="94" y="487" type="line"/>
      <point x="94" y="444"/>
      <point x="86" y="398"/>
      <point x="83" y="354" type="curve"/>
      <point x="83" y="327"/>
      <point x="81" y="299"/>
      <point x="81" y="269" type="curve" smooth="yes"/>
      <point x="81" y="229"/>
      <point x="84" y="187"/>
      <point x="100" y="144" type="curve"/>
      <point x="93" y="144"/>
      <point x="83" y="177"/>
      <point x="83" y="187" type="curve" smooth="yes"/>
      <point x="83" y="191"/>
      <point x="84" y="195"/>
      <point x="85" y="199" type="curve"/>
      <point x="85" y="231"/>
      <point x="80" y="265"/>
      <point x="80" y="297" type="curve" smooth="yes"/>
      <point x="80" y="358"/>
      <point x="92" y="426"/>
      <point x="92" y="488" type="curve" smooth="yes"/>
      <point x="92" y="490"/>
      <point x="93" y="491"/>
      <point x="94" y="493" type="curve"/>
    </contour>
    <contour>
      <point x="59" y="331" type="line"/>
      <point x="59" y="314"/>
      <point x="60" y="298"/>
      <point x="60" y="281" type="curve" smooth="yes"/>
      <point x="60" y="264"/>
      <point x="59" y="247"/>
      <point x="59" y="231" type="curve"/>
      <point x="57" y="241"/>
      <point x="57" y="251"/>
      <point x="57" y="261" type="curve" smooth="yes"/>
      <point x="57" y="301" type="line" smooth="yes"/>
      <point x="57" y="311"/>
      <point x="57" y="321"/>
      <point x="59" y="331" type="curve"/>
    </contour>
    <contour>
      <point x="220" y="278" type="line"/>
      <point x="220" y="276"/>
      <point x="219" y="275"/>
      <point x="217" y="275" type="curve" smooth="yes"/>
      <point x="215" y="275"/>
      <point x="214" y="276"/>
      <point x="214" y="277" type="curve" smooth="yes"/>
      <point x="214" y="279"/>
      <point x="214" y="281"/>
      <point x="217" y="281" type="curve"/>
    </contour>
    <contour>
      <point x="60" y="230" type="line"/>
      <point x="69" y="209"/>
      <point x="62" y="181"/>
      <point x="76" y="153" type="curve"/>
      <point x="73" y="141" type="line"/>
      <point x="65" y="162"/>
      <point x="57" y="186"/>
      <point x="57" y="209" type="curve" smooth="yes"/>
      <point x="57" y="216"/>
      <point x="58" y="223"/>
      <point x="60" y="230" type="curve"/>
    </contour>
    <contour>
      <point x="79" y="201" type="line"/>
      <point x="75" y="195" type="line"/>
      <point x="73" y="204" type="line"/>
    </contour>
  </outline>
</glyph>
<glyph name="D" format="1">
  <advance width="296"/>
  <unicode hex="0044"/>
  <outline>
    <contour>
      <point x="30" y="686" type="line"/>
      <point x="22" y="686"/>
      <point x="14" y="681"/>
      <point x="11" y="674" type="curve"/>
      <point x="11" y="664"/>
      <point x="13" y="655"/>
      <point x="13" y="645" type="curve" smooth="yes"/>
      <point x="13" y="635" type="line" smooth="yes"/>
      <point x="13" y="615"/>
      <point x="11" y="594"/>
      <point x="11" y="575" type="curve" smooth="yes"/>
      <point x="11" y="518" type="line" smooth="yes"/>
      <point x="11" y="499"/>
      <point x="10" y="480"/>
      <point x="10" y="462" type="curve" smooth="yes"/>
      <point x="10" y="424" type="line" smooth="yes"/>
      <point x="10" y="351"/>
      <point x="5" y="278"/>
      <point x="5" y="207" type="curve" smooth="yes"/>
      <point x="5" y="183" type="line" smooth="yes"/>
      <point x="5" y="152"/>
      <point x="6" y="123"/>
      <point x="12" y="89" type="curve" smooth="yes"/>
      <point x="16" y="68"/>
      <point x="12" y="43"/>
      <point x="28" y="28" type="curve"/>
      <point x="33" y="42" type="line"/>
      <point x="40" y="22" type="line"/>
      <point x="67" y="25"/>
      <point x="95" y="33"/>
      <point x="121" y="41" type="curve" smooth="yes"/>
      <point x="247" y="81"/>
      <point x="285" y="202"/>
      <point x="285" y="299" type="curve" smooth="yes"/>
      <point x="285" y="308"/>
      <point x="285" y="316"/>
      <point x="284" y="325" type="curve"/>
      <point x="281" y="321"/>
      <point x="280" y="315"/>
      <point x="280" y="310" type="curve" smooth="yes"/>
      <point x="280" y="287" type="line" smooth="yes"/>
      <point x="280" y="250"/>
      <point x="274" y="195"/>
      <point x="249" y="157" type="curve"/>
      <point x="264" y="207"/>
      <point x="277" y="257"/>
      <point x="277" y="309" type="curve" smooth="yes"/>
      <point x="277" y="323"/>
      <point x="275" y="338"/>
      <point x="275" y="352" type="curve" smooth="yes"/>
      <point x="275" y="360"/>
      <point x="276" y="368"/>
      <point x="276" y="376" type="curve" smooth="yes"/>
      <point x="276" y="380" type="line" smooth="yes"/>
      <point x="276" y="413"/>
      <point x="263" y="450"/>
      <point x="256" y="483" type="curve" smooth="yes"/>
      <point x="232" y="594"/>
      <point x="145" y="677"/>
      <point x="30" y="686" type="curve"/>
    </contour>
    <contour>
      <point x="82" y="628" type="line"/>
      <point x="103" y="616"/>
      <point x="121" y="590"/>
      <point x="135" y="569" type="curve" smooth="yes"/>
      <point x="138" y="565" type="line" smooth="yes"/>
      <point x="177" y="505"/>
      <point x="194" y="386"/>
      <point x="194" y="303" type="curve" smooth="yes"/>
      <point x="194" y="211"/>
      <point x="172" y="137"/>
      <point x="99" y="95" type="curve"/>
      <point x="100" y="119"/>
      <point x="101" y="144"/>
      <point x="101" y="168" type="curve" smooth="yes"/>
      <point x="101" y="200"/>
      <point x="100" y="232"/>
      <point x="100" y="265" type="curve" smooth="yes"/>
      <point x="100" y="271"/>
      <point x="100" y="277"/>
      <point x="98" y="283" type="curve"/>
      <point x="96" y="277"/>
      <point x="95" y="271"/>
      <point x="95" y="265" type="curve" smooth="yes"/>
      <point x="95" y="250"/>
      <point x="98" y="206"/>
      <point x="98" y="165" type="curve" smooth="yes"/>
      <point x="98" y="134"/>
      <point x="96" y="104"/>
      <point x="90" y="88" type="curve"/>
      <point x="89" y="91"/>
      <point x="89" y="95"/>
      <point x="89" y="99" type="curve" smooth="yes"/>
      <point x="89" y="113"/>
      <point x="92" y="126"/>
      <point x="92" y="141" type="curve" smooth="yes"/>
      <point x="92" y="150"/>
      <point x="91" y="159"/>
      <point x="91" y="167" type="curve" smooth="yes"/>
      <point x="91" y="221"/>
      <point x="92" y="274"/>
      <point x="92" y="328" type="curve" smooth="yes"/>
      <point x="92" y="355"/>
      <point x="90" y="381"/>
      <point x="90" y="408" type="curve" smooth="yes"/>
      <point x="90" y="431" type="line" smooth="yes"/>
      <point x="90" y="452"/>
      <point x="86" y="541"/>
      <point x="82" y="628" type="curve"/>
    </contour>
    <contour>
      <point x="97" y="384" type="line"/>
      <point x="94" y="378"/>
      <point x="94" y="365"/>
      <point x="94" y="352" type="curve" smooth="yes"/>
      <point x="94" y="334"/>
      <point x="95" y="314"/>
      <point x="95" y="305" type="curve" smooth="yes"/>
      <point x="95" y="298"/>
      <point x="95" y="291"/>
      <point x="98" y="284" type="curve"/>
      <point x="100" y="292"/>
      <point x="100" y="301"/>
      <point x="100" y="310" type="curve" smooth="yes"/>
      <point x="100" y="328" type="line" smooth="yes"/>
      <point x="100" y="346"/>
      <point x="100" y="366"/>
      <point x="97" y="384" type="curve"/>
    </contour>
    <contour>
      <point x="281" y="344" type="line"/>
      <point x="281" y="338"/>
      <point x="280" y="332"/>
      <point x="280" y="326" type="curve"/>
      <point x="286" y="327" type="line"/>
      <point x="285" y="333"/>
      <point x="283" y="338"/>
      <point x="281" y="344" type="curve"/>
    </contour>
    <contour>
      <point x="264" y="298" type="line"/>
      <point x="266" y="290"/>
      <point x="266" y="282"/>
      <point x="266" y="274" type="curve" smooth="yes"/>
      <point x="266" y="244"/>
      <point x="262" y="206"/>
      <point x="244" y="175" type="curve"/>
      <point x="254" y="208"/>
      <point x="264" y="243"/>
      <point x="264" y="279" type="curve" smooth="yes"/>
    </contour>
    <contour>
      <point x="212" y="284" type="line"/>
      <point x="212" y="272"/>
      <point x="214" y="260"/>
      <point x="214" y="247" type="curve" smooth="yes"/>
      <point x="214" y="220"/>
      <point x="208" y="183"/>
      <point x="187" y="161" type="curve"/>
      <point x="189" y="173"/>
      <point x="194" y="184"/>
      <point x="199" y="195" type="curve" smooth="yes"/>
      <point x="208" y="216"/>
      <point x="209" y="255"/>
      <point x="212" y="284" type="curve"/>
    </contour>
    <contour>
      <point x="81" y="108" type="line"/>
      <point x="81" y="101"/>
      <point x="81" y="93"/>
      <point x="80" y="86" type="curve"/>
      <point x="79" y="91"/>
      <point x="79" y="96"/>
      <point x="79" y="101" type="curve" smooth="yes"/>
      <point x="79" y="108"/>
      <point x="79" y="115"/>
      <point x="80" y="122" type="curve"/>
      <point x="80" y="192" type="line" smooth="yes"/>
      <point x="80" y="216"/>
      <point x="80" y="239"/>
      <point x="81" y="263" type="curve"/>
    </contour>
    <contour>
      <point x="237" y="242" type="line"/>
      <point x="239" y="242"/>
      <point x="240" y="240"/>
      <point x="240" y="238" type="curve" smooth="yes"/>
      <point x="240" y="236"/>
      <point x="239" y="234"/>
      <point x="237" y="234" type="curve" smooth="yes"/>
      <point x="236" y="234"/>
      <point x="235" y="237"/>
      <point x="235" y="238" type="curve" smooth="yes"/>
      <point x="235" y="239"/>
      <point x="236" y="241"/>
      <point x="237" y="242" type="curve"/>
    </contour>
    <contour>
      <point x="234" y="228" type="line"/>
      <point x="237" y="228"/>
      <point x="238" y="227"/>
      <point x="238" y="225" type="curve" smooth="yes"/>
      <point x="238" y="224"/>
      <point x="237" y="223"/>
      <point x="236" y="222" type="curve"/>
      <point x="234" y="222"/>
      <point x="233" y="223"/>
      <point x="233" y="225" type="curve" smooth="yes"/>
      <point x="233" y="226"/>
      <point x="233" y="228"/>
      <point x="234" y="228" type="curve"/>
    </contour>
    <contour>
      <point x="233" y="216" type="line"/>
      <point x="234" y="216"/>
      <point x="235" y="216"/>
      <point x="235" y="214" type="curve" smooth="yes"/>
      <point x="235" y="212"/>
      <point x="234" y="211"/>
      <point x="233" y="211" type="curve" smooth="yes"/>
      <point x="231" y="211"/>
      <point x="231" y="212"/>
      <point x="231" y="213" type="curve" smooth="yes"/>
      <point x="231" y="214"/>
      <point x="231" y="215"/>
      <point x="233" y="216" type="curve"/>
    </contour>
  </outline>
</glyph>
<glyph name="E" format="1">
  <advance width="388"/>
  <unicode hex="0045"/>
  <outline>
    <contour>
      <point x="161" y="661" type="line"/>
      <point x="154" y="661"/>
      <point x="147" y="662"/>
      <point x="140" y="662" type="curve" smooth="yes"/>
      <point x="111" y="662"/>
      <point x="74" y="659"/>
      <point x="42" y="653" type="curve" smooth="yes"/>
      <point x="18" y="649"/>
      <point x="14" y="629"/>
      <point x="14" y="604" type="curve" smooth="yes"/>
      <point x="14" y="598"/>
      <point x="14" y="593"/>
      <point x="15" y="587" type="curve"/>
      <point x="21" y="451"/>
      <point x="23" y="327"/>
      <point x="37" y="209" type="curve"/>
      <point x="42" y="190"/>
      <point x="43" y="160"/>
      <point x="43" y="133" type="curve" smooth="yes"/>
      <point x="43" y="97" type="line" smooth="yes"/>
      <point x="43" y="71"/>
      <point x="48" y="39"/>
      <point x="110" y="39" type="curve" smooth="yes"/>
      <point x="134" y="39"/>
      <point x="158" y="40"/>
      <point x="183" y="43" type="curve" smooth="yes"/>
      <point x="235" y="49"/>
      <point x="295" y="47"/>
      <point x="344" y="64" type="curve" smooth="yes"/>
      <point x="362" y="70"/>
      <point x="377" y="59"/>
      <point x="377" y="92" type="curve"/>
      <point x="374" y="92"/>
      <point x="371" y="93"/>
      <point x="368" y="93" type="curve"/>
      <point x="363" y="116"/>
      <point x="325" y="116"/>
      <point x="303" y="116" type="curve" smooth="yes"/>
      <point x="243" y="116"/>
      <point x="192" y="110"/>
      <point x="138" y="106" type="curve"/>
      <point x="138" y="116"/>
      <point x="137" y="125"/>
      <point x="137" y="135" type="curve"/>
      <point x="136" y="135"/>
      <point x="134" y="134"/>
      <point x="132" y="134" type="curve"/>
      <point x="134" y="128"/>
      <point x="135" y="123"/>
      <point x="135" y="118" type="curve" smooth="yes"/>
      <point x="135" y="113"/>
      <point x="134" y="109"/>
      <point x="132" y="105" type="curve"/>
      <point x="129" y="111"/>
      <point x="128" y="116"/>
      <point x="128" y="122" type="curve" smooth="yes"/>
      <point x="128" y="175"/>
      <point x="119" y="229"/>
      <point x="119" y="283" type="curve"/>
      <point x="129" y="286"/>
      <point x="137" y="286"/>
      <point x="148" y="286" type="curve" smooth="yes"/>
      <point x="182" y="286"/>
      <point x="219" y="293"/>
      <point x="253" y="300" type="curve" smooth="yes"/>
      <point x="274" y="304"/>
      <point x="272" y="315"/>
      <point x="274" y="332" type="curve"/>
      <point x="234" y="350"/>
      <point x="208" y="351"/>
      <point x="169" y="351" type="curve" smooth="yes"/>
      <point x="156" y="351"/>
      <point x="143" y="350"/>
      <point x="131" y="350" type="curve" smooth="yes"/>
      <point x="125" y="350"/>
      <point x="119" y="350"/>
      <point x="113" y="351" type="curve"/>
      <point x="111" y="373"/>
      <point x="104" y="453"/>
      <point x="101" y="475" type="curve" smooth="yes"/>
      <point x="100" y="480"/>
      <point x="100" y="485"/>
      <point x="100" y="491" type="curve" smooth="yes"/>
      <point x="100" y="494"/>
      <point x="101" y="503"/>
      <point x="101" y="512" type="curve" smooth="yes"/>
      <point x="101" y="526"/>
      <point x="99" y="542"/>
      <point x="87" y="546" type="curve"/>
      <point x="97" y="552" type="line"/>
      <point x="95" y="567"/>
      <point x="93" y="581"/>
      <point x="90" y="596" type="curve"/>
      <point x="97" y="598"/>
      <point x="105" y="600"/>
      <point x="112" y="601" type="curve"/>
      <point x="101" y="606" type="line"/>
      <point x="123" y="610"/>
      <point x="123" y="613"/>
      <point x="131" y="623" type="curve"/>
      <point x="129" y="618"/>
      <point x="126" y="613"/>
      <point x="123" y="608" type="curve"/>
      <point x="126" y="610"/>
      <point x="130" y="612"/>
      <point x="134" y="613" type="curve"/>
      <point x="139" y="611"/>
      <point x="143" y="607"/>
      <point x="147" y="605" type="curve"/>
      <point x="150" y="606"/>
      <point x="153" y="606"/>
      <point x="157" y="606" type="curve" smooth="yes"/>
      <point x="163" y="606"/>
      <point x="169" y="605"/>
      <point x="176" y="602" type="curve"/>
      <point x="173" y="610" type="line"/>
      <point x="188" y="608" type="line"/>
      <point x="185" y="615" type="line"/>
      <point x="191" y="615"/>
      <point x="195" y="607"/>
      <point x="203" y="607" type="curve" smooth="yes"/>
      <point x="206" y="607"/>
      <point x="209" y="611"/>
      <point x="212" y="612" type="curve"/>
      <point x="202" y="616" type="line"/>
      <point x="235" y="612" type="line"/>
      <point x="235" y="614"/>
      <point x="235" y="617"/>
      <point x="234" y="620" type="curve"/>
      <point x="242" y="616" type="line"/>
      <point x="250" y="620"/>
      <point x="256" y="619"/>
      <point x="264" y="620" type="curve"/>
      <point x="263" y="624"/>
      <point x="262" y="628"/>
      <point x="260" y="632" type="curve"/>
      <point x="263" y="633"/>
      <point x="265" y="635"/>
      <point x="267" y="637" type="curve"/>
      <point x="267" y="627" type="line"/>
      <point x="271" y="627"/>
      <point x="272" y="628"/>
      <point x="272" y="634" type="curve"/>
      <point x="277" y="630"/>
      <point x="282" y="623"/>
      <point x="288" y="623" type="curve" smooth="yes"/>
      <point x="299" y="623"/>
      <point x="296" y="631"/>
      <point x="298" y="639" type="curve"/>
      <point x="288" y="627" type="line"/>
      <point x="288" y="632"/>
      <point x="288" y="636"/>
      <point x="287" y="641" type="curve"/>
      <point x="291" y="641"/>
      <point x="295" y="642"/>
      <point x="299" y="642" type="curve"/>
      <point x="289" y="654" type="line"/>
      <point x="273" y="646" type="line"/>
      <point x="267" y="664" type="line"/>
      <point x="255" y="659" type="line"/>
      <point x="256" y="661"/>
      <point x="257" y="663"/>
      <point x="257" y="665" type="curve"/>
      <point x="242" y="658" type="line"/>
      <point x="242" y="660"/>
      <point x="241" y="662"/>
      <point x="241" y="663" type="curve"/>
      <point x="234" y="661"/>
      <point x="226" y="657"/>
      <point x="218" y="657" type="curve" smooth="yes"/>
      <point x="215" y="657"/>
      <point x="211" y="659"/>
      <point x="209" y="660" type="curve"/>
      <point x="199" y="655" type="line"/>
      <point x="195" y="663" type="line"/>
      <point x="187" y="657"/>
      <point x="181" y="656"/>
      <point x="172" y="656" type="curve"/>
      <point x="176" y="662" type="line"/>
      <point x="171" y="661"/>
      <point x="166" y="661"/>
      <point x="161" y="661" type="curve" smooth="yes"/>
    </contour>
    <contour>
      <point x="257" y="648" type="line"/>
      <point x="246" y="651" type="line"/>
      <point x="257" y="655" type="line"/>
    </contour>
    <contour>
      <point x="219" y="653" type="line"/>
      <point x="214" y="650" type="line"/>
      <point x="213" y="653" type="line"/>
    </contour>
    <contour>
      <point x="197" y="643" type="line"/>
      <point x="199" y="643"/>
      <point x="201" y="642"/>
      <point x="201" y="641" type="curve" smooth="yes"/>
      <point x="201" y="640"/>
      <point x="200" y="639"/>
      <point x="198" y="639" type="curve" smooth="yes"/>
      <point x="196" y="639"/>
      <point x="195" y="639"/>
      <point x="195" y="640" type="curve" smooth="yes"/>
      <point x="195" y="641"/>
      <point x="196" y="642"/>
      <point x="197" y="643" type="curve"/>
    </contour>
    <contour>
      <point x="61" y="254" type="line"/>
      <point x="62" y="250"/>
      <point x="64" y="247"/>
      <point x="64" y="245" type="curve" smooth="yes"/>
      <point x="64" y="242"/>
      <point x="63" y="240"/>
      <point x="61" y="237" type="curve"/>
      <point x="60" y="239"/>
      <point x="60" y="242"/>
      <point x="60" y="245" type="curve" smooth="yes"/>
      <point x="60" y="248"/>
      <point x="60" y="251"/>
      <point x="61" y="254" type="curve"/>
    </contour>
    <contour>
      <point x="57" y="219" type="line"/>
      <point x="62" y="218"/>
      <point x="65" y="214"/>
      <point x="68" y="211" type="curve"/>
      <point x="55" y="208" type="line"/>
      <point x="55" y="212"/>
      <point x="56" y="215"/>
      <point x="57" y="219" type="curve"/>
    </contour>
    <contour>
      <point x="63" y="203" type="line"/>
      <point x="65" y="201"/>
      <point x="68" y="197"/>
      <point x="69" y="194" type="curve"/>
      <point x="67" y="184"/>
      <point x="66" y="177"/>
      <point x="53" y="177" type="curve"/>
      <point x="56" y="188"/>
      <point x="53" y="197"/>
      <point x="63" y="203" type="curve"/>
    </contour>
    <contour>
      <point x="137" y="167" type="line"/>
      <point x="135" y="167"/>
      <point x="132" y="167"/>
      <point x="130" y="166" type="curve"/>
      <point x="136" y="141" type="line"/>
      <point x="137" y="150"/>
      <point x="137" y="158"/>
      <point x="137" y="167" type="curve"/>
    </contour>
    <contour>
      <point x="118" y="128" type="line"/>
      <point x="119" y="122"/>
      <point x="120" y="117"/>
      <point x="120" y="111" type="curve" smooth="yes"/>
      <point x="120" y="107"/>
      <point x="118" y="102"/>
      <point x="116" y="99" type="curve"/>
      <point x="115" y="101"/>
      <point x="114" y="104"/>
      <point x="114" y="106" type="curve"/>
      <point x="111" y="106"/>
      <point x="108" y="105"/>
      <point x="105" y="105" type="curve"/>
      <point x="112" y="112"/>
      <point x="112" y="125"/>
      <point x="118" y="128" type="curve"/>
    </contour>
  </outline>
</glyph>
<glyph name="F" format="1">
  <advance width="375"/>
  <unicode hex="0046"/>
  <outline>
    <contour>
      <point x="259" y="678" type="line"/>
      <point x="253" y="679"/>
      <point x="248" y="679"/>
      <point x="242" y="679" type="curve" smooth="yes"/>
      <point x="231" y="679"/>
      <point x="220" y="678"/>
      <point x="209" y="678" type="curve" smooth="yes"/>
      <point x="177" y="676"/>
      <point x="11" y="680"/>
      <point x="11" y="618" type="curve" smooth="yes"/>
      <point x="11" y="600" type="line" smooth="yes"/>
      <point x="11" y="585"/>
      <point x="10" y="569"/>
      <point x="10" y="553" type="curve" smooth="yes"/>
      <point x="10" y="503"/>
      <point x="14" y="450"/>
      <point x="14" y="399" type="curve" smooth="yes"/>
      <point x="14" y="282"/>
      <point x="19" y="145"/>
      <point x="45" y="26" type="curve" smooth="yes"/>
      <point x="49" y="9"/>
      <point x="59" y="0"/>
      <point x="78" y="-2" type="curve"/>
      <point x="82" y="1"/>
      <point x="82" y="5"/>
      <point x="82" y="10" type="curve" smooth="yes"/>
      <point x="82" y="24"/>
      <point x="78" y="38"/>
      <point x="77" y="52" type="curve" smooth="yes"/>
      <point x="70" y="128"/>
      <point x="61" y="207"/>
      <point x="61" y="284" type="curve" smooth="yes"/>
      <point x="61" y="324"/>
      <point x="56" y="360"/>
      <point x="56" y="400" type="curve"/>
      <point x="60" y="390"/>
      <point x="61" y="381"/>
      <point x="61" y="373" type="curve" smooth="yes"/>
      <point x="61" y="367"/>
      <point x="60" y="362"/>
      <point x="60" y="356" type="curve" smooth="yes"/>
      <point x="60" y="325"/>
      <point x="62" y="286"/>
      <point x="65" y="253" type="curve"/>
      <point x="66" y="203"/>
      <point x="75" y="8"/>
      <point x="91" y="8" type="curve" smooth="yes"/>
      <point x="98" y="8"/>
      <point x="99" y="17"/>
      <point x="99" y="25" type="curve" smooth="yes"/>
      <point x="99" y="34" type="line" smooth="yes"/>
      <point x="99" y="88"/>
      <point x="87" y="139"/>
      <point x="87" y="190" type="curve" smooth="yes"/>
      <point x="87" y="194"/>
      <point x="88" y="197"/>
      <point x="88" y="201" type="curve"/>
      <point x="90" y="191"/>
      <point x="90" y="181"/>
      <point x="90" y="172" type="curve" smooth="yes"/>
      <point x="92" y="129"/>
      <point x="102" y="85"/>
      <point x="102" y="43" type="curve" smooth="yes"/>
      <point x="102" y="37"/>
      <point x="101" y="32"/>
      <point x="101" y="26" type="curve" smooth="yes"/>
      <point x="101" y="20"/>
      <point x="102" y="13"/>
      <point x="103" y="6" type="curve"/>
      <point x="106" y="13"/>
      <point x="108" y="19"/>
      <point x="108" y="26" type="curve" smooth="yes"/>
      <point x="108" y="67"/>
      <point x="102" y="109"/>
      <point x="99" y="149" type="curve" smooth="yes"/>
      <point x="94" y="225"/>
      <point x="94" y="300"/>
      <point x="90" y="376" type="curve" smooth="yes"/>
      <point x="90" y="383"/>
      <point x="90" y="390"/>
      <point x="91" y="398" type="curve"/>
      <point x="94" y="386"/>
      <point x="94" y="375"/>
      <point x="95" y="364" type="curve" smooth="yes"/>
      <point x="99" y="295"/>
      <point x="98" y="225"/>
      <point x="102" y="160" type="curve" smooth="yes"/>
      <point x="104" y="121"/>
      <point x="112" y="84"/>
      <point x="112" y="46" type="curve" smooth="yes"/>
      <point x="112" y="16" type="line"/>
      <point x="114" y="25"/>
      <point x="115" y="34"/>
      <point x="115" y="43" type="curve" smooth="yes"/>
      <point x="115" y="52"/>
      <point x="114" y="61"/>
      <point x="114" y="70" type="curve"/>
      <point x="107" y="141"/>
      <point x="104" y="209"/>
      <point x="102" y="280" type="curve"/>
      <point x="99" y="317"/>
      <point x="98" y="359"/>
      <point x="98" y="400" type="curve"/>
      <point x="130" y="403"/>
      <point x="251" y="404"/>
      <point x="251" y="443" type="curve" smooth="yes"/>
      <point x="251" y="466"/>
      <point x="195" y="467"/>
      <point x="168" y="467" type="curve" smooth="yes"/>
      <point x="162" y="467" type="line" smooth="yes"/>
      <point x="139" y="467"/>
      <point x="116" y="466"/>
      <point x="92" y="463" type="curve"/>
      <point x="92" y="482"/>
      <point x="94" y="502"/>
      <point x="94" y="521" type="curve" smooth="yes"/>
      <point x="94" y="531"/>
      <point x="94" y="541"/>
      <point x="92" y="550" type="curve"/>
      <point x="90" y="543"/>
      <point x="89" y="537"/>
      <point x="89" y="531" type="curve" smooth="yes"/>
      <point x="89" y="476" type="line" smooth="yes"/>
      <point x="89" y="471"/>
      <point x="88" y="466"/>
      <point x="87" y="461" type="curve"/>
      <point x="86" y="467"/>
      <point x="86" y="473"/>
      <point x="86" y="479" type="curve" smooth="yes"/>
      <point x="86" y="521" type="line" smooth="yes"/>
      <point x="86" y="549"/>
      <point x="83" y="577"/>
      <point x="83" y="606" type="curve" smooth="yes"/>
      <point x="83" y="613" type="line"/>
      <point x="91" y="613" type="line" smooth="yes"/>
      <point x="106" y="613"/>
      <point x="122" y="614"/>
      <point x="138" y="614" type="curve" smooth="yes"/>
      <point x="190" y="614" type="line" smooth="yes"/>
      <point x="217" y="614"/>
      <point x="356" y="614"/>
      <point x="356" y="654" type="curve" smooth="yes"/>
      <point x="356" y="680"/>
      <point x="277" y="676"/>
      <point x="259" y="678" type="curve" smooth="yes"/>
    </contour>
    <contour>
      <point x="36" y="631" type="line"/>
      <point x="36" y="620"/>
      <point x="30" y="611"/>
      <point x="30" y="602" type="curve" smooth="yes"/>
      <point x="30" y="598"/>
      <point x="31" y="594"/>
      <point x="31" y="589" type="curve" smooth="yes"/>
      <point x="31" y="583"/>
      <point x="29" y="576"/>
      <point x="29" y="569" type="curve" smooth="yes"/>
      <point x="29" y="558"/>
      <point x="33" y="545"/>
      <point x="34" y="533" type="curve"/>
      <point x="29" y="540" type="line"/>
      <point x="29" y="534"/>
      <point x="28" y="528"/>
      <point x="28" y="522" type="curve" smooth="yes"/>
      <point x="28" y="510"/>
      <point x="29" y="498"/>
      <point x="29" y="486" type="curve" smooth="yes"/>
      <point x="29" y="481" type="line" smooth="yes"/>
      <point x="29" y="472"/>
      <point x="30" y="464"/>
      <point x="30" y="455" type="curve" smooth="yes"/>
      <point x="30" y="451"/>
      <point x="30" y="447"/>
      <point x="29" y="443" type="curve"/>
      <point x="26" y="473"/>
      <point x="25" y="504"/>
      <point x="25" y="535" type="curve" smooth="yes"/>
      <point x="25" y="547"/>
      <point x="24" y="561"/>
      <point x="24" y="575" type="curve" smooth="yes"/>
      <point x="24" y="598"/>
      <point x="26" y="621"/>
      <point x="36" y="631" type="curve"/>
    </contour>
    <contour>
      <point x="55" y="621" type="line"/>
      <point x="54" y="617"/>
      <point x="54" y="613"/>
      <point x="54" y="610" type="curve" smooth="yes"/>
      <point x="54" y="600"/>
      <point x="56" y="590"/>
      <point x="58" y="580" type="curve"/>
      <point x="58" y="445" type="line"/>
      <point x="53" y="454" type="line"/>
      <point x="53" y="461"/>
      <point x="54" y="467"/>
      <point x="54" y="473" type="curve" smooth="yes"/>
      <point x="54" y="489"/>
      <point x="51" y="504"/>
      <point x="51" y="520" type="curve" smooth="yes"/>
      <point x="51" y="533"/>
      <point x="52" y="546"/>
      <point x="52" y="559" type="curve" smooth="yes"/>
      <point x="52" y="583" type="line" smooth="yes"/>
      <point x="52" y="595"/>
      <point x="52" y="607"/>
      <point x="50" y="619" type="curve"/>
      <point x="52" y="620"/>
      <point x="53" y="621"/>
      <point x="55" y="621" type="curve"/>
    </contour>
    <contour>
      <point x="76" y="609" type="line"/>
      <point x="77" y="605"/>
      <point x="77" y="602"/>
      <point x="77" y="599" type="curve" smooth="yes"/>
      <point x="77" y="594"/>
      <point x="76" y="589"/>
      <point x="75" y="584" type="curve"/>
      <point x="69" y="608" type="line"/>
      <point x="71" y="608"/>
      <point x="73" y="609"/>
      <point x="76" y="609" type="curve"/>
    </contour>
    <contour>
      <point x="77" y="507" type="line"/>
      <point x="77" y="499"/>
      <point x="78" y="491"/>
      <point x="78" y="484" type="curve" smooth="yes"/>
      <point x="78" y="476"/>
      <point x="77" y="468"/>
      <point x="77" y="460" type="curve"/>
      <point x="76" y="467"/>
      <point x="76" y="475"/>
      <point x="76" y="483" type="curve" smooth="yes"/>
      <point x="76" y="491"/>
      <point x="76" y="499"/>
      <point x="77" y="507" type="curve" smooth="yes"/>
    </contour>
    <contour>
      <point x="31" y="409" type="line"/>
      <point x="37" y="364"/>
      <point x="42" y="309"/>
      <point x="42" y="260" type="curve" smooth="yes"/>
      <point x="42" y="228" type="line" smooth="yes"/>
      <point x="42" y="204"/>
      <point x="46" y="178"/>
      <point x="46" y="155" type="curve" smooth="yes"/>
      <point x="46" y="112"/>
      <point x="56" y="70"/>
      <point x="59" y="28" type="curve"/>
      <point x="46" y="78"/>
      <point x="42" y="139"/>
      <point x="39" y="195" type="curve"/>
      <point x="33" y="238"/>
      <point x="37" y="283"/>
      <point x="33" y="327" type="curve"/>
      <point x="33" y="348"/>
      <point x="30" y="369"/>
      <point x="30" y="390" type="curve" smooth="yes"/>
      <point x="30" y="396"/>
      <point x="30" y="402"/>
      <point x="31" y="409" type="curve"/>
    </contour>
    <contour>
      <point x="81" y="378" type="line"/>
      <point x="85" y="332"/>
      <point x="87" y="287"/>
      <point x="87" y="241" type="curve" smooth="yes"/>
      <point x="87" y="206" type="line"/>
      <point x="85" y="217"/>
      <point x="85" y="228"/>
      <point x="85" y="239" type="curve" smooth="yes"/>
      <point x="85" y="262" type="line"/>
      <point x="82" y="300"/>
      <point x="81" y="340"/>
      <point x="81" y="378" type="curve"/>
    </contour>
  </outline>
</glyph>
<glyph name="G" format="1">
  <advance width="340"/>
  <unicode hex="0047"/>
  <outline>
    <contour>
      <point x="193" y="669" type="line"/>
      <point x="184" y="671"/>
      <point x="174" y="672"/>
      <point x="164" y="672" type="curve" smooth="yes"/>
      <point x="86" y="672"/>
      <point x="64" y="595"/>
      <point x="46" y="535" type="curve" smooth="yes"/>
      <point x="44" y="528" type="line" smooth="yes"/>
      <point x="21" y="429"/>
      <point x="5" y="337"/>
      <point x="5" y="239" type="curve" smooth="yes"/>
      <point x="5" y="140"/>
      <point x="27" y="4"/>
      <point x="143" y="4" type="curve" smooth="yes"/>
      <point x="179" y="4"/>
      <point x="225" y="25"/>
      <point x="250" y="50" type="curve" smooth="yes"/>
      <point x="311" y="111"/>
      <point x="333" y="235"/>
      <point x="333" y="328" type="curve" smooth="yes"/>
      <point x="333" y="339" type="line"/>
      <point x="325" y="292"/>
      <point x="325" y="238"/>
      <point x="313" y="192" type="curve"/>
      <point x="313" y="233"/>
      <point x="327" y="285"/>
      <point x="327" y="329" type="curve" smooth="yes"/>
      <point x="327" y="351"/>
      <point x="307" y="351"/>
      <point x="290" y="351" type="curve" smooth="yes"/>
      <point x="261" y="351"/>
      <point x="134" y="350"/>
      <point x="134" y="317" type="curve" smooth="yes"/>
      <point x="134" y="297"/>
      <point x="171" y="296"/>
      <point x="188" y="296" type="curve" smooth="yes"/>
      <point x="209" y="296"/>
      <point x="230" y="298"/>
      <point x="251" y="300" type="curve"/>
      <point x="251" y="298"/>
      <point x="250" y="295"/>
      <point x="250" y="293" type="curve" smooth="yes"/>
      <point x="245" y="262"/>
      <point x="241" y="231"/>
      <point x="234" y="200" type="curve" smooth="yes"/>
      <point x="224" y="152"/>
      <point x="193" y="55"/>
      <point x="160" y="55" type="curve" smooth="yes"/>
      <point x="156" y="55"/>
      <point x="151" y="58"/>
      <point x="148" y="60" type="curve" smooth="yes"/>
      <point x="95" y="93"/>
      <point x="93" y="211"/>
      <point x="93" y="283" type="curve" smooth="yes"/>
      <point x="93" y="373"/>
      <point x="110" y="456"/>
      <point x="119" y="544" type="curve"/>
      <point x="114" y="531"/>
      <point x="112" y="515"/>
      <point x="109" y="500" type="curve"/>
      <point x="109" y="499"/>
      <point x="108" y="498"/>
      <point x="108" y="497" type="curve" smooth="yes"/>
      <point x="108" y="496"/>
      <point x="107" y="494"/>
      <point x="107" y="491" type="curve" smooth="yes"/>
      <point x="95" y="422"/>
      <point x="88" y="345"/>
      <point x="88" y="280" type="curve" smooth="yes"/>
      <point x="88" y="251"/>
      <point x="89" y="219"/>
      <point x="92" y="190" type="curve" smooth="yes"/>
      <point x="95" y="167"/>
      <point x="100" y="144"/>
      <point x="103" y="121" type="curve"/>
      <point x="84" y="159"/>
      <point x="84" y="224"/>
      <point x="84" y="273" type="curve" smooth="yes"/>
      <point x="84" y="280" type="line" smooth="yes"/>
      <point x="84" y="367"/>
      <point x="96" y="449"/>
      <point x="110" y="532" type="curve"/>
      <point x="115" y="550"/>
      <point x="119" y="571"/>
      <point x="129" y="587" type="curve"/>
      <point x="127" y="573"/>
      <point x="120" y="560"/>
      <point x="118" y="545" type="curve"/>
      <point x="130" y="567"/>
      <point x="143" y="636"/>
      <point x="184" y="636" type="curve" smooth="yes"/>
      <point x="215" y="636"/>
      <point x="212" y="566"/>
      <point x="229" y="537" type="curve"/>
      <point x="235" y="547" type="line"/>
      <point x="238" y="540"/>
      <point x="240" y="533"/>
      <point x="244" y="527" type="curve"/>
      <point x="250" y="536"/>
      <point x="254" y="545"/>
      <point x="257" y="555" type="curve"/>
      <point x="257" y="548"/>
      <point x="257" y="540"/>
      <point x="258" y="533" type="curve"/>
      <point x="263" y="536"/>
      <point x="269" y="539"/>
      <point x="274" y="543" type="curve"/>
      <point x="276" y="531" type="line"/>
      <point x="280" y="540"/>
      <point x="283" y="548"/>
      <point x="283" y="557" type="curve" smooth="yes"/>
      <point x="283" y="614"/>
      <point x="243" y="657"/>
      <point x="193" y="669" type="curve" smooth="yes"/>
    </contour>
    <contour>
      <point x="106" y="630" type="line"/>
      <point x="58" y="547"/>
      <point x="25" y="388"/>
      <point x="25" y="235" type="curve" smooth="yes"/>
      <point x="25" y="210"/>
      <point x="28" y="184"/>
      <point x="30" y="159" type="curve"/>
      <point x="25" y="178"/>
      <point x="22" y="200"/>
      <point x="22" y="220" type="curve" smooth="yes"/>
      <point x="22" y="227"/>
      <point x="23" y="233"/>
      <point x="23" y="240" type="curve" smooth="yes"/>
      <point x="23" y="256"/>
      <point x="20" y="271"/>
      <point x="20" y="287" type="curve" smooth="yes"/>
      <point x="20" y="353"/>
      <point x="34" y="420"/>
      <point x="47" y="483" type="curve" smooth="yes"/>
      <point x="50" y="496" type="line" smooth="yes"/>
      <point x="59" y="543"/>
      <point x="69" y="598"/>
      <point x="106" y="630" type="curve"/>
    </contour>
    <contour>
      <point x="129" y="605" type="line"/>
      <point x="97" y="528"/>
      <point x="88" y="446"/>
      <point x="80" y="369" type="curve" smooth="yes"/>
      <point x="78" y="353" type="line"/>
      <point x="77" y="356"/>
      <point x="77" y="359"/>
      <point x="77" y="363" type="curve" smooth="yes"/>
      <point x="77" y="408"/>
      <point x="91" y="550"/>
      <point x="129" y="605" type="curve"/>
    </contour>
    <contour>
      <point x="106" y="600" type="line"/>
      <point x="94" y="571"/>
      <point x="87" y="542"/>
      <point x="80" y="513" type="curve"/>
      <point x="69" y="444"/>
      <point x="53" y="374"/>
      <point x="53" y="305" type="curve" smooth="yes"/>
      <point x="53" y="251" type="line" smooth="yes"/>
      <point x="53" y="233"/>
      <point x="55" y="214"/>
      <point x="55" y="196" type="curve" smooth="yes"/>
      <point x="55" y="171" type="line"/>
      <point x="51" y="210"/>
      <point x="49" y="254"/>
      <point x="49" y="300" type="curve" smooth="yes"/>
      <point x="49" y="348"/>
      <point x="58" y="392"/>
      <point x="65" y="441" type="curve"/>
      <point x="67" y="481"/>
      <point x="77" y="559"/>
      <point x="106" y="600" type="curve"/>
    </contour>
    <contour>
      <point x="76" y="349" type="line"/>
      <point x="77" y="343"/>
      <point x="77" y="338"/>
      <point x="77" y="332" type="curve" smooth="yes"/>
      <point x="77" y="308"/>
      <point x="76" y="280"/>
      <point x="74" y="255" type="curve" smooth="yes"/>
      <point x="74" y="263"/>
      <point x="73" y="272"/>
      <point x="73" y="280" type="curve" smooth="yes"/>
      <point x="73" y="303"/>
      <point x="74" y="326"/>
      <point x="76" y="349" type="curve"/>
    </contour>
    <contour>
      <point x="274" y="305" type="line"/>
      <point x="270" y="253"/>
      <point x="260" y="199"/>
      <point x="243" y="152" type="curve"/>
      <point x="245" y="173"/>
      <point x="250" y="193"/>
      <point x="254" y="214" type="curve" smooth="yes"/>
      <point x="259" y="241"/>
      <point x="259" y="297"/>
      <point x="274" y="305" type="curve"/>
    </contour>
  </outline>
</glyph>
<glyph name="H" format="1">
  <advance width="287"/>
  <unicode hex="0048"/>
  <outline>
    <contour>
      <point x="217" y="698" type="line"/>
      <point x="194" y="682"/>
      <point x="192" y="642"/>
      <point x="192" y="601" type="curve" smooth="yes"/>
      <point x="192" y="504" type="line" smooth="yes"/>
      <point x="192" y="476"/>
      <point x="191" y="449"/>
      <point x="189" y="422" type="curve"/>
      <point x="168" y="421"/>
      <point x="148" y="415"/>
      <point x="127" y="414" type="curve" smooth="yes"/>
      <point x="119" y="414"/>
      <point x="111" y="414"/>
      <point x="103" y="413" type="curve"/>
      <point x="103" y="444"/>
      <point x="101" y="477"/>
      <point x="101" y="508" type="curve" smooth="yes"/>
      <point x="101" y="517"/>
      <point x="103" y="527"/>
      <point x="103" y="536" type="curve" smooth="yes"/>
      <point x="103" y="580"/>
      <point x="103" y="632"/>
      <point x="93" y="677" type="curve"/>
      <point x="91" y="677"/>
      <point x="89" y="676"/>
      <point x="88" y="676" type="curve" smooth="yes"/>
      <point x="83" y="679"/>
      <point x="79" y="683"/>
      <point x="75" y="686" type="curve"/>
      <point x="72" y="679"/>
      <point x="71" y="673"/>
      <point x="71" y="666" type="curve" smooth="yes"/>
      <point x="71" y="647"/>
      <point x="73" y="628"/>
      <point x="73" y="608" type="curve" smooth="yes"/>
      <point x="73" y="595"/>
      <point x="72" y="581"/>
      <point x="72" y="568" type="curve" smooth="yes"/>
      <point x="72" y="514"/>
      <point x="74" y="464"/>
      <point x="74" y="415" type="curve" smooth="yes"/>
      <point x="74" y="409"/>
      <point x="73" y="404"/>
      <point x="67" y="404" type="curve"/>
      <point x="70" y="444"/>
      <point x="70" y="485"/>
      <point x="70" y="526" type="curve" smooth="yes"/>
      <point x="70" y="586" type="line" smooth="yes"/>
      <point x="70" y="597"/>
      <point x="69" y="608"/>
      <point x="68" y="618" type="curve" smooth="yes"/>
      <point x="68" y="627"/>
      <point x="69" y="627"/>
      <point x="69" y="645" type="curve" smooth="yes"/>
      <point x="69" y="658"/>
      <point x="68" y="678"/>
      <point x="59" y="687" type="curve"/>
      <point x="50" y="656"/>
      <point x="49" y="616"/>
      <point x="49" y="580" type="curve" smooth="yes"/>
      <point x="49" y="559"/>
      <point x="51" y="538"/>
      <point x="51" y="517" type="curve" smooth="yes"/>
      <point x="51" y="507"/>
      <point x="49" y="496"/>
      <point x="49" y="484" type="curve" smooth="yes"/>
      <point x="49" y="475"/>
      <point x="50" y="465"/>
      <point x="50" y="455" type="curve" smooth="yes"/>
      <point x="50" y="451"/>
      <point x="50" y="446"/>
      <point x="49" y="442" type="curve"/>
      <point x="50" y="441"/>
      <point x="51" y="441"/>
      <point x="52" y="441" type="curve"/>
      <point x="41" y="413"/>
      <point x="50" y="368"/>
      <point x="41" y="330" type="curve"/>
      <point x="40" y="335"/>
      <point x="39" y="341"/>
      <point x="39" y="347" type="curve" smooth="yes"/>
      <point x="39" y="354"/>
      <point x="41" y="362"/>
      <point x="41" y="369" type="curve" smooth="yes"/>
      <point x="41" y="376"/>
      <point x="39" y="381"/>
      <point x="39" y="389" type="curve" smooth="yes"/>
      <point x="39" y="464"/>
      <point x="45" y="539"/>
      <point x="45" y="615" type="curve" smooth="yes"/>
      <point x="45" y="624"/>
      <point x="44" y="633"/>
      <point x="44" y="642" type="curve" smooth="yes"/>
      <point x="44" y="656"/>
      <point x="46" y="671"/>
      <point x="46" y="688" type="curve"/>
      <point x="34" y="676"/>
      <point x="32" y="669"/>
      <point x="32" y="652" type="curve" smooth="yes"/>
      <point x="32" y="575" type="line" smooth="yes"/>
      <point x="32" y="451"/>
      <point x="13" y="314"/>
      <point x="13" y="186" type="curve" smooth="yes"/>
      <point x="13" y="167"/>
      <point x="13" y="149"/>
      <point x="14" y="130" type="curve"/>
      <point x="14" y="131"/>
      <point x="13" y="122"/>
      <point x="13" y="111" type="curve" smooth="yes"/>
      <point x="13" y="95"/>
      <point x="15" y="75"/>
      <point x="21" y="70" type="curve"/>
      <point x="19" y="66"/>
      <point x="19" y="62"/>
      <point x="19" y="59" type="curve" smooth="yes"/>
      <point x="19" y="46"/>
      <point x="22" y="15"/>
      <point x="29" y="5" type="curve"/>
      <point x="30" y="11"/>
      <point x="32" y="18"/>
      <point x="32" y="24" type="curve" smooth="yes"/>
      <point x="31" y="64"/>
      <point x="30" y="104"/>
      <point x="30" y="144" type="curve" smooth="yes"/>
      <point x="30" y="162"/>
      <point x="31" y="175"/>
      <point x="31" y="189" type="curve" smooth="yes"/>
      <point x="31" y="239" type="line" smooth="yes"/>
      <point x="31" y="256"/>
      <point x="33" y="273"/>
      <point x="38" y="288" type="curve"/>
      <point x="40" y="283"/>
      <point x="40" y="279"/>
      <point x="40" y="274" type="curve" smooth="yes"/>
      <point x="40" y="229"/>
      <point x="35" y="217"/>
      <point x="35" y="151" type="curve" smooth="yes"/>
      <point x="35" y="127"/>
      <point x="38" y="103"/>
      <point x="38" y="79" type="curve" smooth="yes"/>
      <point x="38" y="73"/>
      <point x="37" y="64"/>
      <point x="37" y="56" type="curve" smooth="yes"/>
      <point x="37" y="51"/>
      <point x="41" y="49"/>
      <point x="46" y="48" type="curve"/>
      <point x="41" y="38"/>
      <point x="39" y="29"/>
      <point x="39" y="16" type="curve" smooth="yes"/>
      <point x="39" y="5"/>
      <point x="41" y="2"/>
      <point x="51" y="-6" type="curve"/>
      <point x="53" y="5"/>
      <point x="57" y="16"/>
      <point x="58" y="27" type="curve" smooth="yes"/>
      <point x="58" y="35"/>
      <point x="55" y="42"/>
      <point x="55" y="50" type="curve" smooth="yes"/>
      <point x="55" y="67"/>
      <point x="60" y="94"/>
      <point x="60" y="121" type="curve" smooth="yes"/>
      <point x="60" y="167" type="line" smooth="yes"/>
      <point x="60" y="212"/>
      <point x="62" y="193"/>
      <point x="62" y="262" type="curve" smooth="yes"/>
      <point x="62" y="298"/>
      <point x="70" y="374"/>
      <point x="70" y="377" type="curve" smooth="yes"/>
      <point x="72" y="369"/>
      <point x="73" y="366"/>
      <point x="84" y="366" type="curve"/>
      <point x="80" y="363"/>
      <point x="77" y="362"/>
      <point x="72" y="362" type="curve"/>
      <point x="66" y="325"/>
      <point x="65" y="280"/>
      <point x="65" y="244" type="curve" smooth="yes"/>
      <point x="65" y="202" type="line" smooth="yes"/>
      <point x="65" y="196"/>
      <point x="65" y="191"/>
      <point x="66" y="186" type="curve"/>
      <point x="63" y="124"/>
      <point x="65" y="63"/>
      <point x="62" y="1" type="curve"/>
      <point x="73" y="7"/>
      <point x="79" y="10"/>
      <point x="79" y="24" type="curve"/>
      <point x="84" y="89"/>
      <point x="88" y="131"/>
      <point x="88" y="198" type="curve" smooth="yes"/>
      <point x="88" y="222"/>
      <point x="87" y="249"/>
      <point x="87" y="277" type="curve" smooth="yes"/>
      <point x="87" y="309"/>
      <point x="88" y="341"/>
      <point x="93" y="370" type="curve"/>
      <point x="94" y="367"/>
      <point x="95" y="363"/>
      <point x="95" y="360" type="curve" smooth="yes"/>
      <point x="95" y="316"/>
      <point x="92" y="273"/>
      <point x="92" y="229" type="curve"/>
      <point x="103" y="229"/>
      <point x="100" y="295"/>
      <point x="101" y="314" type="curve" smooth="yes"/>
      <point x="101" y="324"/>
      <point x="100" y="334"/>
      <point x="100" y="344" type="curve" smooth="yes"/>
      <point x="100" y="353"/>
      <point x="100" y="362"/>
      <point x="107" y="369" type="curve"/>
      <point x="107" y="363"/>
      <point x="108" y="357"/>
      <point x="108" y="351" type="curve" smooth="yes"/>
      <point x="108" y="216"/>
      <point x="102" y="170"/>
      <point x="102" y="78" type="curve"/>
      <point x="106" y="95"/>
      <point x="105" y="111"/>
      <point x="107" y="128" type="curve"/>
      <point x="108" y="195"/>
      <point x="107" y="240"/>
      <point x="110" y="307" type="curve" smooth="yes"/>
      <point x="110" y="317"/>
      <point x="109" y="327"/>
      <point x="109" y="337" type="curve" smooth="yes"/>
      <point x="109" y="347"/>
      <point x="110" y="357"/>
      <point x="112" y="367" type="curve"/>
      <point x="134" y="367"/>
      <point x="156" y="370"/>
      <point x="179" y="370" type="curve" smooth="yes"/>
      <point x="186" y="370"/>
      <point x="188" y="367"/>
      <point x="188" y="364" type="curve" smooth="yes"/>
      <point x="188" y="257"/>
      <point x="184" y="209"/>
      <point x="184" y="124" type="curve" smooth="yes"/>
      <point x="184" y="116"/>
      <point x="183" y="99"/>
      <point x="183" y="78" type="curve" smooth="yes"/>
      <point x="183" y="42"/>
      <point x="186" y="-3"/>
      <point x="206" y="-23" type="curve"/>
      <point x="206" y="-12"/>
      <point x="207" y="-1"/>
      <point x="207" y="9" type="curve" smooth="yes"/>
      <point x="207" y="52"/>
      <point x="199" y="94"/>
      <point x="199" y="139" type="curve" smooth="yes"/>
      <point x="199" y="139"/>
      <point x="198" y="221"/>
      <point x="198" y="246" type="curve" smooth="yes"/>
      <point x="198" y="270"/>
      <point x="199" y="298"/>
      <point x="204" y="320" type="curve"/>
      <point x="206" y="314"/>
      <point x="206" y="307"/>
      <point x="206" y="300" type="curve" smooth="yes"/>
      <point x="206" y="252"/>
      <point x="204" y="209"/>
      <point x="204" y="160" type="curve" smooth="yes"/>
      <point x="204" y="101"/>
      <point x="212" y="69"/>
      <point x="212" y="8" type="curve" smooth="yes"/>
      <point x="212" y="-1" type="line" smooth="yes"/>
      <point x="212" y="-13"/>
      <point x="213" y="-23"/>
      <point x="226" y="-26" type="curve"/>
      <point x="229" y="-15"/>
      <point x="232" y="-4"/>
      <point x="232" y="8" type="curve" smooth="yes"/>
      <point x="232" y="84"/>
      <point x="224" y="124"/>
      <point x="224" y="294" type="curve" smooth="yes"/>
      <point x="224" y="315"/>
      <point x="226" y="336"/>
      <point x="231" y="353" type="curve"/>
      <point x="232" y="345"/>
      <point x="232" y="337"/>
      <point x="232" y="329" type="curve" smooth="yes"/>
      <point x="232" y="324"/>
      <point x="231" y="319"/>
      <point x="231" y="314" type="curve" smooth="yes"/>
      <point x="231" y="304"/>
      <point x="232" y="294"/>
      <point x="232" y="284" type="curve" smooth="yes"/>
      <point x="232" y="267"/>
      <point x="231" y="250"/>
      <point x="231" y="234" type="curve" smooth="yes"/>
      <point x="231" y="223"/>
      <point x="232" y="212"/>
      <point x="232" y="202" type="curve" smooth="yes"/>
      <point x="232" y="195"/>
      <point x="232" y="213"/>
      <point x="232" y="51" type="curve" smooth="yes"/>
      <point x="232" y="28"/>
      <point x="233" y="-11"/>
      <point x="240" y="-14" type="curve"/>
      <point x="247" y="-10"/>
      <point x="253" y="-6"/>
      <point x="253" y="3" type="curve" smooth="yes"/>
      <point x="253" y="153" type="line" smooth="yes"/>
      <point x="253" y="167"/>
      <point x="253" y="184"/>
      <point x="249" y="196" type="curve"/>
      <point x="256" y="192"/>
      <point x="257" y="175"/>
      <point x="257" y="155" type="curve" smooth="yes"/>
      <point x="257" y="99"/>
      <point x="254" y="74"/>
      <point x="254" y="34" type="curve" smooth="yes"/>
      <point x="254" y="16"/>
      <point x="255" y="-2"/>
      <point x="258" y="-19" type="curve"/>
      <point x="263" y="-4"/>
      <point x="264" y="25"/>
      <point x="264" y="54" type="curve" smooth="yes"/>
      <point x="264" y="83"/>
      <point x="263" y="105"/>
      <point x="263" y="130" type="curve" smooth="yes"/>
      <point x="263" y="153"/>
      <point x="264" y="155"/>
      <point x="264" y="178" type="curve" smooth="yes"/>
      <point x="264" y="223"/>
      <point x="261" y="264"/>
      <point x="261" y="311" type="curve" smooth="yes"/>
      <point x="261" y="316"/>
      <point x="262" y="322"/>
      <point x="262" y="328" type="curve" smooth="yes"/>
      <point x="262" y="336"/>
      <point x="261" y="343"/>
      <point x="259" y="351" type="curve"/>
      <point x="261" y="358"/>
      <point x="262" y="365"/>
      <point x="262" y="372" type="curve" smooth="yes"/>
      <point x="262" y="382"/>
      <point x="260" y="391"/>
      <point x="260" y="401" type="curve" smooth="yes"/>
      <point x="260" y="487"/>
      <point x="264" y="572"/>
      <point x="264" y="658" type="curve" smooth="yes"/>
      <point x="264" y="678"/>
      <point x="255" y="681"/>
      <point x="244" y="691" type="curve"/>
      <point x="238" y="678" type="line"/>
      <point x="238" y="684"/>
      <point x="237" y="690"/>
      <point x="236" y="696" type="curve"/>
      <point x="228" y="696"/>
      <point x="223" y="681"/>
      <point x="219" y="673" type="curve"/>
      <point x="218" y="681"/>
      <point x="217" y="690"/>
      <point x="217" y="698" type="curve"/>
    </contour>
    <contour>
      <point x="93" y="601" type="line"/>
      <point x="93" y="592"/>
      <point x="95" y="580"/>
      <point x="95" y="570" type="curve" smooth="yes"/>
      <point x="95" y="564"/>
      <point x="94" y="549"/>
      <point x="93" y="549" type="curve" smooth="yes"/>
      <point x="93" y="549"/>
      <point x="93" y="550"/>
      <point x="93" y="552" type="curve" smooth="yes"/>
      <point x="92" y="562"/>
      <point x="90" y="570"/>
      <point x="90" y="579" type="curve" smooth="yes"/>
      <point x="90" y="586"/>
      <point x="91" y="594"/>
      <point x="93" y="601" type="curve"/>
    </contour>
    <contour>
      <point x="109" y="573" type="line"/>
      <point x="107" y="564"/>
      <point x="107" y="554"/>
      <point x="107" y="544" type="curve" smooth="yes"/>
      <point x="108" y="532"/>
      <point x="107" y="521"/>
      <point x="109" y="509" type="curve"/>
      <point x="109" y="519"/>
      <point x="110" y="530"/>
      <point x="110" y="541" type="curve" smooth="yes"/>
      <point x="110" y="552"/>
      <point x="109" y="562"/>
      <point x="109" y="573" type="curve"/>
    </contour>
    <contour>
      <point x="95" y="510" type="line"/>
      <point x="98" y="483"/>
      <point x="98" y="451"/>
      <point x="98" y="425" type="curve" smooth="yes"/>
      <point x="98" y="418"/>
      <point x="97" y="411"/>
      <point x="91" y="411" type="curve"/>
      <point x="90" y="413"/>
      <point x="90" y="416"/>
      <point x="90" y="418" type="curve" smooth="yes"/>
      <point x="90" y="427"/>
      <point x="94" y="449"/>
      <point x="94" y="466" type="curve" smooth="yes"/>
      <point x="94" y="474"/>
      <point x="93" y="483"/>
      <point x="93" y="492" type="curve" smooth="yes"/>
      <point x="93" y="498"/>
      <point x="93" y="504"/>
      <point x="95" y="510" type="curve"/>
    </contour>
    <contour>
      <point x="203" y="376" type="line"/>
      <point x="206" y="374"/>
      <point x="208" y="371"/>
      <point x="208" y="367" type="curve" smooth="yes"/>
      <point x="208" y="362"/>
      <point x="205" y="356"/>
      <point x="204" y="352" type="curve"/>
      <point x="203" y="360"/>
      <point x="203" y="368"/>
      <point x="203" y="376" type="curve"/>
    </contour>
    <contour>
      <point x="205" y="353" type="line"/>
      <point x="206" y="348"/>
      <point x="206" y="343"/>
      <point x="206" y="338" type="curve" smooth="yes"/>
      <point x="206" y="333"/>
      <point x="206" y="327"/>
      <point x="204" y="321" type="curve"/>
      <point x="203" y="325"/>
      <point x="202" y="330"/>
      <point x="202" y="334" type="curve" smooth="yes"/>
      <point x="202" y="340"/>
      <point x="203" y="346"/>
      <point x="205" y="353" type="curve"/>
    </contour>
    <contour>
      <point x="40" y="325" type="line"/>
      <point x="41" y="321"/>
      <point x="41" y="317"/>
      <point x="41" y="313" type="curve" smooth="yes"/>
      <point x="41" y="307"/>
      <point x="40" y="302"/>
      <point x="38" y="297" type="curve"/>
      <point x="38" y="301"/>
      <point x="37" y="304"/>
      <point x="37" y="307" type="curve" smooth="yes"/>
      <point x="37" y="313"/>
      <point x="38" y="319"/>
      <point x="40" y="325" type="curve"/>
    </contour>
    <contour>
      <point x="253" y="298" type="line"/>
      <point x="255" y="292"/>
      <point x="255" y="287"/>
      <point x="255" y="281" type="curve" smooth="yes"/>
      <point x="255" y="274"/>
      <point x="253" y="267"/>
      <point x="253" y="260" type="curve" smooth="yes"/>
      <point x="253" y="253"/>
      <point x="255" y="246"/>
      <point x="255" y="238" type="curve" smooth="yes"/>
      <point x="255" y="233"/>
      <point x="254" y="229"/>
      <point x="252" y="224" type="curve"/>
      <point x="247" y="244"/>
      <point x="250" y="267"/>
      <point x="248" y="289" type="curve"/>
      <point x="249" y="289"/>
      <point x="251" y="290"/>
      <point x="252" y="290" type="curve"/>
      <point x="248" y="295" type="line"/>
    </contour>
    <contour>
      <point x="269" y="233" type="line"/>
      <point x="269" y="228"/>
      <point x="268" y="224"/>
      <point x="268" y="219" type="curve" smooth="yes"/>
      <point x="268" y="209"/>
      <point x="269" y="200"/>
      <point x="269" y="190" type="curve" smooth="yes"/>
      <point x="269" y="174"/>
      <point x="268" y="158"/>
      <point x="268" y="142" type="curve" smooth="yes"/>
      <point x="268" y="110"/>
      <point x="269" y="101"/>
      <point x="269" y="69" type="curve" smooth="yes"/>
      <point x="269" y="51"/>
      <point x="266" y="34"/>
      <point x="266" y="17" type="curve" smooth="yes"/>
      <point x="266" y="7"/>
      <point x="267" y="-2"/>
      <point x="267" y="-11" type="curve"/>
      <point x="273" y="13"/>
      <point x="273" y="55"/>
      <point x="273" y="86" type="curve" smooth="yes"/>
      <point x="273" y="131"/>
      <point x="272" y="156"/>
      <point x="272" y="203" type="curve" smooth="yes"/>
      <point x="272" y="213"/>
      <point x="272" y="223"/>
      <point x="269" y="233" type="curve"/>
    </contour>
    <contour>
      <point x="91" y="224" type="line"/>
      <point x="91" y="158"/>
      <point x="91" y="123"/>
      <point x="86" y="60" type="curve"/>
      <point x="86" y="44"/>
      <point x="83" y="28"/>
      <point x="83" y="12" type="curve" smooth="yes"/>
      <point x="83" y="8"/>
      <point x="83" y="3"/>
      <point x="84" y="-2" type="curve"/>
      <point x="91" y="19"/>
      <point x="91" y="42"/>
      <point x="93" y="64" type="curve" smooth="yes"/>
      <point x="99" y="125"/>
      <point x="97" y="167"/>
      <point x="99" y="228" type="curve"/>
      <point x="97" y="228"/>
      <point x="94" y="224"/>
      <point x="91" y="224" type="curve"/>
    </contour>
    <contour>
      <point x="100" y="74" type="line"/>
      <point x="99" y="73"/>
      <point x="98" y="71"/>
      <point x="98" y="69" type="curve" smooth="yes"/>
      <point x="98" y="68"/>
      <point x="98" y="66"/>
      <point x="99" y="66" type="curve" smooth="yes"/>
      <point x="101" y="66"/>
      <point x="102" y="68"/>
      <point x="102" y="71" type="curve" smooth="yes"/>
      <point x="102" y="73"/>
      <point x="102" y="74"/>
      <point x="100" y="74" type="curve"/>
    </contour>
  </outline>
</glyph>
<glyph name="I" format="1">
  <advance width="172"/>
  <unicode hex="0049"/>
  <outline>
    <contour>
      <point x="64" y="689" type="line"/>
      <point x="33" y="683"/>
      <point x="30" y="646"/>
      <point x="30" y="611" type="curve" smooth="yes"/>
      <point x="30" y="585" type="line" smooth="yes"/>
      <point x="30" y="545"/>
      <point x="33" y="470"/>
      <point x="37" y="439" type="curve"/>
      <point x="37" y="413" type="line" smooth="yes"/>
      <point x="37" y="386"/>
      <point x="43" y="352"/>
      <point x="43" y="330" type="curve" smooth="yes"/>
      <point x="43" y="321"/>
      <point x="42" y="313"/>
      <point x="42" y="304" type="curve"/>
      <point x="44" y="285"/>
      <point x="44" y="266"/>
      <point x="44" y="246" type="curve" smooth="yes"/>
      <point x="44" y="206" type="line" smooth="yes"/>
      <point x="44" y="188"/>
      <point x="45" y="169"/>
      <point x="46" y="151" type="curve" smooth="yes"/>
      <point x="49" y="115"/>
      <point x="50" y="35"/>
      <point x="83" y="9" type="curve"/>
      <point x="83" y="13"/>
      <point x="84" y="17"/>
      <point x="85" y="22" type="curve"/>
      <point x="90" y="12"/>
      <point x="90" y="6"/>
      <point x="104" y="2" type="curve"/>
      <point x="107" y="9"/>
      <point x="109" y="17"/>
      <point x="110" y="25" type="curve"/>
      <point x="113" y="20"/>
      <point x="116" y="16"/>
      <point x="119" y="12" type="curve"/>
      <point x="129" y="17"/>
      <point x="132" y="22"/>
      <point x="136" y="32" type="curve"/>
      <point x="137" y="24"/>
      <point x="137" y="16"/>
      <point x="139" y="8" type="curve"/>
      <point x="144" y="18"/>
      <point x="145" y="29"/>
      <point x="145" y="39" type="curve" smooth="yes"/>
      <point x="145" y="69" type="line" smooth="yes"/>
      <point x="145" y="82"/>
      <point x="146" y="95"/>
      <point x="146" y="107" type="curve" smooth="yes"/>
      <point x="146" y="133"/>
      <point x="144" y="160"/>
      <point x="144" y="184" type="curve" smooth="yes"/>
      <point x="144" y="197" type="line" smooth="yes"/>
      <point x="144" y="201"/>
      <point x="144" y="205"/>
      <point x="143" y="209" type="curve"/>
      <point x="143" y="216"/>
      <point x="144" y="223"/>
      <point x="146" y="230" type="curve"/>
      <point x="148" y="225"/>
      <point x="149" y="221"/>
      <point x="149" y="216" type="curve" smooth="yes"/>
      <point x="149" y="192" type="line" smooth="yes"/>
      <point x="149" y="181"/>
      <point x="151" y="169"/>
      <point x="151" y="158" type="curve" smooth="yes"/>
      <point x="151" y="140" type="line" smooth="yes"/>
      <point x="151" y="130"/>
      <point x="152" y="121"/>
      <point x="152" y="111" type="curve" smooth="yes"/>
      <point x="152" y="90"/>
      <point x="148" y="70"/>
      <point x="148" y="48" type="curve" smooth="yes"/>
      <point x="148" y="40"/>
      <point x="149" y="31"/>
      <point x="151" y="23" type="curve"/>
      <point x="156" y="35"/>
      <point x="156" y="68"/>
      <point x="156" y="89" type="curve" smooth="yes"/>
      <point x="156" y="128" type="line" smooth="yes"/>
      <point x="156" y="147"/>
      <point x="154" y="167"/>
      <point x="154" y="186" type="curve" smooth="yes"/>
      <point x="154" y="213" type="line" smooth="yes"/>
      <point x="154" y="234"/>
      <point x="153" y="256"/>
      <point x="151" y="277" type="curve"/>
      <point x="150" y="274"/>
      <point x="147" y="270"/>
      <point x="147" y="266" type="curve" smooth="yes"/>
      <point x="147" y="260"/>
      <point x="149" y="254"/>
      <point x="149" y="248" type="curve" smooth="yes"/>
      <point x="149" y="243"/>
      <point x="148" y="237"/>
      <point x="145" y="232" type="curve"/>
      <point x="140" y="251"/>
      <point x="140" y="279"/>
      <point x="140" y="302" type="curve" smooth="yes"/>
      <point x="140" y="328" type="line" smooth="yes"/>
      <point x="140" y="341"/>
      <point x="135" y="352"/>
      <point x="135" y="366" type="curve" smooth="yes"/>
      <point x="135" y="380"/>
      <point x="136" y="395"/>
      <point x="137" y="409" type="curve"/>
      <point x="146" y="409"/>
      <point x="144" y="406"/>
      <point x="148" y="404" type="curve"/>
      <point x="146" y="459"/>
      <point x="144" y="512"/>
      <point x="138" y="568" type="curve" smooth="yes"/>
      <point x="135" y="595"/>
      <point x="138" y="623"/>
      <point x="131" y="650" type="curve"/>
      <point x="128" y="637" type="line"/>
      <point x="123" y="663"/>
      <point x="113" y="665"/>
      <point x="98" y="677" type="curve"/>
      <point x="90" y="662" type="line"/>
      <point x="90" y="672"/>
      <point x="89" y="678"/>
      <point x="79" y="685" type="curve"/>
      <point x="74" y="678"/>
      <point x="71" y="670"/>
      <point x="67" y="663" type="curve"/>
      <point x="66" y="671"/>
      <point x="64" y="680"/>
      <point x="64" y="689" type="curve"/>
    </contour>
    <contour>
      <point x="94" y="429" type="line"/>
      <point x="96" y="427"/>
      <point x="100" y="424"/>
      <point x="102" y="421" type="curve"/>
      <point x="102" y="418"/>
      <point x="101" y="414"/>
      <point x="100" y="412" type="curve"/>
      <point x="102" y="403"/>
      <point x="100" y="400"/>
      <point x="110" y="395" type="curve"/>
      <point x="107" y="394"/>
      <point x="104" y="393"/>
      <point x="101" y="393" type="curve"/>
      <point x="103" y="381" type="line"/>
      <point x="98" y="374" type="line"/>
      <point x="101" y="373"/>
      <point x="104" y="373"/>
      <point x="107" y="373" type="curve"/>
      <point x="104" y="368"/>
      <point x="101" y="360"/>
      <point x="101" y="352" type="curve" smooth="yes"/>
      <point x="101" y="347"/>
      <point x="103" y="342"/>
      <point x="105" y="337" type="curve"/>
      <point x="99" y="343" type="line"/>
      <point x="97" y="342"/>
      <point x="95" y="342"/>
      <point x="94" y="341" type="curve" smooth="yes"/>
      <point x="97" y="351" type="line"/>
      <point x="86" y="348" type="line"/>
      <point x="96" y="357" type="line"/>
      <point x="94" y="367"/>
      <point x="91" y="380"/>
      <point x="91" y="391" type="curve" smooth="yes"/>
      <point x="91" y="401"/>
      <point x="95" y="411"/>
      <point x="95" y="422" type="curve" smooth="yes"/>
      <point x="95" y="424"/>
      <point x="94" y="426"/>
      <point x="94" y="429" type="curve"/>
    </contour>
    <contour>
      <point x="115" y="409" type="line"/>
      <point x="122" y="409"/>
      <point x="124" y="409"/>
      <point x="124" y="401" type="curve"/>
    </contour>
    <contour>
      <point x="131" y="396" type="line"/>
      <point x="128" y="389"/>
      <point x="122" y="389"/>
      <point x="116" y="385" type="curve"/>
      <point x="121" y="401" type="line"/>
    </contour>
    <contour>
      <point x="123" y="377" type="line"/>
      <point x="124" y="370"/>
      <point x="125" y="363"/>
      <point x="125" y="356" type="curve"/>
      <point x="122" y="363"/>
      <point x="119" y="369"/>
      <point x="114" y="375" type="curve"/>
      <point x="120" y="379"/>
      <point x="125" y="382"/>
      <point x="132" y="384" type="curve"/>
    </contour>
    <contour>
      <point x="123" y="353" type="line"/>
      <point x="131" y="349"/>
      <point x="133" y="345"/>
      <point x="133" y="334" type="curve"/>
      <point x="130" y="334"/>
      <point x="126" y="334"/>
      <point x="123" y="333" type="curve"/>
    </contour>
    <contour>
      <point x="56" y="339" type="line"/>
      <point x="65" y="334"/>
      <point x="72" y="330"/>
      <point x="72" y="321" type="curve"/>
      <point x="66" y="326"/>
      <point x="60" y="332"/>
      <point x="56" y="339" type="curve"/>
    </contour>
    <contour>
      <point x="128" y="327" type="line"/>
      <point x="133" y="327"/>
      <point x="134" y="326"/>
      <point x="134" y="324" type="curve" smooth="yes"/>
      <point x="134" y="322"/>
      <point x="132" y="321"/>
      <point x="130" y="321" type="curve" smooth="yes"/>
      <point x="128" y="321"/>
      <point x="127" y="323"/>
      <point x="127" y="324" type="curve" smooth="yes"/>
      <point x="127" y="325"/>
      <point x="127" y="326"/>
      <point x="128" y="327" type="curve"/>
    </contour>
    <contour>
      <point x="127" y="321" type="line"/>
      <point x="127" y="304" type="line"/>
      <point x="121" y="314" type="line"/>
    </contour>
    <contour>
      <point x="106" y="280" type="line"/>
      <point x="97" y="280" type="line"/>
      <point x="100" y="296" type="line"/>
    </contour>
    <contour>
      <point x="106" y="266" type="line"/>
      <point x="100" y="254" type="line"/>
      <point x="100" y="269" type="line"/>
    </contour>
    <contour>
      <point x="102" y="192" type="line"/>
      <point x="106" y="192"/>
      <point x="107" y="191"/>
      <point x="107" y="189" type="curve" smooth="yes"/>
      <point x="107" y="187"/>
      <point x="106" y="185"/>
      <point x="104" y="185" type="curve" smooth="yes"/>
      <point x="102" y="185"/>
      <point x="101" y="187"/>
      <point x="101" y="189" type="curve" smooth="yes"/>
      <point x="101" y="190"/>
      <point x="101" y="191"/>
      <point x="102" y="192" type="curve"/>
    </contour>
  </outline>
</glyph>
